<svg xmlns="http://www.w3.org/2000/svg" xmlns:xlink="http://www.w3.org/1999/xlink" xmlns:lucid="lucid" width="858.39" height="621.96"><g transform="translate(-66.6062746906382 13.649515982018784)" lucid:page-tab-id="0_0"><path d="M595.98 183.1c-.7-.5-1.6-.5-2.47 0l-86.9 47.2h176.28l-86.9-47.2zm-1.24 38.9c-6.52 0-11.98-4.83-11.98-10.8 0-6 5.46-10.98 11.98-10.98 6.52 0 12 5 12 10.97 0 5.97-5.48 10.8-12 10.8z" stroke="#000" stroke-opacity="0" stroke-width="1.82" fill="#9c0202"/><path d="M602.5 211.2c0 3.8-3.53 6.97-7.76 6.97S587 215 587 211.2c0-4 3.5-7 7.74-7 4.23 0 7.76 3 7.76 7zM588.75 319.4l3.17-4.33c-.35-.5-.7-.83-.7-1.33-6 1.83-13.4 2.83-21.16 2.83-14.1 0-26.1-3.33-32.43-7.98v12.62c0 5.48 13.22 11.63 32.43 11.63 10.93 0 20.1-2 25.92-4.82l-7.05-6.3c-.7-.5-.7-1.5-.18-2.34z" stroke="#000" stroke-opacity="0" stroke-width="1.82" fill="#9c0202"/><path d="M570.06 312.9c7.23 0 13.75-1 19.57-2.48 0-.34-.35-.5-.35-.83l-5.82-1c-1.06-.34-1.6-1-1.6-1.84v-9.8c0-1.17.9-1.83 1.6-1.83l5.82-1c.35-.67.35-1.17.53-1.66-5.63 1.66-12.5 2.32-19.74 2.32-14.1 0-26.1-3.33-32.43-8v14.3c0 5.66 13.4 11.8 32.43 11.8zM618.9 289.3c-5.47 0-10.4 3-12.35 7.32-.88 1.5-1.4 3.33-1.4 5.15 0 .83 0 1.67.17 2.66.35 1 .7 1.83.88 2.5 2.3 4.48 7.23 7.3 12.34 7.3 7.58 0 13.75-5.48 13.75-12.46.34-6.64-5.65-12.46-13.4-12.46z" stroke="#000" stroke-opacity="0" stroke-width="1.82" fill="#9c0202"/><path d="M570.06 290.97c8.1 0 15.52-1 21.5-3.16l-2.8-3.8c-.54-.84-.54-1.84.17-2.67l7.75-6.98c.88-.83 2.12-.83 3-.33l3.17 1.83V264.2c-6.17 5-18.16 8.15-32.43 8.15-14.1 0-26.27-3.5-32.44-8.14v14.64c-.35 6.15 13.05 12.13 32.08 12.13z" stroke="#000" stroke-opacity="0" stroke-width="1.82" fill="#9c0202"/><path d="M570.06 269.2c18.87 0 32.44-6.32 32.44-11.64 0-5.48-13.22-11.63-32.44-11.63-19.03 0-32.43 6.15-32.43 11.63.35 5.32 13.4 11.64 32.43 11.64zM644.63 296.12c-.53-2.32-1.6-4.65-3.17-6.98-.53-.83-.18-1.5 0-2.16l3.17-3.82-5.1-4.66-4.24 2.83c-.72.5-1.78.5-2.3 0-2.3-1.33-4.94-2.33-7.76-2.83-.88-.33-1.6-.83-1.76-1.5l-.9-4.65h-7.2l-.9 4.66c-.17.67-.88 1.17-1.58 1.5-2.65.5-4.94 1.33-7.23 2.66l-.53.17c-.88.33-1.76.33-2.3 0l-4.4-2.83-5.1 4.66 3.17 3.82c.53.67.53 1.66 0 2.16l-.35.17c0 .34-.17.34-.17.67v.17c-1.24 1.83-2.12 4-2.65 5.98-.35.83-.88 1.33-1.76 1.5l-5.47.83v6.48l5.12.83c.88.17 1.58.67 1.76 1.5.35 1 .53 2 1.23 3.32.54 1.17 1.07 2.33 1.95 3.5.53.66.36 1.5 0 2l-3.17 3.8 5.3 4.66 4.22-2.82c.53-.17 1.4-.5 1.94-.17 0 0 .35 0 .35.17 2.28 1.33 4.93 2.33 7.4 2.82.88.34 1.4.83 1.76 1.67l.88 4.66h7.23l.88-4.65c.17-.83.7-1.32 1.58-1.66 3-.5 5.3-1.5 7.76-2.82.87-.5 1.75-.5 2.28 0l4.4 2.82 5.12-4.65-3.17-3.83c-.53-.5-.53-1.5 0-2 1.4-2.32 2.64-4.82 3.17-7.14.35-.67.88-1.17 1.76-1.5l5.12-.83v-6.48l-4.6-.5c-.87-.17-1.4-.67-1.75-1.5zm-25.74 21.94c-7.23 0-13.58-3.5-16.4-9.47-.53-1-.88-2.17-1.4-3.34-.36-1.33-.36-2.32-.36-3.5 0-2.3.52-4.64 1.76-6.63 2.82-5.82 9.17-9.3 16.4-9.3 10.04 0 17.97 7.13 17.97 16.28 0 8.48-7.93 15.96-17.98 15.96z" stroke="#000" stroke-opacity="0" stroke-width="1.82" fill="#9c0202"/><path d="M518.94 234.13v112.85c0 1 .88 2 2.3 2h147.54c1.23 0 2.3-.83 2.3-2V234.13H518.93zm136.97 72.63c0 1-.87 1.83-1.75 1.83l-5.64 1c-.7 2.15-1.58 3.8-2.64 5.64l3.18 4.15c.52.82.52 1.82-.36 2.65l-7.75 6.98c-.88.83-1.94.83-2.82.33l-4.58-3.15c-2.1 1-4.05 1.83-6.34 2.33l-1.06 5.16c-.35.98-1.23 1.48-2.12 1.48h-10.92c-1.06 0-1.94-.66-1.94-1.5l-1.24-5.15c-1.94-.5-3.7-1.33-5.46-2.16-4.76 6.32-18.34 10.47-34.73 10.47-20.26 0-36.65-6.8-36.65-15.62v-63.66c0-8.64 16.04-15.62 36.48-15.62 20.28 0 36.5 6.8 36.5 15.3v18.94c1.05-.5 2.3-.83 3.7-1.33l1.05-5.15c.36-1 1.24-1.5 2.12-1.5h10.75c1.24 0 2.12.66 2.12 1.5l1.06 5.15c2.3.5 4.4 1.33 6.34 2.32l4.58-2.82c.9-.5 2.12-.5 3 .33l7.76 6.98c.7.67.7 1.83.18 2.5l-3.17 4.15c1.24 1.84 2.13 3.67 2.65 5.83l5.82 1c1.06.16 1.6 1 1.6 1.82v9.8z" stroke="#000" stroke-opacity="0" stroke-width="1.82" fill="#9c0202"/><path d="M500 379.8h274.87v10.37H500z" fill="none"/><use xlink:href="#a" transform="matrix(1,0,0,1,500.0000000000389,379.80829138430465) translate(0 8.729314630681818)"/><use xlink:href="#b" transform="matrix(1,0,0,1,500.0000000000389,379.80829138430465) translate(36.376953125 8.729314630681818)"/><use xlink:href="#c" transform="matrix(1,0,0,1,500.0000000000389,379.80829138430465) translate(49.51171875 8.729314630681818)"/><use xlink:href="#d" transform="matrix(1,0,0,1,500.0000000000389,379.80829138430465) translate(84.88547585227272 8.729314630681818)"/><path d="M500 393.18h152.24v9.95H500z" fill="none"/><use xlink:href="#e" transform="matrix(1,0,0,1,500.00000000000006,393.17656928686654) translate(0 8.229314630681818)"/><use xlink:href="#f" transform="matrix(1,0,0,1,500.00000000000006,393.17656928686654) translate(22.727272727272723 8.229314630681818)"/><use xlink:href="#g" transform="matrix(1,0,0,1,500.00000000000006,393.17656928686654) translate(38.88938210227272 8.229314630681818)"/><use xlink:href="#h" transform="matrix(1,0,0,1,500.00000000000006,393.17656928686654) translate(64.6395596590909 8.229314630681818)"/><path d="M438.4 281.87V256l-31.26 25.66h-.8V256l-31.26 25.66V227.8c0-4.38-10.7-9.08-24.67-9.08-13.86 0-25.7 4.5-25.7 9.08v97.77H438.4v-43.7zm-88-49.68c-10.1 0-18.3-2.36-18.3-4.93 0-2.56 8.2-4.9 18.3-4.9 10.24 0 18.43 2.02 18.43 4.9 0 2.57-8.2 4.92-18.42 4.92zm53.8 76.28h-12.63v-11.86h12.62v11.86zm-21.96 0h-12.62v-11.86h12.62v11.86zm31.72 0v-11.86h12.62v11.86h-12.62z" stroke="#000" stroke-opacity="0" fill="#9c0202"/><path d="M256.52 315.73H506.6v77.45H256.52z" stroke="#000" stroke-opacity="0" stroke-width="2" fill="#fff" fill-opacity="0"/><use xlink:href="#i" transform="matrix(1,0,0,1,261.51712330267424,320.72692362461913) translate(42.825 26.799999999999997)"/><use xlink:href="#j" transform="matrix(1,0,0,1,261.51712330267424,320.72692362461913) translate(81.375 26.799999999999997)"/><use xlink:href="#k" transform="matrix(1,0,0,1,261.51712330267424,320.72692362461913) translate(156.325 26.799999999999997)"/><use xlink:href="#l" transform="matrix(1,0,0,1,261.51712330267424,320.72692362461913) translate(3.72499999999998 48.4)"/><use xlink:href="#m" transform="matrix(1,0,0,1,261.51712330267424,320.72692362461913) translate(97.52499999999999 48.4)"/><use xlink:href="#n" transform="matrix(1,0,0,1,261.51712330267424,320.72692362461913) translate(190.375 48.4)"/><path d="M474.74 333.18h240v60h-240z" stroke="#000" stroke-opacity="0" stroke-width="2" fill="#fff" fill-opacity="0"/><use xlink:href="#o" transform="matrix(1,0,0,1,479.7424208461156,338.17656928686654) translate(44.974999999999994 28.6)"/><use xlink:href="#p" transform="matrix(1,0,0,1,479.7424208461156,338.17656928686654) translate(88.875 28.6)"/><path d="M177.2 108.33c0 .54-.42 1.02-1.08 1.02h-8.04c-.6 0-1.08-.42-1.08-1.02v-5.76c0-.6.48-1.08 1.08-1.08h8.04c.6 0 1.08.47 1.08 1.07v5.76zM191.66 114.4c0 .53-.48 1-1.08 1h-8.04c-.6 0-1.08-.4-1.08-1v-5.77c0-.6.42-1.08 1.08-1.08h8.04c.6 0 1.08.48 1.08 1.08v5.76zM177.2 120.27c0 .6-.42 1.02-1.08 1.02h-8.04c-.6 0-1.08-.43-1.08-1.03v-5.76c0-.6.48-1 1.08-1h8.04c.6 0 1.08.4 1.08 1v5.77zM162.8 102.27c0 .6-.42 1.02-1.08 1.02h-8.22c-.6 0-1.02-.43-1.02-1.03V96.2c0-.53.42-1 1.02-1h8.1c.72 0 1.2.4 1.2 1v6.07z" stroke="#000" stroke-opacity="0" fill="#9c0202"/><path d="M198.8 81.33h-57.72c-.6 0-1.08.42-1.08 1.02V94.3c0 .6.42 1 1.08 1h6.24c.6 0 1.02-.4 1.02-1v-5h43.32v5c0 .6.42 1 1.2 1h5.94c.6 0 1.08-.4 1.08-1V82.22c0-.6-.48-.9-1.08-.9zM198.8 127.47h-5.94c-.6 0-1.08.48-1.08 1.08v4.86h-43.44v-4.97c0-.6-.42-1.08-1.2-1.08h-5.94c-.6 0-1.02.42-1.02 1.2v11.76c0 .6.42 1.1 1.02 1.1h57.78c.6 0 1.08-.43 1.08-1.1v-11.75c-.18-.6-.66-1.08-1.26-1.08zM162.62 114.2c0 .6-.42 1.03-1.02 1.03h-8.1c-.6 0-1.02-.42-1.02-1.02v-5.75c0-.6.42-1.02 1.02-1.02h8.1c.6 0 1.02.42 1.02 1.02v5.76zM162.62 126.15c0 .6-.42 1.02-1.02 1.02h-8.1c-.6 0-1.02-.42-1.02-1.02v-5.76c0-.6.42-1.03 1.02-1.03h8.1c.6 0 1.02.42 1.02 1.02v5.75z" stroke="#000" stroke-opacity="0" fill="#9c0202"/><path d="M113.22 141.33h110v60h-110z" stroke="#000" stroke-opacity="0" stroke-width="2" fill="#fff" fill-opacity="0"/><use xlink:href="#q" transform="matrix(1,0,0,1,118.22446770116221,146.33333333333331) translate(12.049999999999997 17.799999999999997)"/><use xlink:href="#r" transform="matrix(1,0,0,1,118.22446770116221,146.33333333333331) translate(12.049999999999997 39.4)"/><use xlink:href="#s" transform="matrix(1,0,0,1,118.22446770116221,146.33333333333331) translate(17.049999999999997 39.4)"/><path d="M172.7 247.07c-.18-.38-.6-.53-.84-1-.42-.14-.78-.37-1.26-.37-.6 0-1.02.23-1.44.38-.42.23-.6.6-1.02.84-.24.38-.48.76-.66 1.14-.18.46-.18 1-.18 1.6 0 .76 0 1.37.18 1.75.24.62.48 1 .66 1.23.18.38.6.53 1.02.53.42.23.84.23 1.26.23.42 0 .84 0 1.02-.24.42-.15.6-.38 1.08-.76.18-.38.42-.76.6-1.14.18-.46.18-1 .18-1.83 0-.53 0-1-.18-1.52 0 0-.24-.45-.42-.83z" stroke="#000" stroke-opacity="0" fill="#9c0202"/><path d="M170 209.32c-16.68 0-30 5.32-30 11.26v53.36c0 5.94 13.56 11.5 30 11.5 16.68 0 29.94-5.33 29.94-11.27V220.8c.24-5.93-13.26-11.48-29.94-11.48zM161 254c0 .45-.18.76-.42 1.22-.18.38-.42.76-.84.98-.42.4-.78.54-1.2.77-.48.22-1.08.38-1.92.6-.6.16-1.44.16-2.46.16h-1.5c-.42 0-.84 0-1.26-.16-.42 0-.84-.22-1.02-.22-.42 0-.6-.23-.84-.38v-4.2c.24.24.6.4 1.02.62.48.14.66.37 1.08.52.42.23.84.23 1.26.46.42.15.78.15 1.26.15.42 0 .6 0 .78-.15.24 0 .48-.23.48-.23.18 0 .18-.23.18-.38v-.46c0-.14 0-.37-.18-.52-.24-.23-.24-.46-.48-.46-.18-.15-.42-.15-.78-.38-.48-.23-.66-.23-1.08-.38-.6-.23-1.26-.6-1.86-1-.42-.44-.84-.6-1.26-.98-.42-.45-.6-.76-.6-1.22-.24-.38-.24-1-.24-1.37 0-.77.24-1.38.48-1.98.42-.6.78-1.22 1.26-1.6.6-.38 1.2-.76 2.04-1 .84-.14 1.68-.37 2.76-.37h1.44c.42 0 .84 0 1.26.23.42 0 .6.15 1.02.15.42 0 .66.23.84.23v3.95c-.18-.2-.42-.2-.84-.37-.18-.23-.6-.23-1.02-.45-.42-.16-.6-.16-1.02-.16h-1.26c-.6 0-1.08 0-1.26.16-.42.22-.42.45-.42.83 0 .17 0 .4.18.4 0 .22.24.22.42.37.24.23.48.23.66.46.18.15.6.15 1.02.38.6.24 1.26.62 1.86.77.6.46 1.02.6 1.5 1 .42.37.6.75 1.02 1.2.18.4.42 1 .42 1.76-.24.3-.48.7-.48 1.07zm12.3 7.53l-3.54-3.57c-1.02 0-2.1-.4-2.88-.6-.84-.4-1.68-1-2.34-1.54-.6-.6-1.2-1.37-1.62-2.36-.42-1-.6-1.97-.6-3.2 0-1.2.18-2.35.6-3.34.42-1 1.02-1.83 1.62-2.6.66-.83 1.68-1.2 2.52-1.6 1.08-.37 2.1-.52 3.36-.52 1.26 0 2.28.15 3.12.53 1.02.38 1.86 1 2.52 1.6.6.53 1.26 1.52 1.62 2.36.42.98.6 1.97.6 3.34 0 .84 0 1.83-.42 2.43-.18.77-.6 1.37-1.02 1.98-.42.54-.84 1.15-1.5 1.53-.6.38-1.02.76-1.86 1.2l5.46 4.35h-5.64zm17.94-3.96h-10.38v-15.22h4.8v11.72h5.64v3.5zM170 225.9c-11.88 0-21.42-2.73-21.42-6.08 0-3.42 9.54-6.17 21.42-6.17 11.88 0 21.48 2.75 21.48 6.17 0 3.35-9.6 6.1-21.48 6.1z" stroke="#000" stroke-opacity="0" fill="#9c0202"/><path d="M103.22 283.83h130v68.3h-130z" stroke="#000" stroke-opacity="0" stroke-width="2" fill="#fff" fill-opacity="0"/><use xlink:href="#t" transform="matrix(1,0,0,1,108.22446770116221,288.82501677530695) translate(6.149999999999999 14.4)"/><use xlink:href="#u" transform="matrix(1,0,0,1,108.22446770116221,288.82501677530695) translate(17.599999999999994 36)"/><use xlink:href="#v" transform="matrix(1,0,0,1,108.22446770116221,288.82501677530695) translate(54.5 36)"/><use xlink:href="#w" transform="matrix(1,0,0,1,108.22446770116221,288.82501677530695) translate(39.925 57.6)"/><path d="M190.5 390.28l-13.2 16.98-2.17-2.88 14.87-19-14.87-19.05 2.16-2.9 13.2 17 3.82 4.94-3.8 4.9zM135.4 390.28l12.97 16.98 2.23-2.88-14.94-19 14.94-19.05-2.23-2.9-12.96 17-4 4.94 4 4.9z" stroke="#000" stroke-opacity="0" fill="#9c0202"/><path d="M155.24 385.37c0-2.66-1.72-4.94-3.82-4.94-2.22 0-3.8 2.28-3.8 4.94 0 2.63 1.77 4.9 3.8 4.9 2.23 0 3.82-2.27 3.82-4.9zM162.86 390.28c2.1 0 3.82-2.28 3.82-4.9 0-2.67-1.72-4.95-3.82-4.95-2.03 0-3.8 2.28-3.8 4.94 0 2.63 1.77 4.9 3.8 4.9zM174.3 390.28c2.1 0 3.82-2.28 3.82-4.9 0-2.67-1.78-4.95-3.82-4.95-2.22 0-3.8 2.28-3.8 4.94 0 2.63 1.58 4.9 3.8 4.9z" stroke="#000" stroke-opacity="0" fill="#9c0202"/><path d="M93.14 383.13h140.08V480H93.14z" stroke="#000" stroke-opacity="0" stroke-width="2" fill="#fff" fill-opacity="0"/><use xlink:href="#x" transform="matrix(1,0,0,1,98.1383313691076,388.1265556315193) translate(24.949999999999996 36.3)"/><use xlink:href="#y" transform="matrix(1,0,0,1,98.1383313691076,388.1265556315193) translate(74.15 36.3)"/><use xlink:href="#z" transform="matrix(1,0,0,1,98.1383313691076,388.1265556315193) translate(2.1499999999999915 57.9)"/><use xlink:href="#A" transform="matrix(1,0,0,1,98.1383313691076,388.1265556315193) translate(57.95 57.9)"/><path d="M151.73 460H136.5c-2.4 0-5.17 1-6.87 2.6l-3.85 3.8c-1.6 1.55-2.77 4.16-2.77 6.4v43.6c0 3.16 2.78 5.7 6.1 5.7h64.82c3.4 0 6.1-2.6 6.1-5.7v-40.2c0-3.1-2.8-5.64-6.1-5.64h-27.17c-.4 0-1.3-.56-1.62-.93l-6.24-6.7c-2.1-1.75-4.78-2.93-7.17-2.93z" stroke="#000" stroke-opacity="0" fill="#9c0202"/><path d="M86.6 522.1h153.16v61.22H86.6z" stroke="#000" stroke-opacity="0" stroke-width="2" fill="#fff" fill-opacity="0"/><use xlink:href="#B" transform="matrix(1,0,0,1,91.6062746906382,527.1069723846236) translate(18.974999999999994 14.4)"/><use xlink:href="#C" transform="matrix(1,0,0,1,91.6062746906382,527.1069723846236) translate(64.525 14.4)"/><use xlink:href="#D" transform="matrix(1,0,0,1,91.6062746906382,527.1069723846236) translate(107.075 14.4)"/><use xlink:href="#v" transform="matrix(1,0,0,1,91.6062746906382,527.1069723846236) translate(48.05 36)"/><use xlink:href="#E" transform="matrix(1,0,0,1,91.6062746906382,527.1069723846236) translate(23.124999999999993 57.6)"/><path d="M857.28 346.98c-.1-.1-.1-.28-.1-.38-.1-.2-.1-.28-.2-.38v-.1c-.1 0-.1-.1-.1-.2-.1 0-.1 0-.1-.08h-.1c0-.1-.1-.2-.2-.3v-.08c-.1-.1-.2-.2-.3-.2l-.1-.1c-.1-.08-.2-.08-.3-.18h-.1c-.1-.1-.2-.2-.4-.2v-.08l-23.2-9.42-23.3-9.42c-.9-.38-2.1-.38-3 0l-23.3 9.42-23.2 9.42v.1c-.2 0-.3.1-.4.18h-.1c-.1.1-.2.1-.3.2l-.1.1c-.1 0-.2.08-.3.18v.1l-.2.18c0 .1-.1.1-.1.1 0 .1 0 .1-.1.1 0 .1 0 .18-.1.18v.1c-.1.1-.1.2-.2.38 0 .1 0 .3-.1.38V395.9c0 1.04.7 2.08 1.8 2.56l22.6 10.56c.2.2.4.3.7.48l23.2 10.84c.1.1.3.1.4.2h.1c.1 0 .2.1.3.1h.1c.1 0 .2 0 .3.08h1c.1-.1.2-.1.3-.1h.1c.1 0 .2-.1.3-.1h.1c.1-.08.3-.08.4-.18l23.2-10.84c.3-.2.5-.3.7-.48l22.6-10.56c1.1-.48 1.8-1.52 1.8-2.57v-48.44-.1-.38zm-93 5.42l16.2 7.62v17.5l-16.2-7.6V352.4zm19.8-11.13l15.6 6.38-15.6 7.23-15.6-7.23 15.6-6.38zm46.4 0l15.6 6.38-15.6 7.23-15.6-7.23 15.6-6.38zm-23.2 48.8l-16-7.5 16-7.52 16 7.52-16 7.5zm19.7-12.55l-16.2-7.6V352.4l16.2 7.62v17.5zm-23.2-7.6l-16.2 7.6v-17.5l16.2-7.62v17.5zm-16.2 17.7l16.2 7.6v17.5l-16.2-7.6v-17.5zm23.2 7.6l16.2-7.6v17.5l-16.2 7.6v-17.5zm23.3-17.7v-17.5l16.2-7.62v17.5l-16.2 7.62zm-26.8-45.67l15.1 6.1-15.1 6.18-15.1-6.2 15.1-6.08zm-43 44.9l16.2 7.63v17.3l-16.2-7.6v-17.32zm69.8 24.94v-17.32l16.2-7.62v17.32l-16.2 7.6z" stroke="#000" stroke-opacity="0" stroke-width="1.5" fill="#9c0202"/><path d="M740.92 407.3h132.72v99.88H740.92z" stroke="#000" stroke-opacity="0" stroke-width="2" fill="#fff" fill-opacity="0"/><use xlink:href="#F" transform="matrix(1,0,0,1,745.9216874999898,412.3072630176651) translate(14.774999999999991 37.8)"/><use xlink:href="#G" transform="matrix(1,0,0,1,745.9216874999898,412.3072630176651) translate(69.32499999999999 37.8)"/><use xlink:href="#H" transform="matrix(1,0,0,1,745.9216874999898,412.3072630176651) translate(34.075 59.4)"/><path d="M783.36 148.5l-15.04 10.86-.66-.54v12.26h86.9v-23.74l-22.6-10.8-26.57 28.1-22.04-16.14z" stroke="#000" stroke-opacity="0" fill="#9c0202"/><path d="M774.66 128.17l-7 8.38v15.67l15.7-11.17 19.67 14.43 26-27.16 25.53 12.26v-32.82l-24.3-4.5-31.3 30.5-24.3-5.6z" stroke="#000" stroke-opacity="0" fill="#9c0202"/><path d="M760 100V177.6h94.56v-3.26h-90.68V100H760z" stroke="#000" stroke-opacity="0" fill="#9c0202"/><path d="M854.56 100v77.6H760V100h94.56z" stroke="#000" stroke-opacity="0" fill-opacity="0"/><path d="M715 177.6h190v71H715z" stroke="#000" stroke-opacity="0" stroke-width="2" fill="#fff" fill-opacity="0"/><g><use xlink:href="#I" transform="matrix(1,0,0,1,720,182.59869019465162) translate(37.64999999999999 23.799999999999997)"/><use xlink:href="#y" transform="matrix(1,0,0,1,720,182.59869019465162) translate(110.45 23.799999999999997)"/><use xlink:href="#J" transform="matrix(1,0,0,1,720,182.59869019465162) translate(38.12499999999999 45.4)"/></g><path d="M199.57 95.02h151.07v123.72" stroke="#9c0202" stroke-width="2" fill="none"/><path d="M199.57 96.02h-3v-.7h2.23l.76-.3zM351.64 218.8l-1-.06h1zm-2 0v-.06h.58z" fill="#9c0202"/><path d="M199.94 247.15h62.4v21.9h62.37" stroke="#9c0202" stroke-width="2" fill="none"/><path fill="#9c0202"/><path d="M324.7 269.16v-1.1z" fill="#9c0202"/><path d="M197.43 383.13V357.8H260v-88.75h64.7" stroke="#9c0202" stroke-width="2" fill="none"/><path fill="#9c0202"/><path d="M324.7 269.16v-1.1z" fill="#9c0202"/><path d="M200 498.57h182.47v-173" stroke="#9c0202" stroke-width="2" fill="none"/><path fill="#9c0202"/><path fill="#9c0202"/><path d="M438.4 286.9h80.54" stroke="#9c0202" stroke-width="2" fill="none"/><path fill="#9c0202"/><path fill="#9c0202"/><path d="M671.07 265.87h46.4v-123.3h46.4" stroke="#9c0202" stroke-width="2" fill="none"/><path d="M671.07 266.87v-2zM766.88 143.57h-3v-2h3z" fill="#9c0202"/><path d="M671.07 288.1h43.1v85.05h43.1" stroke="#9c0202" stroke-width="2" fill="none"/><path d="M671.07 289.1v-2z" fill="#9c0202"/><path fill="#9c0202"/><path d="M125.92 6.35h556.96v74H125.92z" stroke="#000" stroke-opacity="0" stroke-width="2" fill="#fff" fill-opacity="0"/><g><use xlink:href="#K" transform="matrix(1,0,0,1,130.91891599551306,11.350484017981216) translate(0 37.333333333333336)"/><use xlink:href="#L" transform="matrix(1,0,0,1,130.91891599551306,11.350484017981216) translate(54.66666666666667 37.333333333333336)"/><use xlink:href="#M" transform="matrix(1,0,0,1,130.91891599551306,11.350484017981216) translate(196.5185185185186 37.333333333333336)"/><use xlink:href="#N" transform="matrix(1,0,0,1,130.91891599551306,11.350484017981216) translate(261.55555555555566 37.333333333333336)"/><use xlink:href="#M" transform="matrix(1,0,0,1,130.91891599551306,11.350484017981216) translate(411.4074074074075 37.333333333333336)"/><use xlink:href="#O" transform="matrix(1,0,0,1,130.91891599551306,11.350484017981216) translate(476.44444444444457 37.333333333333336)"/></g><defs><path d="M381-711c0 302 128 499 414 499 178 0 302-89 371-268l257 97c-99 251-300 400-628 403C342 25 84-257 84-711c0-457 243-719 698-719 334 0 540 138 623 392l-260 71c-40-136-182-233-357-231-284 2-407 189-407 487" id="P"/><path d="M646-868c-165 0-222 146-222 337V0H143c-4-356 8-741-8-1082h268c4 15 14 211 13 231h4c48-123 63-177 149-229 44-27 147-31 197-8v235c-45-10-85-15-120-15" id="Q"/><path d="M375-487c-1 185 60 319 225 319 99 0 162-43 188-129l265 23C976-78 821 20 586 20 247 19 80-194 80-546c0-344 176-559 510-556 341 3 483 247 479 615H375zm422-176c-8-153-68-262-211-262-144 0-206 112-209 262h420" id="R"/><path d="M972 12c-145 0-202-73-217-205h-6C670-51 552 20 393 20 187 20 58-100 60-306c3-242 172-345 427-346l233-4c5-152-16-266-158-264-112 2-147 49-160 153l-293-14c38-217 204-321 465-321 262 0 427 133 427 388v394c3 101 7 160 89 160 21 0 42-2 62-6v152c-57 15-108 27-180 26zM483-176c165 0 247-140 237-325-89 1-231-1-283 23-55 25-84 70-84 150 0 94 44 152 130 152" id="S"/><path d="M440-330c0 98 31 152 123 154 22 0 53-5 94-14v174C588 7 509 18 420 18c-170-1-258-95-258-272v-638H25v-190h151l88-254h176v254h205v190H440v562" id="T"/><path d="M500-1102c166 0 271 75 329 191-3-189-2-382-2-573h281v1248c0 67 3 145 8 236H844c-6-25-16-141-15-176h-4C764-45 649 20 479 20c-126 0-223-50-292-148S84-363 84-540c0-321 122-562 416-562zm331 555c0-200-54-364-231-364-75 0-131 30-168 91s-55 155-55 280c0 245 74 368 221 368 74 0 131-33 172-98s61-157 61-277" id="U"/><g id="a"><use transform="matrix(0.004438920454545454,0,0,0.004438920454545454,0,0)" xlink:href="#P"/><use transform="matrix(0.004438920454545454,0,0,0.004438920454545454,6.565163352272727,0)" xlink:href="#Q"/><use transform="matrix(0.004438920454545454,0,0,0.004438920454545454,10.102982954545453,0)" xlink:href="#R"/><use transform="matrix(0.004438920454545454,0,0,0.004438920454545454,15.158913352272725,0)" xlink:href="#S"/><use transform="matrix(0.004438920454545454,0,0,0.004438920454545454,20.214843750000004,0)" xlink:href="#T"/><use transform="matrix(0.004438920454545454,0,0,0.004438920454545454,23.2421875,0)" xlink:href="#R"/><use transform="matrix(0.004438920454545454,0,0,0.004438920454545454,28.298117897727273,0)" xlink:href="#U"/></g><path d="M770-1102c286 0 397 243 397 557 0 320-120 562-415 565-165 2-272-80-330-194 1 32-7 151-14 174H135c5-62 8-144 8-247v-1237h281c-1 197 2 398-4 590h4c63-139 179-208 346-208zM420-536c0 197 55 364 231 364 149 0 223-124 223-373 0-123-18-214-54-273s-92-89-167-89c-179 0-233 167-233 371" id="V"/><path d="M283 425c-67 0-126-4-177-13V212c70 11 146 17 196-11 80-44 97-100 142-212L16-1082h297c99 309 178 499 271 841 73-291 164-564 250-841h294L700 57c-57 139-116 235-178 288s-142 80-239 80" id="W"/><g id="b"><use transform="matrix(0.004438920454545454,0,0,0.004438920454545454,0,0)" xlink:href="#V"/><use transform="matrix(0.004438920454545454,0,0,0.004438920454545454,5.553089488636363,0)" xlink:href="#W"/></g><path d="M834 0H535L14-1409h308c123 400 253 753 364 1171 104-406 242-780 361-1171h305" id="X"/><path d="M1079-360C1041-124 864 17 594 20 261 23 80-197 80-535c0-344 180-567 518-567 257 0 435 142 473 361l-283 14c-16-106-75-182-196-182-145 0-217 121-217 363 0 249 74 374 221 374 120 0 188-82 201-201" id="Y"/><path d="M627-1102c355 0 544 203 544 560 0 345-207 562-550 562C283 20 80-201 80-542c0-343 204-560 547-560zM375-542c0 208 60 370 243 370 173 0 259-123 259-370 0-129-21-222-63-280s-103-87-183-87c-171 0-256 122-256 367" id="Z"/><path d="M573-916c-112 0-200 14-200 111 0 88 73 97 168 120 199 47 392 70 479 217 24 40 35 90 35 152 0 237-220 338-484 336-282-2-439-78-499-290l247-37c36 115 92 141 252 141 130 0 226-17 226-124 0-35-14-62-43-82s-79-38-148-52c-159-31-266-61-321-88-100-50-170-123-170-263 0-232 201-328 458-328 245 0 416 95 457 292l-249 26c-21-98-82-131-208-131" id="aa"/><g id="c"><use transform="matrix(0.004438920454545454,0,0,0.004438920454545454,0,0)" xlink:href="#X"/><use transform="matrix(0.004438920454545454,0,0,0.004438920454545454,5.561967329545453,0)" xlink:href="#R"/><use transform="matrix(0.004438920454545454,0,0,0.004438920454545454,10.617897727272727,0)" xlink:href="#Y"/><use transform="matrix(0.004438920454545454,0,0,0.004438920454545454,15.673828125,0)" xlink:href="#T"/><use transform="matrix(0.004438920454545454,0,0,0.004438920454545454,18.701171874999996,0)" xlink:href="#Z"/><use transform="matrix(0.004438920454545454,0,0,0.004438920454545454,24.254261363636363,0)" xlink:href="#Q"/><use transform="matrix(0.004438920454545454,0,0,0.004438920454545454,27.792080965909086,0)" xlink:href="#aa"/></g><path d="M1307 0c4-408-9-758 10-1161C1199-702 1088-421 958 0H748C626-385 495-761 387-1161c24 414 7 744 12 1161H137v-1409h395c107 351 232 685 322 1053 98-360 215-702 322-1053h393V0h-262" id="ab"/><path d="M834 0L545-490l-121 84V0H143v-1484h281v850l386-448h302L732-660 1141 0H834" id="ac"/><g id="d"><use transform="matrix(0.004438920454545454,0,0,0.004438920454545454,0,0)" xlink:href="#ab"/><use transform="matrix(0.004438920454545454,0,0,0.004438920454545454,7.572798295454545,0)" xlink:href="#S"/><use transform="matrix(0.004438920454545454,0,0,0.004438920454545454,12.628728693181817,0)" xlink:href="#Q"/><use transform="matrix(0.004438920454545454,0,0,0.004438920454545454,16.166548295454543,0)" xlink:href="#ac"/><use transform="matrix(0.004438920454545454,0,0,0.004438920454545454,21.222478693181817,0)" xlink:href="#R"/><use transform="matrix(0.004438920454545454,0,0,0.004438920454545454,26.278409090909086,0)" xlink:href="#T"/></g><path d="M604-1296c-97 2-130 31-131 129v85h213v190H473V0H193v-892H35v-190h158v-113c1-202 109-289 315-289 53 0 112 5 178 16v181c-27-6-55-9-82-9" id="ad"/><path d="M1251-892c-133 0-192 146-192 299V0H780v-607c0-190-55-285-164-285-132 0-192 159-192 312V0H143c-4-356 9-741-8-1082h268c4 18 14 191 13 215h4c61-142 139-236 315-236 165 0 266 79 301 236h6c67-147 139-236 328-236 229 0 324 171 324 416V0h-279v-607c0-190-55-285-164-285" id="ae"/><g id="e"><use transform="matrix(0.004438920454545454,0,0,0.004438920454545454,0,0)" xlink:href="#ad"/><use transform="matrix(0.004438920454545454,0,0,0.004438920454545454,3.0273437499999996,0)" xlink:href="#Q"/><use transform="matrix(0.004438920454545454,0,0,0.004438920454545454,6.565163352272727,0)" xlink:href="#Z"/><use transform="matrix(0.004438920454545454,0,0,0.004438920454545454,12.11825284090909,0)" xlink:href="#ae"/></g><path d="M651-891c-148 1-227 151-227 312V0H143v-1484h281c-2 207 6 422-8 618h4c67-145 160-236 348-236 243 0 356 161 356 416V0H844v-606c0-190-64-285-193-285" id="af"/><g id="f"><use transform="matrix(0.004438920454545454,0,0,0.004438920454545454,0,0)" xlink:href="#T"/><use transform="matrix(0.004438920454545454,0,0,0.004438920454545454,3.0273437499999996,0)" xlink:href="#af"/><use transform="matrix(0.004438920454545454,0,0,0.004438920454545454,8.580433238636363,0)" xlink:href="#R"/></g><path d="M995 0L381-1085c12 105 18 190 18 254V0H137v-1409h337l623 1094c-12-101-18-192-18-275v-819h262V0H995" id="ag"/><path d="M483 20c-243 0-356-160-356-415v-687h281v607c0 190 64 285 192 285 148-1 227-151 227-312v-580h281c4 356-9 741 8 1082H848c-8-96-12-168-12-215h-5C765-71 670 20 483 20" id="ah"/><path d="M768-1103c243 0 356 161 356 416V0H844v-607c0-190-64-285-193-285-148 1-227 151-227 312V0H143c-4-356 9-741-8-1082h268c4 18 14 191 13 215h4c67-145 160-236 348-236" id="ai"/><g id="g"><use transform="matrix(0.004438920454545454,0,0,0.004438920454545454,0,0)" xlink:href="#ag"/><use transform="matrix(0.004438920454545454,0,0,0.004438920454545454,6.565163352272727,0)" xlink:href="#Z"/><use transform="matrix(0.004438920454545454,0,0,0.004438920454545454,12.11825284090909,0)" xlink:href="#ah"/><use transform="matrix(0.004438920454545454,0,0,0.004438920454545454,17.671342329545453,0)" xlink:href="#ai"/></g><path d="M770-1409c315-3 526 146 526 446 0 301-203 467-514 467H432V0H137v-1409h633zm-25 686c158 1 255-80 254-235 0-148-87-222-262-222H432v457h313" id="aj"/><path d="M144-1277v-207h281v207H144zM425 128c0 189-98 298-287 297-67 0-123-3-170-9V218l51 4c111-4 125-40 125-162v-1142h281V128" id="ak"/><g id="h"><use transform="matrix(0.004438920454545454,0,0,0.004438920454545454,0,0)" xlink:href="#aj"/><use transform="matrix(0.004438920454545454,0,0,0.004438920454545454,6.06356534090909,0)" xlink:href="#Q"/><use transform="matrix(0.004438920454545454,0,0,0.004438920454545454,9.601384943181817,0)" xlink:href="#Z"/><use transform="matrix(0.004438920454545454,0,0,0.004438920454545454,15.15447443181818,0)" xlink:href="#ak"/><use transform="matrix(0.004438920454545454,0,0,0.004438920454545454,17.680220170454543,0)" xlink:href="#R"/><use transform="matrix(0.004438920454545454,0,0,0.004438920454545454,22.736150568181817,0)" xlink:href="#Y"/><use transform="matrix(0.004438920454545454,0,0,0.004438920454545454,27.792080965909086,0)" xlink:href="#T"/></g><path d="M24 0v-248h195v40H76v63h132v40H76v65h150V0H24" id="al"/><path d="M136-208V0H84v-208H4v-40h212v40h-80" id="am"/><path d="M24 0v-248h52v208h133V0H24" id="an"/><g id="i"><use transform="matrix(0.05,0,0,0.05,0,0)" xlink:href="#al"/><use transform="matrix(0.05,0,0,0.05,12,0)" xlink:href="#am"/><use transform="matrix(0.05,0,0,0.05,22.950000000000003,0)" xlink:href="#an"/></g><path d="M24-248c93 1 206-16 204 79-1 75-69 88-152 82V0H24v-248zm52 121c47 0 100 7 100-41 0-47-54-39-100-39v80" id="ao"/><path d="M135-150c-39-12-60 13-60 57V0H25l-1-190h47c2 13-1 29 3 40 6-28 27-53 61-41v41" id="ap"/><path d="M110-194c64 0 96 36 96 99 0 64-35 99-97 99-61 0-95-36-95-99 0-62 34-99 96-99zm-1 164c35 0 45-28 45-65 0-40-10-65-43-65-34 0-45 26-45 65 0 36 10 65 43 65" id="aq"/><path d="M190-63c-7 42-38 67-86 67-59 0-84-38-90-98-12-110 154-137 174-36l-49 2c-2-19-15-32-35-32-30 0-35 28-38 64-6 74 65 87 74 30" id="ar"/><path d="M185-48c-13 30-37 53-82 52C43 2 14-33 14-96s30-98 90-98c62 0 83 45 84 108H66c0 31 8 55 39 56 18 0 30-7 34-22zm-45-69c5-46-57-63-70-21-2 6-4 13-4 21h74" id="as"/><path d="M137-138c1-29-70-34-71-4 15 46 118 7 119 86 1 83-164 76-172 9l43-7c4 19 20 25 44 25 33 8 57-30 24-41C81-84 22-81 20-136c-2-80 154-74 161-7" id="at"/><g id="j"><use transform="matrix(0.05,0,0,0.05,0,0)" xlink:href="#ao"/><use transform="matrix(0.05,0,0,0.05,12,0)" xlink:href="#ap"/><use transform="matrix(0.05,0,0,0.05,19,0)" xlink:href="#aq"/><use transform="matrix(0.05,0,0,0.05,29.950000000000003,0)" xlink:href="#ar"/><use transform="matrix(0.05,0,0,0.05,39.95,0)" xlink:href="#as"/><use transform="matrix(0.05,0,0,0.05,49.95,0)" xlink:href="#at"/><use transform="matrix(0.05,0,0,0.05,59.95,0)" xlink:href="#at"/></g><path d="M67-93c0 74 22 123 53 168H70C40 30 18-18 18-93s22-123 52-168h50c-32 44-53 94-53 168" id="au"/><path d="M231 0h-52l-39-155L100 0H48L-1-190h46L77-45c9-52 24-97 36-145h53l37 145 32-145h46" id="av"/><path d="M25-224v-37h50v37H25zM25 0v-190h50V0H25" id="aw"/><path d="M115-3C79 11 28 4 28-45v-112H4v-33h27l15-45h31v45h36v33H77v99c-1 23 16 31 38 25v30" id="ax"/><path d="M114-157C55-157 80-60 75 0H25v-261h50l-1 109c12-26 28-41 61-42 86-1 58 113 63 194h-50c-7-57 23-157-34-157" id="ay"/><g id="k"><use transform="matrix(0.05,0,0,0.05,0,0)" xlink:href="#au"/><use transform="matrix(0.05,0,0,0.05,5.95,0)" xlink:href="#av"/><use transform="matrix(0.05,0,0,0.05,19.95,0)" xlink:href="#aw"/><use transform="matrix(0.05,0,0,0.05,24.95,0)" xlink:href="#ax"/><use transform="matrix(0.05,0,0,0.05,30.899999999999995,0)" xlink:href="#ay"/></g><path d="M128 0H69L1-190h53L99-40l48-150h52" id="az"/><path d="M133-34C117-15 103 5 69 4 32 3 11-16 11-54c-1-60 55-63 116-61 1-26-3-47-28-47-18 1-26 9-28 27l-52-2c7-38 36-58 82-57s74 22 75 68l1 82c-1 14 12 18 25 15v27c-30 8-71 5-69-32zm-48 3c29 0 43-24 42-57-32 0-66-3-65 30 0 17 8 27 23 27" id="aA"/><path d="M25 0v-261h50V0H25" id="aB"/><path d="M88-194c31-1 46 15 58 34l-1-101h50l1 261h-48c-2-10 0-23-3-31C134-8 116 4 84 4 32 4 16-41 15-95c0-56 19-97 73-99zm17 164c33 0 40-30 41-66 1-37-9-64-41-64s-38 30-39 65c0 43 13 65 39 65" id="aC"/><path d="M135-194c87-1 58 113 63 194h-50c-7-57 23-157-34-157-59 0-34 97-39 157H25l-1-190h47c2 12-1 28 3 38 12-26 28-41 61-42" id="aD"/><path d="M76-54c-1 42 2 86-19 110H24C36 42 46 24 48 0H25v-54h51" id="aE"/><g id="l"><use transform="matrix(0.05,0,0,0.05,0,0)" xlink:href="#az"/><use transform="matrix(0.05,0,0,0.05,10,0)" xlink:href="#aA"/><use transform="matrix(0.05,0,0,0.05,20,0)" xlink:href="#aB"/><use transform="matrix(0.05,0,0,0.05,25,0)" xlink:href="#aw"/><use transform="matrix(0.05,0,0,0.05,30,0)" xlink:href="#aC"/><use transform="matrix(0.05,0,0,0.05,40.95,0)" xlink:href="#aA"/><use transform="matrix(0.05,0,0,0.05,50.95,0)" xlink:href="#ax"/><use transform="matrix(0.05,0,0,0.05,56.900000000000006,0)" xlink:href="#aw"/><use transform="matrix(0.05,0,0,0.05,61.900000000000006,0)" xlink:href="#aq"/><use transform="matrix(0.05,0,0,0.05,72.85000000000001,0)" xlink:href="#aD"/><use transform="matrix(0.05,0,0,0.05,83.80000000000001,0)" xlink:href="#aE"/></g><path d="M195-6C206 82 75 100 31 46c-4-6-6-13-8-21l49-6c3 16 16 24 34 25 40 0 42-37 40-79-11 22-30 35-61 35-53 0-70-43-70-97 0-56 18-96 73-97 30 0 46 14 59 34l2-30h47zm-90-29c32 0 41-27 41-63 0-35-9-62-40-62-32 0-39 29-40 63 0 36 9 62 39 62" id="aF"/><g id="m"><use transform="matrix(0.05,0,0,0.05,0,0)" xlink:href="#ar"/><use transform="matrix(0.05,0,0,0.05,10,0)" xlink:href="#aB"/><use transform="matrix(0.05,0,0,0.05,15,0)" xlink:href="#as"/><use transform="matrix(0.05,0,0,0.05,25,0)" xlink:href="#aA"/><use transform="matrix(0.05,0,0,0.05,35,0)" xlink:href="#aD"/><use transform="matrix(0.05,0,0,0.05,45.95,0)" xlink:href="#at"/><use transform="matrix(0.05,0,0,0.05,55.95,0)" xlink:href="#aw"/><use transform="matrix(0.05,0,0,0.05,60.95,0)" xlink:href="#aD"/><use transform="matrix(0.05,0,0,0.05,71.9,0)" xlink:href="#aF"/><use transform="matrix(0.05,0,0,0.05,82.85000000000001,0)" xlink:href="#aE"/></g><path d="M24 0v-54h51V0H24" id="aG"/><path d="M102-93c0 74-22 123-52 168H0C30 29 54-18 53-93c0-74-22-123-53-168h50c30 45 52 94 52 168" id="aH"/><g id="n"><use transform="matrix(0.05,0,0,0.05,0,0)" xlink:href="#as"/><use transform="matrix(0.05,0,0,0.05,10,0)" xlink:href="#ax"/><use transform="matrix(0.05,0,0,0.05,15.949999999999998,0)" xlink:href="#ar"/><use transform="matrix(0.05,0,0,0.05,25.950000000000003,0)" xlink:href="#aG"/><use transform="matrix(0.05,0,0,0.05,30.950000000000003,0)" xlink:href="#aG"/><use transform="matrix(0.05,0,0,0.05,35.95,0)" xlink:href="#aG"/><use transform="matrix(0.05,0,0,0.05,40.95,0)" xlink:href="#aH"/></g><path d="M24-248c120-7 223 5 221 122C244-46 201 0 124 0H24v-248zM76-40c74 7 117-18 117-86 0-67-45-88-117-82v168" id="aI"/><g id="o"><use transform="matrix(0.05,0,0,0.05,0,0)" xlink:href="#aI"/><use transform="matrix(0.05,0,0,0.05,12.950000000000001,0)" xlink:href="#aA"/><use transform="matrix(0.05,0,0,0.05,22.950000000000003,0)" xlink:href="#ax"/><use transform="matrix(0.05,0,0,0.05,28.900000000000002,0)" xlink:href="#aA"/></g><path d="M275 0h-61l-44-196L126 0H64L0-248h53L97-49l45-199h58l43 199 44-199h52" id="aJ"/><path d="M85 4C-2 5 27-109 22-190h50c7 57-23 150 33 157 60-5 35-97 40-157h50l1 190h-47c-2-12 1-28-3-38-12 25-28 42-61 42" id="aK"/><g id="p"><use transform="matrix(0.05,0,0,0.05,0,0)" xlink:href="#aJ"/><use transform="matrix(0.05,0,0,0.05,16.3,0)" xlink:href="#aA"/><use transform="matrix(0.05,0,0,0.05,26.3,0)" xlink:href="#ap"/><use transform="matrix(0.05,0,0,0.05,33.3,0)" xlink:href="#as"/><use transform="matrix(0.05,0,0,0.05,43.3,0)" xlink:href="#ay"/><use transform="matrix(0.05,0,0,0.05,54.25,0)" xlink:href="#aq"/><use transform="matrix(0.05,0,0,0.05,65.2,0)" xlink:href="#aK"/><use transform="matrix(0.05,0,0,0.05,76.15,0)" xlink:href="#at"/><use transform="matrix(0.05,0,0,0.05,86.15,0)" xlink:href="#as"/></g><path d="M230 0l2-204L168 0h-37L68-204 70 0H24v-248h70l56 185 57-185h69V0h-46" id="aL"/><g id="q"><use transform="matrix(0.05,0,0,0.05,0,0)" xlink:href="#aL"/><use transform="matrix(0.05,0,0,0.05,14.950000000000001,0)" xlink:href="#as"/><use transform="matrix(0.05,0,0,0.05,24.950000000000003,0)" xlink:href="#at"/><use transform="matrix(0.05,0,0,0.05,34.95,0)" xlink:href="#at"/><use transform="matrix(0.05,0,0,0.05,44.95,0)" xlink:href="#aA"/><use transform="matrix(0.05,0,0,0.05,54.95,0)" xlink:href="#aF"/><use transform="matrix(0.05,0,0,0.05,65.9,0)" xlink:href="#as"/></g><path d="M169-182c-1-43-94-46-97-3 18 66 151 10 154 114 3 95-165 93-204 36-6-8-10-19-12-30l50-8c3 46 112 56 116 5-17-69-150-10-154-114-4-87 153-88 188-35 5 8 8 18 10 28" id="aM"/><g id="s"><use transform="matrix(0.05,0,0,0.05,0,0)" xlink:href="#aM"/><use transform="matrix(0.05,0,0,0.05,12,0)" xlink:href="#aq"/><use transform="matrix(0.05,0,0,0.05,22.950000000000003,0)" xlink:href="#aK"/><use transform="matrix(0.05,0,0,0.05,33.900000000000006,0)" xlink:href="#ap"/><use transform="matrix(0.05,0,0,0.05,40.900000000000006,0)" xlink:href="#ar"/><use transform="matrix(0.05,0,0,0.05,50.900000000000006,0)" xlink:href="#as"/><use transform="matrix(0.05,0,0,0.05,60.900000000000006,0)" xlink:href="#at"/></g><path d="M199 0l-22-63H83L61 0H9l90-248h61L250 0h-51zm-33-102l-36-108c-10 38-24 72-36 108h72" id="aN"/><path d="M135-194c53 0 70 44 70 98 0 56-19 98-73 100-31 1-45-17-59-34 3 33 2 69 2 105H25l-1-265h48c2 10 0 23 3 31 11-24 29-35 60-35zM114-30c33 0 39-31 40-66 0-38-9-64-40-64-56 0-55 130 0 130" id="aO"/><g id="t"><use transform="matrix(0.05,0,0,0.05,0,0)" xlink:href="#aN"/><use transform="matrix(0.05,0,0,0.05,12.950000000000001,0)" xlink:href="#aO"/><use transform="matrix(0.05,0,0,0.05,23.900000000000002,0)" xlink:href="#aO"/><use transform="matrix(0.05,0,0,0.05,34.85,0)" xlink:href="#aB"/><use transform="matrix(0.05,0,0,0.05,39.85,0)" xlink:href="#aw"/><use transform="matrix(0.05,0,0,0.05,44.85,0)" xlink:href="#ar"/><use transform="matrix(0.05,0,0,0.05,54.85,0)" xlink:href="#aA"/><use transform="matrix(0.05,0,0,0.05,64.85,0)" xlink:href="#ax"/><use transform="matrix(0.05,0,0,0.05,70.8,0)" xlink:href="#aw"/><use transform="matrix(0.05,0,0,0.05,75.8,0)" xlink:href="#aq"/><use transform="matrix(0.05,0,0,0.05,86.75,0)" xlink:href="#aD"/><use transform="matrix(0.05,0,0,0.05,97.7,0)" xlink:href="#at"/></g><g id="u"><use transform="matrix(0.05,0,0,0.05,0,0)" xlink:href="#aA"/><use transform="matrix(0.05,0,0,0.05,10,0)" xlink:href="#aD"/><use transform="matrix(0.05,0,0,0.05,20.950000000000003,0)" xlink:href="#aC"/></g><path d="M140-251c80 0 125 45 125 126S219 4 139 4C58 4 15-44 15-125s44-126 125-126zm-1 214c52 0 73-35 73-88 0-50-21-86-72-86-52 0-73 35-73 86s22 88 72 88" id="aP"/><g id="v"><use transform="matrix(0.05,0,0,0.05,0,0)" xlink:href="#aP"/><use transform="matrix(0.05,0,0,0.05,14,0)" xlink:href="#ax"/><use transform="matrix(0.05,0,0,0.05,19.95,0)" xlink:href="#ay"/><use transform="matrix(0.05,0,0,0.05,30.899999999999995,0)" xlink:href="#as"/><use transform="matrix(0.05,0,0,0.05,40.9,0)" xlink:href="#ap"/></g><path d="M182-130c37 4 62 22 62 59C244 23 116-4 24 0v-248c84 5 203-23 205 63 0 31-19 50-47 55zM76-148c40-3 101 13 101-30 0-44-60-28-101-31v61zm0 110c48-3 116 14 116-37 0-48-69-32-116-35v72" id="aQ"/><path d="M62-158H24l-5-90h48" id="aR"/><g id="w"><use transform="matrix(0.05,0,0,0.05,0,0)" xlink:href="#aI"/><use transform="matrix(0.05,0,0,0.05,12.950000000000001,0)" xlink:href="#aQ"/><use transform="matrix(0.05,0,0,0.05,25.900000000000002,0)" xlink:href="#aR"/><use transform="matrix(0.05,0,0,0.05,30.150000000000002,0)" xlink:href="#at"/></g><path d="M24 0v-248h52V0H24" id="aS"/><g id="x"><use transform="matrix(0.05,0,0,0.05,0,0)" xlink:href="#aN"/><use transform="matrix(0.05,0,0,0.05,12.950000000000001,0)" xlink:href="#ao"/><use transform="matrix(0.05,0,0,0.05,24.950000000000003,0)" xlink:href="#aS"/><use transform="matrix(0.05,0,0,0.05,29.950000000000003,0)" xlink:href="#aR"/><use transform="matrix(0.05,0,0,0.05,34.2,0)" xlink:href="#at"/></g><g id="y"><use transform="matrix(0.05,0,0,0.05,0,0)" xlink:href="#aA"/><use transform="matrix(0.05,0,0,0.05,10,0)" xlink:href="#aD"/><use transform="matrix(0.05,0,0,0.05,20.950000000000003,0)" xlink:href="#aC"/></g><path d="M67-125c0 53 21 87 73 88 37 1 54-22 65-47l45 17C233-25 199 4 140 4 58 4 20-42 15-125 8-235 124-281 211-232c18 10 29 29 36 50l-46 12c-8-25-30-41-62-41-52 0-71 34-72 86" id="aT"/><g id="z"><use transform="matrix(0.05,0,0,0.05,0,0)" xlink:href="#aT"/><use transform="matrix(0.05,0,0,0.05,12.950000000000001,0)" xlink:href="#aB"/><use transform="matrix(0.05,0,0,0.05,17.950000000000003,0)" xlink:href="#aq"/><use transform="matrix(0.05,0,0,0.05,28.900000000000006,0)" xlink:href="#aK"/><use transform="matrix(0.05,0,0,0.05,39.85000000000001,0)" xlink:href="#aC"/></g><g id="A"><use transform="matrix(0.05,0,0,0.05,0,0)" xlink:href="#aM"/><use transform="matrix(0.05,0,0,0.05,12,0)" xlink:href="#aq"/><use transform="matrix(0.05,0,0,0.05,22.950000000000003,0)" xlink:href="#aK"/><use transform="matrix(0.05,0,0,0.05,33.900000000000006,0)" xlink:href="#ap"/><use transform="matrix(0.05,0,0,0.05,40.900000000000006,0)" xlink:href="#ar"/><use transform="matrix(0.05,0,0,0.05,50.900000000000006,0)" xlink:href="#as"/><use transform="matrix(0.05,0,0,0.05,60.900000000000006,0)" xlink:href="#at"/></g><path d="M144 0l-44-69L55 0H2l70-98-66-92h53l41 62 40-62h54l-67 91 71 99h-54" id="aU"/><g id="B"><use transform="matrix(0.05,0,0,0.05,0,0)" xlink:href="#am"/><use transform="matrix(0.05,0,0,0.05,9.600000000000001,0)" xlink:href="#as"/><use transform="matrix(0.05,0,0,0.05,19.6,0)" xlink:href="#aU"/><use transform="matrix(0.05,0,0,0.05,29.6,0)" xlink:href="#ax"/><use transform="matrix(0.05,0,0,0.05,35.550000000000004,0)" xlink:href="#aE"/></g><path d="M182 0l-62-99L58 0H3l86-130-79-118h55l55 88 55-88h55l-75 118L237 0h-55" id="aV"/><g id="C"><use transform="matrix(0.05,0,0,0.05,0,0)" xlink:href="#aV"/><use transform="matrix(0.05,0,0,0.05,12,0)" xlink:href="#aL"/><use transform="matrix(0.05,0,0,0.05,26.950000000000003,0)" xlink:href="#an"/></g><g id="D"><use transform="matrix(0.05,0,0,0.05,0,0)" xlink:href="#aq"/><use transform="matrix(0.05,0,0,0.05,10.950000000000001,0)" xlink:href="#ap"/></g><path d="M220-157c-53 9-28 100-34 157h-49v-107c1-27-5-49-29-50C55-147 81-57 75 0H25l-1-190h47c2 12-1 28 3 38 10-53 101-56 108 0 13-22 24-43 59-42 82 1 51 116 57 194h-49v-107c-1-25-5-48-29-50" id="aW"/><g id="E"><use transform="matrix(0.05,0,0,0.05,0,0)" xlink:href="#aI"/><use transform="matrix(0.05,0,0,0.05,12.950000000000001,0)" xlink:href="#aq"/><use transform="matrix(0.05,0,0,0.05,23.900000000000002,0)" xlink:href="#ar"/><use transform="matrix(0.05,0,0,0.05,33.900000000000006,0)" xlink:href="#aK"/><use transform="matrix(0.05,0,0,0.05,44.85000000000001,0)" xlink:href="#aW"/><use transform="matrix(0.05,0,0,0.05,60.85,0)" xlink:href="#as"/><use transform="matrix(0.05,0,0,0.05,70.85000000000001,0)" xlink:href="#aD"/><use transform="matrix(0.05,0,0,0.05,81.80000000000001,0)" xlink:href="#ax"/><use transform="matrix(0.05,0,0,0.05,87.75000000000001,0)" xlink:href="#at"/></g><g id="F"><use transform="matrix(0.05,0,0,0.05,0,0)" xlink:href="#aP"/><use transform="matrix(0.05,0,0,0.05,14,0)" xlink:href="#an"/><use transform="matrix(0.05,0,0,0.05,24.950000000000003,0)" xlink:href="#aN"/><use transform="matrix(0.05,0,0,0.05,37.900000000000006,0)" xlink:href="#ao"/></g><g id="G"><use transform="matrix(0.05,0,0,0.05,0,0)" xlink:href="#aI"/><use transform="matrix(0.05,0,0,0.05,12.950000000000001,0)" xlink:href="#aA"/><use transform="matrix(0.05,0,0,0.05,22.950000000000003,0)" xlink:href="#ax"/><use transform="matrix(0.05,0,0,0.05,28.900000000000002,0)" xlink:href="#aA"/></g><path d="M135-194c52 0 70 43 70 98 0 56-19 99-73 100-30 1-46-15-58-35L72 0H24l1-261h50v104c11-23 29-37 60-37zM114-30c31 0 40-27 40-66 0-37-7-63-39-63s-41 28-41 65c0 36 8 64 40 64" id="aX"/><g id="H"><use transform="matrix(0.05,0,0,0.05,0,0)" xlink:href="#aT"/><use transform="matrix(0.05,0,0,0.05,12.950000000000001,0)" xlink:href="#aK"/><use transform="matrix(0.05,0,0,0.05,23.900000000000002,0)" xlink:href="#aX"/><use transform="matrix(0.05,0,0,0.05,34.85,0)" xlink:href="#as"/><use transform="matrix(0.05,0,0,0.05,44.85,0)" xlink:href="#at"/></g><path d="M240-174c0 40-23 61-54 70L253 0h-59l-57-94H76V0H24v-248c93 4 217-23 216 74zM76-134c48-2 112 12 112-38 0-48-66-32-112-35v73" id="aY"/><g id="I"><use transform="matrix(0.05,0,0,0.05,0,0)" xlink:href="#aY"/><use transform="matrix(0.05,0,0,0.05,12.950000000000001,0)" xlink:href="#as"/><use transform="matrix(0.05,0,0,0.05,22.950000000000003,0)" xlink:href="#aO"/><use transform="matrix(0.05,0,0,0.05,33.900000000000006,0)" xlink:href="#aq"/><use transform="matrix(0.05,0,0,0.05,44.85000000000001,0)" xlink:href="#ap"/><use transform="matrix(0.05,0,0,0.05,51.85,0)" xlink:href="#ax"/><use transform="matrix(0.05,0,0,0.05,57.80000000000001,0)" xlink:href="#at"/></g><g id="J"><use transform="matrix(0.05,0,0,0.05,0,0)" xlink:href="#aI"/><use transform="matrix(0.05,0,0,0.05,12.950000000000001,0)" xlink:href="#aA"/><use transform="matrix(0.05,0,0,0.05,22.950000000000003,0)" xlink:href="#at"/><use transform="matrix(0.05,0,0,0.05,32.95,0)" xlink:href="#ay"/><use transform="matrix(0.05,0,0,0.05,43.900000000000006,0)" xlink:href="#aX"/><use transform="matrix(0.05,0,0,0.05,54.85,0)" xlink:href="#aq"/><use transform="matrix(0.05,0,0,0.05,65.80000000000001,0)" xlink:href="#aA"/><use transform="matrix(0.05,0,0,0.05,75.80000000000001,0)" xlink:href="#ap"/><use transform="matrix(0.05,0,0,0.05,82.80000000000001,0)" xlink:href="#aC"/><use transform="matrix(0.05,0,0,0.05,93.75000000000001,0)" xlink:href="#at"/></g><path fill="#9c0202" d="M136-208V0H84v-208H4v-40h212v40h-80" id="aZ"/><path fill="#9c0202" d="M114-157C55-157 80-60 75 0H25v-261h50l-1 109c12-26 28-41 61-42 86-1 58 113 63 194h-50c-7-57 23-157-34-157" id="ba"/><path fill="#9c0202" d="M185-48c-13 30-37 53-82 52C43 2 14-33 14-96s30-98 90-98c62 0 83 45 84 108H66c0 31 8 55 39 56 18 0 30-7 34-22zm-45-69c5-46-57-63-70-21-2 6-4 13-4 21h74" id="bb"/><g id="K"><use transform="matrix(0.07407407407407408,0,0,0.07407407407407408,0,0)" xlink:href="#aZ"/><use transform="matrix(0.07407407407407408,0,0,0.07407407407407408,16.222222222222225,0)" xlink:href="#ba"/><use transform="matrix(0.07407407407407408,0,0,0.07407407407407408,32.44444444444445,0)" xlink:href="#bb"/></g><path fill="#9c0202" d="M135-150c-39-12-60 13-60 57V0H25l-1-190h47c2 13-1 29 3 40 6-28 27-53 61-41v41" id="bc"/><path fill="#9c0202" d="M133-34C117-15 103 5 69 4 32 3 11-16 11-54c-1-60 55-63 116-61 1-26-3-47-28-47-18 1-26 9-28 27l-52-2c7-38 36-58 82-57s74 22 75 68l1 82c-1 14 12 18 25 15v27c-30 8-71 5-69-32zm-48 3c29 0 43-24 42-57-32 0-66-3-65 30 0 17 8 27 23 27" id="bd"/><path fill="#9c0202" d="M88-194c31-1 46 15 58 34l-1-101h50l1 261h-48c-2-10 0-23-3-31C134-8 116 4 84 4 32 4 16-41 15-95c0-56 19-97 73-99zm17 164c33 0 40-30 41-66 1-37-9-64-41-64s-38 30-39 65c0 43 13 65 39 65" id="be"/><path fill="#9c0202" d="M25-224v-37h50v37H25zM25 0v-190h50V0H25" id="bf"/><path fill="#9c0202" d="M115-3C79 11 28 4 28-45v-112H4v-33h27l15-45h31v45h36v33H77v99c-1 23 16 31 38 25v30" id="bg"/><path fill="#9c0202" d="M110-194c64 0 96 36 96 99 0 64-35 99-97 99-61 0-95-36-95-99 0-62 34-99 96-99zm-1 164c35 0 45-28 45-65 0-40-10-65-43-65-34 0-45 26-45 65 0 36 10 65 43 65" id="bh"/><path fill="#9c0202" d="M135-194c87-1 58 113 63 194h-50c-7-57 23-157-34-157-59 0-34 97-39 157H25l-1-190h47c2 12-1 28 3 38 12-26 28-41 61-42" id="bi"/><path fill="#9c0202" d="M25 0v-261h50V0H25" id="bj"/><g id="L"><use transform="matrix(0.07407407407407408,0,0,0.07407407407407408,0,0)" xlink:href="#aZ"/><use transform="matrix(0.07407407407407408,0,0,0.07407407407407408,14.740740740740744,0)" xlink:href="#bc"/><use transform="matrix(0.07407407407407408,0,0,0.07407407407407408,25.111111111111114,0)" xlink:href="#bd"/><use transform="matrix(0.07407407407407408,0,0,0.07407407407407408,39.92592592592593,0)" xlink:href="#be"/><use transform="matrix(0.07407407407407408,0,0,0.07407407407407408,56.14814814814815,0)" xlink:href="#bf"/><use transform="matrix(0.07407407407407408,0,0,0.07407407407407408,63.55555555555556,0)" xlink:href="#bg"/><use transform="matrix(0.07407407407407408,0,0,0.07407407407407408,72.37037037037038,0)" xlink:href="#bf"/><use transform="matrix(0.07407407407407408,0,0,0.07407407407407408,79.77777777777779,0)" xlink:href="#bh"/><use transform="matrix(0.07407407407407408,0,0,0.07407407407407408,96.00000000000001,0)" xlink:href="#bi"/><use transform="matrix(0.07407407407407408,0,0,0.07407407407407408,112.22222222222224,0)" xlink:href="#bd"/><use transform="matrix(0.07407407407407408,0,0,0.07407407407407408,127.03703703703707,0)" xlink:href="#bj"/></g><path fill="#9c0202" d="M24-248c120-7 223 5 221 122C244-46 201 0 124 0H24v-248zM76-40c74 7 117-18 117-86 0-67-45-88-117-82v168" id="bk"/><g id="M"><use transform="matrix(0.07407407407407408,0,0,0.07407407407407408,0,0)" xlink:href="#bk"/><use transform="matrix(0.07407407407407408,0,0,0.07407407407407408,19.185185185185187,0)" xlink:href="#bd"/><use transform="matrix(0.07407407407407408,0,0,0.07407407407407408,34,0)" xlink:href="#bg"/><use transform="matrix(0.07407407407407408,0,0,0.07407407407407408,42.814814814814824,0)" xlink:href="#bd"/></g><path fill="#9c0202" d="M275 0h-61l-44-196L126 0H64L0-248h53L97-49l45-199h58l43 199 44-199h52" id="bl"/><path fill="#9c0202" d="M85 4C-2 5 27-109 22-190h50c7 57-23 150 33 157 60-5 35-97 40-157h50l1 190h-47c-2-12 1-28-3-38-12 25-28 42-61 42" id="bm"/><path fill="#9c0202" d="M137-138c1-29-70-34-71-4 15 46 118 7 119 86 1 83-164 76-172 9l43-7c4 19 20 25 44 25 33 8 57-30 24-41C81-84 22-81 20-136c-2-80 154-74 161-7" id="bn"/><g id="N"><use transform="matrix(0.07407407407407408,0,0,0.07407407407407408,0,0)" xlink:href="#bl"/><use transform="matrix(0.07407407407407408,0,0,0.07407407407407408,24.148148148148152,0)" xlink:href="#bd"/><use transform="matrix(0.07407407407407408,0,0,0.07407407407407408,38.96296296296297,0)" xlink:href="#bc"/><use transform="matrix(0.07407407407407408,0,0,0.07407407407407408,49.33333333333334,0)" xlink:href="#bb"/><use transform="matrix(0.07407407407407408,0,0,0.07407407407407408,64.14814814814815,0)" xlink:href="#ba"/><use transform="matrix(0.07407407407407408,0,0,0.07407407407407408,80.37037037037038,0)" xlink:href="#bh"/><use transform="matrix(0.07407407407407408,0,0,0.07407407407407408,96.59259259259261,0)" xlink:href="#bm"/><use transform="matrix(0.07407407407407408,0,0,0.07407407407407408,112.81481481481482,0)" xlink:href="#bn"/><use transform="matrix(0.07407407407407408,0,0,0.07407407407407408,127.62962962962965,0)" xlink:href="#bb"/></g><path fill="#9c0202" d="M76-208v77h127v40H76V0H24v-248h183v40H76" id="bo"/><path fill="#9c0202" d="M231 0h-52l-39-155L100 0H48L-1-190h46L77-45c9-52 24-97 36-145h53l37 145 32-145h46" id="bp"/><g id="O"><use transform="matrix(0.07407407407407408,0,0,0.07407407407407408,0,0)" xlink:href="#bo"/><use transform="matrix(0.07407407407407408,0,0,0.07407407407407408,16.222222222222225,0)" xlink:href="#bj"/><use transform="matrix(0.07407407407407408,0,0,0.07407407407407408,23.629629629629633,0)" xlink:href="#bh"/><use transform="matrix(0.07407407407407408,0,0,0.07407407407407408,39.85185185185187,0)" xlink:href="#bp"/></g></defs></g></svg>