<svg xmlns="http://www.w3.org/2000/svg" xmlns:xlink="http://www.w3.org/1999/xlink" xmlns:lucid="lucid" width="901.25" height="780"><g transform="translate(-239.99999999997414 20)" lucid:page-tab-id="0_0"><path d="M1004.26 277.8c-2.22 0-4.15 1.62-4.15 3.86 0 2.07 1.85 3.96 4.16 3.96 2.3 0 4.24-1.72 4.24-3.96s-1.85-3.87-4.24-3.87zm0 5.07c-.65 0-1.4-.52-1.4-1.3 0-.68.57-1.37 1.4-1.37.73 0 1.47.6 1.47 1.38 0 .77-.55 1.3-1.47 1.3z" stroke="#000" stroke-opacity="0" stroke-width="1.76" fill="#9c0202"/><path d="M1049.24 291.82l-1.66-2.32c1.66-.78 2.95-2.5 2.95-4.3v-55.73c0-2.76-2.4-4.82-5.16-4.82H963.5c-2.75 0-5.15 2.24-5.15 4.82v55.64c0 2.68 2.4 4.83 5.16 4.83h24.16v8.18h-6.54c-.83 0-1.38.53-1.38 1.3v10.08c0 .78.55 1.3 1.38 1.3h46.55c.83 0 1.38-.52 1.38-1.3v-9.9c0-.78-.55-1.3-1.38-1.3h-6.64v-8.26h9.13l7 9.64c2.22 3.2 6.83 3.96 10.14 1.8 3.4-2.14 4.24-6.45 1.94-9.64zm-23.05 16.37h-43.7v-7.33H1026.1v7.32zm-35.77-9.92v-8.26h27.65v8.26h-27.65zm55.5-11.02l-6.2-8.44c-.08-.26-.54-.52-.8-.52-.38 0-.66 0-1.12.26l-.82.52-1.84-2.33h12.44v8.36c0 1.04-.64 1.9-1.66 2.16zm-14.67-4.56l-4.8-6.55.3-.1c2.1-1.02 1.74-1.2 3.12-2.05l1.48 2.06 3.22 4.4c-1.93 1.37-1.2.94-3.32 2.24zm-27.28-13.53c-4.33-5.94-3.6-13.7 1.47-18.86l6.36 5.95c-.63.87-1.1 2.07-1.1 3.28 0 3.18 2.77 5.85 6.18 5.85 3.5 0 6.18-2.67 6.18-5.85 0-1.38-.65-2.67-1.47-3.53l6.44-6.72c7.28 6.3 6.82 16.97-.37 22.74l-2.86 1.8c-7 3.8-16.03 1.73-20.82-4.65zm-8.48-27.13c0-1.9 1.57-3.27 3.32-3.27 1.84 0 3.4 1.38 3.4 3.27 0 1.8-1.56 3.2-3.4 3.2-1.75 0-3.32-1.4-3.32-3.2zm21.48 14.3c1.84 0 3.4 1.47 3.4 3.27 0 1.82-1.56 3.3-3.4 3.3-1.76 0-3.32-1.48-3.32-3.3 0-1.8 1.56-3.26 3.32-3.26zm2.67-2.07c-1.94-.94-3.87-.77-5.72.1l-6.54-5.87c5.52-4.04 13-4.3 18.7-.77l-6.45 6.54zm-56.14-27.04h81.6c1.37 0 2.4 1.03 2.4 2.24v44.6h-14.3l-1.38-1.88c6.54-7.07 6.27-18.1-1.57-24.82l5.07-5.25c.83.43 1.66.7 2.67.7 3.5 0 6.08-2.68 6.08-5.95 0-3.2-2.58-5.7-6.1-5.7-3.5 0-6.16 2.6-6.16 5.87 0 1.3.55 2.58 1.38 3.53l-4.98 5.17c-6.73-4.3-15.85-4.14-22.67.94l-1.57-1.3c.74-.94 1.2-2.06 1.2-3.27 0-3.27-2.86-5.86-6.18-5.86-3.5 0-6.18 2.6-6.18 5.86 0 1.2.47 2.24 1.02 3.1l-13 11.1c-1-.5-2.12-.85-3.23-.85-3.5 0-6.16 2.58-6.16 5.86 0 3.27 2.86 5.85 6.17 5.85 3.52 0 6.2-2.6 6.2-5.86 0-1.2-.47-2.24-1.02-3.2l13-11c1.84 1.02 4.23 1.1 6.26.07l1.57 1.48c-5.9 5.94-6.72 15.15-1.65 22.13.92 1.4 2.03 2.5 3.5 3.54H961.1v-44.87c0-1.2 1.12-2.24 2.4-2.24zm71.08 9.82c0-1.8 1.57-3.27 3.4-3.27 1.76 0 3.33 1.46 3.33 3.27 0 1.8-1.56 3.27-3.3 3.27-1.85-.17-3.42-1.55-3.42-3.27zm-53.74 24.1c0 1.82-1.57 3.3-3.32 3.3-1.84 0-3.4-1.48-3.4-3.3 0-1.8 1.56-3.26 3.4-3.26 1.75 0 3.32 1.46 3.32 3.26zm-17.33 26.28c-1.37 0-2.4-1.03-2.4-2.24v-8.36h48.5c4.6 1.98 9.68 2.07 14.1.52l5.08 6.9-.83.5c-.74.43-.93 1.2-.47 1.9l.56.77H963.5zm82.24 11.9c-2.03 1.28-4.9.76-6.27-1.05l-8.76-11.88c1.58-.95 6-3.96 7.57-4.82l8.67 11.8c1.38 1.9.92 4.65-1.2 5.94z" stroke="#000" stroke-opacity="0" stroke-width="1.76" fill="#9c0202"/><path d="M956.95 326.64h88.6v5h-88.6z" fill="none"/><use xlink:href="#a" transform="matrix(1,0,0,1,956.9523088759531,326.6401330402868) translate(0 6.777056525735294)"/><use xlink:href="#b" transform="matrix(1,0,0,1,956.9523088759531,326.6401330402868) translate(35.30704273897059 6.777056525735294)"/><use xlink:href="#c" transform="matrix(1,0,0,1,956.9523088759531,326.6401330402868) translate(48.055491727941174 6.777056525735294)"/><use xlink:href="#d" transform="matrix(1,0,0,1,956.9523088759531,326.6401330402868) translate(0 14.0625)"/><path d="M956.95 333.16H1031v5.02h-74.05z" fill="none"/><use xlink:href="#e" transform="matrix(1,0,0,1,956.9523088759261,333.1648118772824) translate(0 6.777056525735294)"/><use xlink:href="#f" transform="matrix(1,0,0,1,956.9523088759261,333.1648118772824) translate(22.058823529411768 6.777056525735294)"/><use xlink:href="#g" transform="matrix(1,0,0,1,956.9523088759261,333.1648118772824) translate(37.745576746323536 6.777056525735294)"/><use xlink:href="#h" transform="matrix(1,0,0,1,956.9523088759261,333.1648118772824) translate(0 14.0625)"/><path d="M995.86 122.15c-.47-.08-.93-.17-1.3-.25-.83-.1-1.57.34-1.76 1.1-.18.7.37 1.37 1.1 1.54l1.5.26h.27c.74.1 1.48-.5 1.58-1.2 0-.76-.56-1.45-1.4-1.45zM989.84 120.8c-.47-.18-.93-.27-1.4-.44-.73-.26-1.47.08-1.75.77-.3.68.08 1.45.82 1.7l1.4.52c.73.17 1.47-.17 1.75-.86.28-.7-.1-1.46-.83-1.7zM962.88 64.5c.74.35 1.58.1 1.95-.5.28-.43.46-.77.74-1.2.37-.6.18-1.45-.56-1.8-.64-.33-1.56-.16-1.93.52-.28.43-.56.77-.74 1.2-.37.68-.1 1.45.55 1.8zM966.22 59.4c.65.4 1.57.24 2.04-.36l.83-1.02c.45-.6.36-1.45-.3-1.88-.64-.43-1.56-.34-2.03.26-.27.34-.55.68-.92 1.1-.47.6-.28 1.37.37 1.9zM971.3 55.03c.38 0 .75-.17 1.03-.43l.93-.85.1-.1c.55-.58.55-1.35 0-1.87-.57-.5-1.5-.5-2.05 0-.36.35-.73.6-1.1.94-.28.26-.37.6-.37.94 0 .77.65 1.37 1.48 1.37zM976.13 51.02c.37 0 .65-.1.92-.26.38-.26.75-.5 1.12-.77.55-.44.74-1.12.27-1.72-.37-.6-1.3-.85-1.94-.42-.37.25-.83.5-1.2.77-.38.25-.56.68-.56 1.1 0 .7.65 1.3 1.4 1.3zM981.6 47.77c.27 0 .46 0 .73-.17.37-.17.84-.43 1.2-.6.75-.34 1.03-1.1.66-1.8-.38-.67-1.3-.93-1.96-.6-.46.27-.92.44-1.4.7-.45.25-.73.68-.73 1.2 0 .76.75 1.27 1.5 1.27zM1024.57 47.77c.37.17.74.43 1.2.68.65.35 1.5.18 1.86-.42.46-.7.28-1.45-.37-1.88-.47-.26-.84-.43-1.3-.68-.74-.35-1.57-.18-2.04.5-.37.7-.1 1.46.56 1.8zM1029.76 50.93c.37.34.74.6 1.1.85.66.43 1.5.35 2.05-.17.47-.58.38-1.44-.18-1.86-.37-.35-.83-.6-1.2-.86-.65-.5-1.48-.34-2.04.26-.46.5-.37 1.36.28 1.8zM1035.4 55.8c.56.5 1.5.6 2.05.08.64-.5.64-1.36.18-1.87-.37-.34-.74-.68-1.02-1.02-.08 0-.08-.08-.08-.08-.65-.52-1.57-.52-2.13.08-.47.5-.47 1.37.08 1.88.28.34.65.6.93.94zM1018.83 45.3c.46.17.83.34 1.3.5.64.1 1.3-.08 1.66-.68.36-.6.18-1.45-.56-1.8l-1.4-.5c-.64-.17-1.3.08-1.57.68-.37.6-.18 1.45.56 1.8zM993.73 43.6h.27l1.4-.27c.83-.17 1.3-.85 1.2-1.62-.2-.68-.93-1.2-1.67-1.02l-1.48.26c-.83.08-1.4.77-1.3 1.45.1.76.84 1.27 1.58 1.2zM1000.2 42.73h.1c.47 0 .93-.08 1.4-.08.73 0 1.38-.6 1.38-1.37-.1-.77-.74-1.28-1.48-1.28-.56 0-1.02 0-1.48.1-.84 0-1.48.58-1.48 1.35.1.77.74 1.28 1.57 1.28zM1012.8 43.6c.47.07.93.16 1.4.33h.28c.64 0 1.2-.34 1.38-.94.2-.7-.18-1.46-1-1.63-.48-.17-.94-.26-1.4-.35-.84-.17-1.58.26-1.76 1.03-.2.68.37 1.37 1.1 1.54zM1006.6 42.73c.47.1.93.1 1.4.17h.08c.84 0 1.5-.6 1.58-1.28 0-.77-.56-1.36-1.4-1.45-.45 0-.92-.08-1.47-.08-.85-.1-1.5.5-1.6 1.18 0 .77.57 1.37 1.4 1.45zM987.52 45.3c.2 0 .28-.1.46-.1.47-.16.93-.33 1.3-.42.83-.25 1.2-1.02.93-1.7-.27-.7-1-1.12-1.85-.86-.46.17-.92.26-1.38.43-.56.25-.93.68-.93 1.28 0 .77.65 1.36 1.48 1.36zM1031.24 113.36c-.37.25-.74.5-1.1.77-.66.42-.75 1.28-.2 1.87.47.6 1.4.7 1.95.26.45-.34.82-.6 1.2-.94.64-.43.64-1.28.18-1.88-.56-.5-1.48-.6-2.04-.08zM1041.6 104.3c-.73-.42-1.56-.25-2.02.35-.28.34-.56.68-.84 1.1-.46.7-.28 1.46.37 1.88.75.43 1.6.26 2.05-.34.28-.43.56-.78.83-1.2.47-.6.28-1.45-.37-1.8zM1035.78 109.26c-.37.34-.65.68-1.02.94-.56.6-.46 1.45.1 1.88.55.5 1.47.5 2.03 0 .36-.35.64-.7 1-1.03.56-.6.47-1.37-.08-1.88-.65-.5-1.58-.42-2.04.1zM1044.58 98.92c-.74-.25-1.67 0-1.95.7-.18.4-.37.76-.65 1.18-.37.6 0 1.45.65 1.8.74.25 1.58 0 1.95-.6.28-.43.46-.86.65-1.28.37-.7.1-1.45-.65-1.8zM1046.7 93.3c-.83-.27-1.57.16-1.84.84-.1.43-.28.86-.37 1.28 0 0-.1 0-.1.1-.2.67.27 1.44 1 1.6.75.27 1.6-.16 1.77-.84.2-.52.37-.94.46-1.37.28-.67-.18-1.44-.92-1.6zM1026.15 116.7c-.37.24-.84.5-1.2.67l-.1.1c-.65.4-.93 1.18-.46 1.78.45.68 1.28.85 2.02.43.37-.17.84-.43 1.2-.7.75-.4.93-1.18.47-1.87-.38-.58-1.3-.75-1.95-.4zM1008.45 122.5c-.46 0-.92.08-1.38.08-.84 0-1.4.68-1.4 1.37 0 .76.75 1.36 1.5 1.28h.17c.47 0 .93-.1 1.48-.1.75-.07 1.3-.76 1.2-1.53-.08-.68-.73-1.28-1.57-1.2zM1020.6 119.42c-.47.17-.85.34-1.3.5-.75.27-1.12 1.04-.84 1.72.28.68 1.1 1.02 1.85.77.57-.16 1.03-.33 1.4-.5.74-.35 1.1-1.1.74-1.8-.28-.68-1.1-.94-1.85-.68zM1014.66 121.38c-.46.1-.93.17-1.4.26-.64.17-1.1.68-1.1 1.37 0 .7.65 1.3 1.48 1.3h.28c.46-.1 1.02-.27 1.48-.35.65-.26 1.1-.86.93-1.54-.1-.67-.84-1.2-1.67-1.02zM1002.16 122.75c-.47 0-.93 0-1.4-.1-.83 0-1.48.53-1.57 1.3 0 .68.64 1.36 1.38 1.36.46.1 1.02.1 1.48.1h.1c.74 0 1.4-.6 1.4-1.37 0-.68-.66-1.28-1.4-1.28zM1030.3 92.6c.1.1.2.1.38.1h.37c6.95 0 12.05-2.06 15.1-6 6.67-8.53 1.58-22.8 1.4-23.4-1.03-2.8-2.97-3.15-4.08-3.15-1.4 0-2.5.43-3.52 1.2-.2.17-.28.26-.37.43-.65 1.02-1.58 1.8-2.7 2.3-.82-6.83-7.03-9.3-11.57-11.1-2.03-.77-3.97-1.54-5.08-2.48-.2-.17-.28-.25-.47-.34-1.85-.6-3.6-.85-5.65-.85-3.05.1-5.65.52-8.52 1.55-2.3.76-4.17 1.7-6.2 2.9-.74.43-1.3.85-1.95 1.45-.83.6-2.04 1.62-2.68 1.7-4.64 1.03-8.43 4.53-9.54 5.64-11.94 3.34-19.54 8.8-22.5 16.4-.1.34-.2.68-.28 1.03-.83-.17-1.4-.52-1.85-1.1-1.48-2.06-.28-6.33.28-7.8.18-.58-.2-1.35-.84-1.6-.73-.26-1.56.08-1.93.76-.2.68-2.32 6.58 0 10 .92 1.27 2.13 1.96 3.6 2.3-.55 3.4-.45 6.5.38 9.9-.56 2.22-1.58 3.93-3.24 5.64-1.57 1.45-2.6 3.93-1.2 5.9 1.2 1.8 3.7 5.37 7.7 5.37h.45v.17c-.55 2.32.93 4.54 3.34 5.14l6.75 1.45c.37.07.74.16 1.2.16 2.04 0 3.7-1.2 4.27-3.07l.46-2.06c.65-.7 1.3-2.22 2.3-5.9.94.1 2.33.17 4.65.17-.56.53-.84 1.12-1.02 1.8-.27 1.12-.1 2.23.65 3.17l3.25 4.35c1.02 1.37 3.05 2.65 5 2.65.65 0 1.1-.1 1.67-.34 1.48-.77 2.6-1.62 3.52-2.82 1.1-.76 2.02-1.44 3.04-2.2 1.3 1.1 3.6 1.44 6.02 1.44 2.04 0 3.8-.17 5.84-.5 1.1-.1 2.13-.7 2.68-1.63 1.02-1.7.2-3.92-.1-4.52-1.1-4.27-2.2-7.77-3.8-11.95l2.7 1.45c2.4 1.36 4.45 1.96 6.2 1.96 1.95.1 3.53-.77 4.54-2.22.84-1.02 1.2-2.13 1.3-3.42zm-70.3 9.9c-.45-.67 0-1.87.85-2.64 1-.94 1.76-1.87 2.4-3.07 1.02 2.72 2.23 5.03 3.8 7.5l-.55 2.22c-2.5.77-4.36-.85-6.5-4zm56.6 5.22c.28.6.56 1.8.28 2.3 0 0-.1.18-.65.26-4.44.7-8.6.5-9.35-.17 3.52-3.4 5.65-7.08 6.85-11.77 1.02 2.9 2.13 6.5 2.78 9.13zm10-13.15c-.45.68-1.3 1.02-2.2 1.02-1.22 0-2.9-.6-4.74-1.63l-6.02-3.24s-.1 0-.1-.1c-.92-.93-2.03-1.6-3.42-1.87-1.2-.17-2.3 0-3.33.6-.66.43-.85 1.28-.38 1.88.46.6 1.4.68 2.03.25.37-.18.75-.18 1.12-.1.83.18 1.48.6 1.94 1.2.1 2.57-.36 12.4-11.57 19.48l-.37.34c-.74.94-1.57 1.62-2.68 2.22-.1.08-.2.08-.28.08-1.1-.17-1.95-.68-2.6-1.53l-3.33-4.37c-.46-.6-.28-1.37.28-1.8.1 0 .1-.08.18-.08l2.97-1.54.1.1c0 .1 0 .1.08.17.47.5 1.4.6 2.04.1.56-.53.65-1.38.1-1.9-1.03-1.2-1.4-2.64-1.03-4.18.18-.7-.28-1.37-.93-1.54-.84-.26-1.58.17-1.85.85-.37 1.3-.37 2.4 0 3.68h-3.43c-2.5 0-4-.08-4.83-.17-.28-1.27-.83-2.3-1.67-3.32-.55-.5-1.38-.68-2.03-.26-.65.43-.74 1.3-.28 1.88.73.77 1.1 1.63 1.2 2.65-.66 2.22-3.16 9.14-3.16 9.14-.27.76-1.1 1.18-1.94.93l-6.76-1.54c-.93-.18-1.48-1.03-1.2-1.9l1.38-5.7c.1-.35.1-.7-.1-1.03-2.4-3.6-3.88-6.92-4.9-11.02v-.17c-.93-3.76-1.1-8.1.56-12.38 2.4-6.07 8.33-10.68 17.6-13.84-2.78 3.84-6.77 9.65-7.32 11.96v.17c0 .4-.1 3.57 2.04 5.2.92 1.36 1.66 2.56 2.3 4.1v.08c-.54 1.03-1.3 3.08-.17 4.44 1.76 2.56 4.63 4.1 7.96 4.1 1.94 0 3.7-.43 5.46-1.45 3.33-1.62 7.6-3.42 8.6-3.33.75.08 1.4-.34 1.6-1.03.08-.24 1.56-7 1-12.88v-.17c-.83-3.08-1.4-6.32-1.2-7.1.37-.6.2-1.27-.37-1.7-.66-.42-1.6-.34-2.05.26-.83 1.12-.65 4.2.74 9.06.18 3.93 0 7.17-.84 11.02-2.6.5-6.95 2.56-8.9 3.58-6.1 3.08-9.26-1.28-9.63-1.8l-.1-.08c.1-.76.3-1.45.75-2.13.1-.17.1-.34.1-.6v-.17c.83-1.88 2.77-5.98 3.98-7.26 0 0 .1-.08.1-.17.45-.6.36-1.36-.3-1.88-.64-.42-1.56-.25-2.02.34-1.12 1.12-2.32 3.43-3.25 5.4-.56-.86-1.12-1.7-1.5-2.23-.08-.17-.17-.25-.36-.34-.93-.6-1.1-2.3-1.1-3 .64-2.2 6-9.9 9.34-14.25.2-.17.2-.34.28-.6 1.4-1.28 4.08-3.33 7.13-4 1.38-.27 2.68-1.3 3.88-2.32.56-.42 1.02-.76 1.67-1.2 1.85-1.1 3.52-1.87 5.65-2.64 2.5-.94 4.82-1.28 7.5-1.28 1.58-.08 2.88.17 4.36.6 1.48 1.2 3.52 1.96 5.74 2.82 3.06 1.2 6.1 2.47 8.06 4.78l-2.7-.26c-.45 0-1 .17-1.28.6l-1.86 2.73c-.46.6-.27 1.47.37 1.8.74.43 1.57.26 2.03-.33l.65-.94c.28.25.65.42 1.02.42.83 0 1.48-.6 1.48-1.36l1.3.07h.37c.28.86 1.2 6.32 1.3 7.77h-.1c-4.44-.08-6.2 2.48-6.3 2.65-.37.6-.18 1.44.47 1.78.28.17.46.26.74.26.55 0 1.02-.26 1.3-.6 0-.08 1-1.45 3.8-1.45h.1c-.2 1.6-.66 2.98-1.68 3.4-.74.35-1.02 1.12-.74 1.8.37.68 1.2.94 1.94.6 4.54-1.97 3.52-8.97 2.78-12.3 2.04-.68 3.52-1.8 4.63-3.5.46-.34.92-.43 1.57-.5.18 0 .83 0 1.3 1.35.1.17 4.8 13.58-1.03 20.93-2.5 3.24-6.76 4.95-12.78 4.95h-.18l-.37-.17c-.18-.1-.36-.17-.55-.26-2.13-.5-3.9-1.54-5.37-3-.46-.5-1.4-.6-1.95-.16-.64.43-.74 1.28-.27 1.88 1.48 1.45 3.05 2.48 5.1 3.25.08 1.02-.2 1.96-.75 2.9z" stroke="#000" stroke-opacity="0" stroke-width=".94" fill="#9c0202"/><path d="M1040.5 70.66h.2c1.38-.17 2.5-.86 3.23-1.97.1-.1.1-.18.2-.26.26-.7 0-1.45-.76-1.8-.74-.25-1.57 0-1.94.7-.28.4-.65.6-1.1.67-.75.1-1.4.7-1.3 1.46 0 .7.73 1.28 1.47 1.2zM990.95 74.67c0 .77-.65 1.37-1.4 1.37-.82 0-1.47-.6-1.47-1.37 0-.77.65-1.36 1.48-1.36.74 0 1.4.6 1.4 1.37zM1020.03 67l-3.9-.36c-.54 0-1.1.26-1.38.7l-1.85 2.63c-.46.6-.28 1.46.46 1.8.65.42 1.58.25 1.95-.34l.47-.7c.37.53 1.1.7 1.76.53.74-.26 1.1-1.03.84-1.7l1.48.07c.74.1 1.48-.5 1.48-1.2.1-.76-.46-1.36-1.3-1.44zM1019.57 88.08c-.65-.1-1.2-.34-1.76-.68 1.03-1.54 1.4-3.16 1.12-4.96-.1-.68-.83-1.2-1.67-1.1-.74.16-1.3.85-1.1 1.53.08 1.2-.2 2.22-.93 3.24-.47.7-.56 1.47-.2 2.24.47 1.02 1.77 1.8 3.8 2.3.75.17 1.58-.26 1.77-.94.17-.77-.3-1.45-1.03-1.62z" stroke="#000" stroke-opacity="0" stroke-width=".94" fill="#9c0202"/><path d="M956.95 132.84h34.94v2.57h-34.95z" fill="none"/><use xlink:href="#i" transform="matrix(1,0,0,1,956.9523088759261,132.84357408129355) translate(0 3.600311279296875)"/><use xlink:href="#j" transform="matrix(1,0,0,1,956.9523088759261,132.84357408129355) translate(18.756866455078125 3.600311279296875)"/><use xlink:href="#k" transform="matrix(1,0,0,1,956.9523088759261,132.84357408129355) translate(0 7.470703125)"/><path d="M956.95 136.18h38.37v2.56h-38.37z" fill="none"/><use xlink:href="#l" transform="matrix(1,0,0,1,956.9523088759261,136.17964449912628) translate(0 3.600311279296875)"/><use xlink:href="#m" transform="matrix(1,0,0,1,956.9523088759261,136.17964449912628) translate(11.71875 3.600311279296875)"/><use xlink:href="#n" transform="matrix(1,0,0,1,956.9523088759261,136.17964449912628) translate(20.052337646484375 3.600311279296875)"/><use xlink:href="#o" transform="matrix(1,0,0,1,956.9523088759261,136.17964449912628) translate(0 7.470703125)"/><path d="M1000.34 580.16c-.32-.24-.72-.24-1.12 0l-39.28 22.33h79.68l-39.28-22.34zm-.56 18.4c-2.95 0-5.42-2.28-5.42-5.1 0-2.84 2.47-5.2 5.42-5.2 2.95 0 5.42 2.36 5.42 5.2 0 2.82-2.47 5.1-5.42 5.1z" stroke="#000" stroke-opacity="0" stroke-width="1.82" fill="#9c0202"/><path d="M1003.3 593.45c0 1.8-1.6 3.3-3.52 3.3-1.9 0-3.5-1.5-3.5-3.3 0-1.9 1.6-3.3 3.5-3.3s3.5 1.4 3.5 3.3zM997.07 644.63l1.43-2.04c-.15-.25-.3-.4-.3-.64-2.72.87-6.07 1.34-9.58 1.34-6.37 0-11.8-1.57-14.66-3.78v5.98c0 2.6 5.98 5.5 14.66 5.5 4.94 0 9.1-.94 11.72-2.28l-3.2-2.98c-.3-.24-.3-.7-.07-1.1z" stroke="#000" stroke-opacity="0" stroke-width="1.82" fill="#9c0202"/><path d="M988.62 641.57c3.27 0 6.22-.47 8.85-1.18 0-.17-.16-.25-.16-.4l-2.62-.48c-.48-.15-.72-.47-.72-.86v-4.64c0-.55.4-.87.72-.87l2.63-.47c.17-.3.17-.55.25-.78-2.55.78-5.66 1.1-8.93 1.1-6.37 0-11.8-1.58-14.66-3.78V636c0 2.66 6.06 5.57 14.66 5.57zM1010.7 630.4c-2.47 0-4.7 1.42-5.58 3.46-.4.7-.64 1.57-.64 2.44 0 .4 0 .8.08 1.26.16.47.32.86.4 1.18 1.04 2.12 3.27 3.46 5.58 3.46 3.42 0 6.2-2.6 6.2-5.9.17-3.15-2.54-5.9-6.04-5.9z" stroke="#000" stroke-opacity="0" stroke-width="1.82" fill="#9c0202"/><path d="M988.62 631.2c3.67 0 7.02-.48 9.73-1.5l-1.28-1.8c-.24-.4-.24-.88.08-1.27l3.5-3.3c.4-.4.96-.4 1.36-.16l1.45.86v-5.5c-2.8 2.36-8.2 3.85-14.67 3.85-6.37 0-11.87-1.65-14.66-3.85v6.92c-.16 2.9 5.9 5.74 14.5 5.74z" stroke="#000" stroke-opacity="0" stroke-width="1.82" fill="#9c0202"/><path d="M988.62 620.9c8.53 0 14.67-3 14.67-5.52 0-2.6-6-5.5-14.68-5.5-8.6 0-14.66 2.9-14.66 5.5.16 2.52 6.06 5.5 14.66 5.5zM1022.33 633.63c-.24-1.1-.72-2.2-1.43-3.3-.24-.4-.08-.7 0-1.03l1.43-1.8-2.3-2.2-1.92 1.33c-.3.23-.8.23-1.03 0-1.03-.63-2.23-1.1-3.5-1.34-.4-.17-.72-.4-.8-.72l-.4-2.2h-3.27l-.4 2.2c-.08.32-.4.55-.7.7-1.2.25-2.24.64-3.28 1.27l-.24.08c-.4.16-.8.16-1.03 0l-2-1.34-2.3 2.2 1.43 1.8c.24.32.24.8 0 1.02l-.16.08c0 .16-.08.16-.08.32v.08c-.56.86-.96 1.88-1.2 2.83-.16.4-.4.63-.8.7l-2.46.4v3.06l2.3.4c.4.07.72.3.8.7.16.47.24.94.56 1.57.24.55.48 1.1.88 1.65.24.3.16.7 0 .94l-1.44 1.8 2.4 2.2 1.9-1.32c.25-.08.64-.24.88-.08 0 0 .16 0 .16.08 1.04.62 2.23 1.1 3.35 1.33.4.16.64.4.8.8l.4 2.2h3.26l.4-2.2c.08-.4.32-.64.72-.8 1.35-.23 2.4-.7 3.5-1.33.4-.24.8-.24 1.04 0l1.98 1.33 2.3-2.2-1.42-1.8c-.24-.24-.24-.72 0-.95.63-1.1 1.2-2.28 1.43-3.38.15-.32.4-.55.8-.7l2.3-.4v-3.07l-2.07-.24c-.4-.07-.64-.3-.8-.7zM1010.7 644c-3.27 0-6.14-1.65-7.4-4.48-.25-.47-.4-1.02-.65-1.57-.16-.63-.16-1.1-.16-1.65 0-1.1.23-2.2.8-3.15 1.26-2.75 4.13-4.4 7.4-4.4 4.54 0 8.12 3.38 8.12 7.7 0 4.02-3.58 7.56-8.12 7.56z" stroke="#000" stroke-opacity="0" stroke-width="1.82" fill="#9c0202"/><path d="M965.52 604.3v53.4c0 .46.4.93 1.03.93h66.7c.56 0 1.03-.4 1.03-.94v-53.4h-68.76zm61.9 34.36c0 .47-.4.86-.8.86l-2.54.48c-.3 1.02-.7 1.8-1.2 2.67l1.44 1.96c.24.4.24.87-.16 1.26l-3.5 3.3c-.4.4-.88.4-1.28.15l-2.07-1.5c-.95.48-1.82.87-2.86 1.1l-.48 2.45c-.16.47-.55.7-.95.7h-4.93c-.48 0-.88-.3-.88-.7l-.57-2.44c-.87-.24-1.67-.63-2.47-1.02-2.15 3-8.28 4.95-15.7 4.95-9.16 0-16.57-3.23-16.57-7.4v-30.12c0-4.08 7.24-7.4 16.48-7.4 9.17 0 16.5 3.24 16.5 7.25v8.96c.48-.25 1.04-.4 1.67-.64l.48-2.44c.16-.47.56-.7.96-.7h4.85c.56 0 .95.3.95.7l.48 2.44c1.04.24 2 .63 2.87 1.1l2.07-1.33c.4-.24.96-.24 1.36.15l3.5 3.3c.32.32.32.87.08 1.18l-1.43 1.97c.56.87.96 1.73 1.2 2.75l2.62.47c.48.08.72.48.72.87v4.64z" stroke="#000" stroke-opacity="0" stroke-width="1.82" fill="#9c0202"/><path d="M956.95 673.22h124.25v4.9H956.95z" fill="none"/><use xlink:href="#p" transform="matrix(1,0,0,1,956.9523088759437,673.2173713265411) translate(0 6.982421874999999)"/><use xlink:href="#q" transform="matrix(1,0,0,1,956.9523088759437,673.2173713265411) translate(36.376953125 6.982421874999999)"/><use xlink:href="#r" transform="matrix(1,0,0,1,956.9523088759437,673.2173713265411) translate(49.51171875 6.982421874999999)"/><use xlink:href="#s" transform="matrix(1,0,0,1,956.9523088759437,673.2173713265411) translate(84.88547585227272 6.982421874999999)"/><path d="M956.95 679.54h68.82v4.7h-68.82z" fill="none"/><use xlink:href="#t" transform="matrix(1,0,0,1,956.9523088759261,679.541772180795) translate(0 6.982421874999999)"/><use xlink:href="#u" transform="matrix(1,0,0,1,956.9523088759261,679.541772180795) translate(22.727272727272723 6.982421874999999)"/><use xlink:href="#v" transform="matrix(1,0,0,1,956.9523088759261,679.541772180795) translate(38.88938210227272 6.982421874999999)"/><use xlink:href="#w" transform="matrix(1,0,0,1,956.9523088759261,679.541772180795) translate(0 14.488636363636362)"/><path d="M778.32 366v15.54h17.33v-5.56h12.6v5.56h17.34v-5.56h11.6v5.56h17.54V366h-6.3v-13.74h6.3V336.7H837.2v5.4h-11.6v-5.4h-17.34v15.56h17.33v-5.57h11.6v5.56h6.3V366h-6.3v5.56h-11.6V366h-17.34v5.56h-12.6V366H778.3zM758.42 284.52c12.8 0 23.05-2.95 23.05-6.54 0-3.44-10.24-6.4-23.05-6.4-12.6 0-23.04 2.96-23.04 6.4 0 3.6 10.44 6.54 23.04 6.54zM735.38 303.66c.2 3.44 10.44 6.22 23.04 6.22 12.4 0 22.46-2.62 23.05-6.05V297.12c-5.52 2.94-14.77 4.25-23.05 4.25-6.5 0-13-.82-17.72-2.12-2.17-.66-3.94-1.3-5.32-1.97v6.38zM735.38 317.08c0 3.6 10.24 6.54 23.04 6.54 12.8 0 23.05-2.94 23.05-6.54v-6.7c-1.38.65-3.15 1.3-5.32 1.95-4.73 1.3-11.03 2.13-17.73 2.13-6.7 0-13-.82-17.72-2.13-2.17-.65-3.94-1.3-5.32-1.96v6.7zM735.38 290.9c.98 3.27 11.03 5.9 23.04 5.9 12.02 0 22.06-2.46 23.05-5.74v-6.2c-5.52 2.93-14.58 4.08-23.05 4.08-6.5 0-13-.66-17.72-2.13-2.17-.48-3.94-1.13-5.32-1.95M663.7 381.54h16.73c1.18 0 2.16-.82 2.16-1.96v-40.74c0-1.15-1-2.13-2.37-2.13h-16.15c-1.38 0-2.56 1-2.56 2.14v40.74c0 1.14.98 1.96 2.17 1.96zM694.6 381.54h16.75c1.18 0 2.17-.82 2.17-1.96v-29.45c0-1.15-1.18-2.13-2.37-2.13H694.8c-1.18 0-2.36.98-2.36 2.13v29.45c0 1.14 1 1.96 2.17 1.96zM725.53 381.54h16.74c1.2 0 2.17-.82 2.17-1.96v-17.5c0-1.32-1.18-2.3-2.56-2.3h-16.15c-1.38 0-2.36.98-2.36 2.3v17.5c0 1.14.98 1.96 2.16 1.96zM853.16 401.34c-3.74 0-7.1-1.64-9.25-4.1l-.78-.97c-1.18-1.3-2.76-1.97-4.53-1.97-1.98 0-3.56.66-4.74 1.97l-.8.98c-2.15 2.45-5.5 4.1-9.24 4.1h-9.66c-3.74 0-7.1-1.65-9.25-4.1l-.78-.98c-1.18-1.3-2.76-1.97-4.73-1.97-1.78 0-3.36.66-4.54 1.97l-.8.98c-2.15 2.45-5.5 4.1-9.24 4.1h-9.65c-3.75 0-7.1-1.65-9.46-4.1l-.58-.98c-1.18-1.3-2.76-1.97-4.73-1.97-1.78 0-3.35.66-4.54 1.97l-.78.98c-2.17 2.45-5.52 4.1-9.26 4.1h-9.65c-3.74 0-7.1-1.65-9.46-4.1l-.58-.98c-1.18-1.3-2.75-1.97-4.72-1.97-1.78 0-3.35.66-4.53 1.97l-.8.98c-2.16 2.45-5.5 4.1-9.25 4.1h-10.64c-3.74 0-7.1-1.65-9.25-4.1l-.8-.98c-1.17-1.3-2.75-1.97-4.72-1.97-1.76 0-3.34.66-4.52 1.97l-.8.98c-2.15 2.45-5.5 4.1-9.24 4.1h-5.32v4.4h5.32c5.12 0 10.24-2.12 13.4-5.88l.58-.82c.2-.16.6-.33.6-.33.2 0 .58.17.58.33l.8.82c3.14 3.76 8.26 5.9 13.38 5.9h10.64c5.12 0 10.24-2.14 13.4-5.9l.58-.82c.2-.16.6-.33.6-.33.2 0 .4.17.6.33l.77.82c3.16 3.76 8.08 5.9 13.4 5.9h9.65c5.12 0 10.24-2.14 13.4-5.9l.58-.82c.2-.16.6-.33.6-.33.2 0 .4.17.58.33l.8.82c3.14 3.76 8.27 5.9 13.4 5.9h9.64c5.12 0 10.24-2.14 13.4-5.9l.58-.82c.2-.16.6-.33.6-.33.2 0 .58.17.58.33l.8.82c3.14 3.76 8.26 5.9 13.38 5.9h9.66c5.12 0 10.24-2.14 13.4-5.9l.78-.82c0-.16.4-.33.6-.33 0 0 .38.17.58.33l.6.82c3.14 3.76 8.26 5.9 13.38 5.9h5.32v-4.43h-5.32zM843.9 416.4l-.78-.83c-1.18-1.3-2.76-1.96-4.53-1.96-1.98 0-3.56.66-4.74 1.97l-.8.82c-2.15 2.6-5.5 4.25-9.24 4.25h-9.66c-3.74 0-7.1-1.64-9.25-4.26l-.78-.83c-1.18-1.3-2.76-1.96-4.73-1.96-1.78 0-3.36.66-4.54 1.97l-.8.82c-2.15 2.6-5.5 4.25-9.24 4.25h-9.65c-3.75 0-7.1-1.64-9.46-4.26l-.58-.83c-1.18-1.3-2.76-1.96-4.73-1.96-1.78 0-3.35.66-4.54 1.97l-.78.82c-2.17 2.6-5.52 4.25-9.26 4.25h-9.65c-3.74 0-7.1-1.64-9.46-4.26l-.58-.83c-1.18-1.3-2.75-1.96-4.72-1.96-1.78 0-3.35.66-4.53 1.97l-.8.82c-2.16 2.6-5.5 4.25-9.25 4.25h-10.64c-3.74 0-7.1-1.64-9.25-4.26l-.8-.83c-1.17-1.3-2.75-1.96-4.72-1.96-1.76 0-3.34.66-4.52 1.97l-.8.82c-2.15 2.6-5.5 4.25-9.24 4.25h-5.32v4.4h5.32c5.12 0 10.24-2.1 13.4-5.88l.58-.8c.2-.34.6-.34.6-.34.2 0 .58 0 .78.33l.6.8c3.14 3.78 8.26 5.9 13.38 5.9h10.64c5.12 0 10.24-2.12 13.4-5.9l.58-.8c.2-.33.6-.33.6-.33.2 0 .4 0 .6.33l.77.8c3.16 3.78 8.08 5.9 13.4 5.9h9.65c5.12 0 10.24-2.12 13.4-5.9l.58-.8c.2-.33.6-.33.6-.33.2 0 .4 0 .58.33l.8.8c3.14 3.78 8.27 5.9 13.4 5.9h9.64c5.12 0 10.24-2.12 13.4-5.9l.58-.8c.2-.33.6-.33.6-.33h.2s.38 0 .58.33l.6.8c3.14 3.78 8.26 5.9 13.38 5.9h9.66c5.12 0 10.24-2.12 13.4-5.9l.78-.8c.2-.33.4-.33.6-.33 0 0 .38 0 .58.33l.6.8c3.14 3.78 8.26 5.9 13.38 5.9h5.32v-4.4h-5.32c-3.74 0-7.1-1.65-9.25-4.27zM669.6 274.54h4.92v7.36h-4.93v-7.36zM669.6 300.72h4.92v7.36h-4.93v-7.36zM669.6 287.63h4.92V295h-4.93v-7.37zM669.6 261.45h4.92v7.36h-4.93v-7.35zM669.6 313.8h4.92v7.37h-4.93v-7.36zM700.52 274.54h4.92v7.36h-4.92v-7.36zM700.52 300.72h4.92v7.36h-4.92v-7.36zM700.52 287.63h4.92V295h-4.92v-7.37zM700.52 313.8h4.92v7.37h-4.92v-7.36zM700.52 261.45h4.92v7.36h-4.92v-7.35zM812 274.54h4.92v7.36H812v-7.36zM812 261.45h4.92v7.36H812v-7.35zM812 287.63h4.92V295H812v-7.37zM812 313.8h4.92v7.37H812v-7.36zM812 300.72h4.92v7.36H812v-7.36zM842.33 274.54h4.92v7.36h-4.92v-7.36zM842.33 261.45h4.92v7.36h-4.92v-7.35zM842.33 300.72h4.92v7.36h-4.92v-7.36zM842.33 313.8h4.92v7.37h-4.92v-7.36zM842.33 287.63h4.92V295h-4.92v-7.37z" stroke="#000" stroke-opacity="0" stroke-width=".23" fill="#9c0202"/><path d="M658.48 438.16h30.16v1.5h-30.16z" fill="none"/><use xlink:href="#x" transform="matrix(1,0,0,1,658.4809910735338,438.15887699287134) translate(0 1.4162788391113281)"/><use xlink:href="#y" transform="matrix(1,0,0,1,658.4809910735338,438.15887699287134) translate(4.689216613769531 1.4162788391113281)"/><use xlink:href="#z" transform="matrix(1,0,0,1,658.4809910735338,438.15887699287134) translate(6.3823699951171875 1.4162788391113281)"/><use xlink:href="#A" transform="matrix(1,0,0,1,658.4809910735338,438.15887699287134) translate(10.74371337890625 1.4162788391113281)"/><use xlink:href="#B" transform="matrix(1,0,0,1,658.4809910735338,438.15887699287134) translate(12.046623229980469 1.4162788391113281)"/><path d="M658.48 439.94h21.03v1.5H658.5z" fill="none"/><use xlink:href="#C" transform="matrix(1,0,0,1,658.4809910735338,439.93500114333267) translate(0 1.4162788391113281)"/><use xlink:href="#D" transform="matrix(1,0,0,1,658.4809910735338,439.93500114333267) translate(2.9296875 1.4162788391113281)"/><use xlink:href="#E" transform="matrix(1,0,0,1,658.4809910735338,439.93500114333267) translate(5.013084411621094 1.4162788391113281)"/><use xlink:href="#F" transform="matrix(1,0,0,1,658.4809910735338,439.93500114333267) translate(8.332443237304688 1.4162788391113281)"/><path d="M1035.04 455.23c2.47-3 6.67-10.47 7.8-16.94 1.14-6.4-1.13-14.92-5.2-19.74-4.93-5.87-13.4-9.7-22.06-10.1-10.13-.44-17.07.84-22.53 3.93-6.4 3.68-8.73 9.4-9.6 13.47-.27 1.43-.6 2.48-.93 3.3-.6 1.82-1 3.1.06 5.28.87 1.8.4 3.7-1.66 6.17l-.6.68c-2.14 2.56-4.14 4.97-3.87 6.63.27 1.8 2.33 2.4 3.27 2.7.13 0 .26.08.4.08.06.1.2.1.4.16.26.08.53.15.6.23 0 .14.2.6-.6 2.1l-.07.22c-.4.76-1.2 2.26.6 3.62-.47.45-.6.9-.53 1.43v.15c-.07.68.4 1.13.73 1.5.53.53.87.98.6 1.96-.27 1.2-.87 4 .4 5.72.47.68 1.2 1.13 2.07 1.2 3.2.6 5.46.4 7.53.16 1-.08 1.93-.15 2.93-.15 1.47.08 2.93.84 3.33 1.9.6 1.72 1.2 4.73.88 7.6-.27 1.95-.6 2.63-1.33 3.9l-.73 1.3h40.06l-.54-1.2c-4.06-8.67-5.46-14.32-5.13-20.2.14-1.87 1.28-3.98 3.74-7.07zm-.93 26.73H1000c.4-.83.67-1.73.87-3.24.4-3.16-.27-6.47-.94-8.36-.6-1.73-2.78-3-5.12-3h-.26c-.94 0-1.87.07-2.87.14-2 .15-4.07.38-7-.15-.4-.07-.6-.22-.8-.45-.6-.83-.6-2.56-.13-4.37.46-1.88-.47-2.86-1-3.46l-.34-.38v-.23-.23s.07-.15.74-.52l1.46-.76-1.46-.75c-1.67-.74-1.4-1.2-1-2.02l.13-.23c.8-1.58 1-2.7.6-3.54-.47-.82-1.33-1.04-1.8-1.2-.13 0-.2 0-.27-.07-.13 0-.26-.07-.46-.15-1-.3-1.87-.6-1.94-1.28-.2-.98 2-3.6 3.47-5.34l.6-.76c1.53-1.88 3.4-4.74 1.87-7.83-.74-1.65-.54-2.4.06-4.14.27-.9.6-1.96.94-3.46.73-3.77 2.93-8.96 8.73-12.28 5.13-3.02 11.73-4.15 21.4-3.7 8.2.3 16.13 3.92 20.66 9.34 3.74 4.44 5.88 12.58 4.88 18.52-1.07 5.95-5 13.18-7.4 16.2-2.8 3.3-4.07 5.7-4.14 7.97-.33 5.88 1 11.45 4.67 19.73z" stroke="#000" stroke-opacity="0" stroke-width="1.2" fill="#9c0202"/><path d="M1031.98 435.73h-5.4v-2.1h8.93v-1.67h-8.92v-2.4h5.4v-1.74h-5.4v-3.7h-4.13v-4.95h-1.87v4.96h-2.33V416h-1.87v8.13h-2.67v-4.96h-1.85v4.96h-4.14v3.7h-5.32v1.73h5.33v2.1h-8.85v1.66h8.86v2.4h-5.32v1.74h5.33v3.7h4.15v4.73h1.86v-4.75h2.35v7.9h1.86v-7.9h2.68v4.74h1.87v-4.75h4.13v-3.7h5.4v-1.72zm-7.27 3.7h-15.05v-13.56h15.06v13.55z" stroke="#000" stroke-opacity="0" stroke-width="1.2" fill="#9c0202"/><path d="M1022.85 427.52h-11.4v10.24h11.4v-10.24zm-1.87 8.5h-7.6v-6.77h7.6v6.78z" stroke="#000" stroke-opacity="0" stroke-width="1.2" fill="#9c0202"/><path d="M963.42 500.38h56.97v3.3H963.4z" fill="none"/><use xlink:href="#G" transform="matrix(1,0,0,1,963.4248749989376,500.38271409985276) translate(0 4.6083984375)"/><use xlink:href="#H" transform="matrix(1,0,0,1,963.4248749989376,500.38271409985276) translate(24.0087890625 4.6083984375)"/><use xlink:href="#I" transform="matrix(1,0,0,1,963.4248749989376,500.38271409985276) translate(0 9.5625)"/><path d="M963.42 504.66h50.3v3.3h-50.3z" fill="none"/><use xlink:href="#J" transform="matrix(1,0,0,1,963.4248749989376,504.66292859805566) translate(0 4.6083984375)"/><use xlink:href="#K" transform="matrix(1,0,0,1,963.4248749989376,504.66292859805566) translate(15 4.6083984375)"/><use xlink:href="#L" transform="matrix(1,0,0,1,963.4248749989376,504.66292859805566) translate(25.6669921875 4.6083984375)"/><use xlink:href="#M" transform="matrix(1,0,0,1,963.4248749989376,504.66292859805566) translate(0 9.5625)"/><path d="M428.6 118.34c0-5.14-1.17-10.2-3.33-14.88.08-.07.08-.15.08-.3V96.7c0-3.05-2.65-5.5-5.96-5.5h-3.08C408.62 84 398.17 80 387.14 80c-5.97 0-11.77 1.15-17.16 3.45h-13.1c-2.06 0-3.72 1.53-3.72 3.53v9.43c-4.9 6.45-7.46 14.04-7.46 21.94 0 21.08 18.56 38.33 41.44 38.33 22.96 0 41.45-17.25 41.45-38.33zm-13.1 26.6h-3.66c1.58-1 2.65-2.68 2.65-4.6V103.7h9.86c2.15 4.6 3.23 9.5 3.23 14.64 0 10.42-4.65 19.85-12.1 26.6zm-42.6-31.2c8.44 0 13.33 8.74 8.52 15.1 0 .08-.08.23-.08.3l.83 7.37-5.64-3.83c-.16-.07-.33-.07-.5-.07-1 .3-2.07.53-3.14.53-5.82 0-10.46-4.37-10.46-9.66 0-5.44 4.64-9.73 10.45-9.73zm0 20.24c1.06 0 2.14-.16 3.22-.46l6.3 4.3c.4.22.9 0 .83-.4l-.5-4.98h25.7c.33 0 .57-.23.57-.46 0-.3-.24-.46-.58-.46h-25.77l-.25-2.3c.66-1 1.16-2.14 1.57-3.3h24.44c.34 0 .58-.15.58-.45 0-.23-.24-.46-.58-.46h-24.28c.33-1.9.08-3.75-.67-5.5h24.94c.25 0 .5-.24.5-.47 0-.3-.25-.54-.5-.54h-25.36c-1.9-3.38-5.8-5.76-10.2-5.76-.57 0-1.16.08-1.74.08v-2.23h22.22c2.15 0 3.8-1.62 3.8-3.53v-.7h11.37c.33 0 .5-.15.5-.45 0-.23-.17-.46-.5-.46h-11.36v-5.53h11.36c.33 0 .5-.23.5-.46 0-.3-.17-.46-.5-.46h-11.36v-6.9h18.9c-1.66 1.1-2.65 2.85-2.65 4.6v43.64c0 2.53-2.16 4.52-4.9 4.6-.08 0-1.98.08-3.56-1.3-.9-.85-1.4-2.07-1.4-3.3 0-.3-.25-.46-.6-.46h-31.82v-6.06c.58.08 1.17.16 1.75.16zm29.58 6.82c.08 1.3.74 2.53 1.74 3.45.25.23.58.46.9.7h-34.47c-2.57 0-4.73-1.85-4.98-4.15h36.8zm21.88-44.1v6h-9.87v-6c0-2.52 2.23-4.6 4.97-4.6 2.65 0 4.9 2.08 4.9 4.6zm-37.22-15.78c10.45 0 20.23 3.68 27.77 10.27h-17.8v-4.3c0-1.92-1.67-3.53-3.74-3.53h-20.72c4.56-1.6 9.53-2.45 14.5-2.45zm-33 5.98c0-1.38 1.26-2.53 2.83-2.53h36.4c1.56 0 2.8 1.15 2.8 2.53v20.17c0 1.45-1.24 2.53-2.8 2.53h-36.48c-1.5 0-2.75-1.08-2.75-2.53V86.9zm-7.45 31.44c0-7.2 2.23-14.2 6.46-20.25v8.97c0 1.9 1.66 3.52 3.8 3.52h13.27v2.45c-5.05 1.15-8.78 5.36-8.78 10.27 0 4.98 3.73 9.2 8.7 10.35v6.2h-4.97c-.33 0-.5.16-.5.47 0 1.92 1.08 3.6 2.65 4.6h-8.54c-7.47-6.75-12.1-16.18-12.1-26.6zm13.17 27.52h54.62c-7.22 6.14-16.83 9.9-27.36 9.9-10.52 0-20.14-3.76-27.27-9.9z" stroke="#000" stroke-opacity="0" stroke-width=".73" fill="#9c0202"/><path d="M385.98 148.78c0-.3-.25-.46-.5-.46h-12.43c-.25 0-.5.15-.5.46 0 .3.25.46.5.46h12.43c.25 0 .5-.23.5-.46zM390.04 148.78c0-.3-.25-.46-.58-.46h-2c-.32 0-.48.15-.48.46 0 .3.16.46.5.46h1.98c.25 0 .58-.23.58-.46zM391.2 149.24h1.33c.33 0 .58-.16.58-.46 0-.3-.24-.46-.57-.46h-1.33c-.25 0-.5.15-.5.46 0 .23.25.46.5.46zM401.23 150.62H388.8c-.25 0-.5.15-.5.46 0 .3.25.46.5.46h12.43c.25 0 .5-.16.5-.46 0-.3-.25-.46-.5-.46zM386.8 150.62h-1.98c-.33 0-.58.15-.58.46 0 .3.25.46.58.46h2c.32 0 .5-.16.5-.46 0-.3-.18-.46-.5-.46zM383.08 150.62h-1.33c-.33 0-.58.15-.58.46 0 .3.25.46.58.46h1.33c.25 0 .5-.16.5-.46 0-.3-.25-.46-.5-.46zM356.72 107s.1 0 0 0c.1 0 .1 0 .1.07s.07.07.07.07.07 0 .07.08h.08c.1 0 .1.08.17.08h35.72c.34 0 .58-.23.58-.54V87.2c0-.22-.24-.45-.58-.45H357.3c-.33 0-.58.23-.58.46V107zm19.65-.7l-2.82-5.3 4.14-5.13 8.45 10.43h-9.78zm-3.82-5.06l2.74 5.06h-17.25l8.62-16.18 5.88 11.12zm19.98-13.5v18.56h-5.14l-9.3-11.5c-.08-.16-.24-.16-.4-.16-.1 0-.26 0-.42.16l-4.23 5.3-5.88-11.28c-.17-.3-.83-.3-.92 0l-8.45 15.95V87.74h34.73z" stroke="#000" stroke-opacity="0" stroke-width=".73" fill="#9c0202"/><path d="M387.22 95.8c2.16 0 3.9-1.62 3.9-3.6 0-2-1.74-3.6-3.9-3.6-2.15 0-3.9 1.6-3.9 3.6 0 1.98 1.75 3.6 3.9 3.6zm0-6.22c1.58 0 2.82 1.15 2.82 2.6 0 1.47-1.24 2.7-2.82 2.7-1.65 0-2.9-1.23-2.9-2.7 0-1.45 1.25-2.6 2.9-2.6zM369.16 128.76c.16.16.4.16.58 0l9.36-4.98c.33-.15.33-.6 0-.84l-9.36-5.06c-.17-.08-.42-.08-.58 0-.17.15-.25.3-.25.46v10.04c0 .15.1.3.26.38zm.82-9.66l7.88 4.22-7.88 4.22v-8.44zM408.44 111.97h-33.32c-.33 0-.5.23-.5.46 0 .3.17.54.5.54h33.32c.25 0 .5-.23.5-.54.08-.23-.25-.46-.5-.46z" stroke="#000" stroke-opacity="0" stroke-width=".73" fill="#9c0202"/><path d="M345.2 162.43h32.44v1.82H345.2z" fill="none"/><use xlink:href="#N" transform="matrix(1,0,0,1,345.1865007142694,162.42745989086205) translate(0 2.809999047256097)"/><use xlink:href="#O" transform="matrix(1,0,0,1,345.1865007142694,162.42745989086205) translate(14.639505525914634 2.809999047256097)"/><use xlink:href="#P" transform="matrix(1,0,0,1,345.1865007142694,162.42745989086205) translate(0 5.830792682926829)"/><use xlink:href="#Q" transform="matrix(1,0,0,1,345.1865007142694,162.42745989086205) translate(14.235780297256097 5.830792682926829)"/><path d="M345.2 164.8h27.12v1.8H345.2z" fill="none"/><use xlink:href="#R" transform="matrix(1,0,0,1,345.18650071425554,164.79389354482635) translate(0 2.809999047256097)"/><use xlink:href="#S" transform="matrix(1,0,0,1,345.18650071425554,164.79389354482635) translate(9.146341463414634 2.809999047256097)"/><use xlink:href="#T" transform="matrix(1,0,0,1,345.18650071425554,164.79389354482635) translate(15.65060499237805 2.809999047256097)"/><use xlink:href="#U" transform="matrix(1,0,0,1,345.18650071425554,164.79389354482635) translate(0 5.830792682926829)"/><path d="M382.92 262.96c-.2-.43-.65-.6-.9-1.13-.46-.17-.85-.43-1.37-.43-.65 0-1.1.26-1.56.43-.46.26-.66.7-1.1.96-.27.42-.53.85-.73 1.3-.2.5-.2 1.1-.2 1.8 0 .87 0 1.56.2 2 .26.7.52 1.12.72 1.38.18.43.64.6 1.1.6.45.27.9.27 1.35.27.46 0 .9 0 1.1-.26.46-.2.66-.44 1.18-.88.2-.43.45-.86.64-1.3.2-.52.2-1.12.2-2.08 0-.6 0-1.12-.2-1.73 0 0-.26-.5-.45-.94z" stroke="#000" stroke-opacity="0" fill="#9c0202"/><path d="M380 220c-18.04 0-32.45 6.06-32.45 12.82v60.7c0 6.77 14.67 13.1 32.45 13.1 18.04 0 32.38-6.07 32.38-12.83v-60.72c.26-6.76-14.34-13.08-32.38-13.08zm-9.73 50.84c0 .52-.2.87-.46 1.4-.18.42-.44.85-.9 1.1-.45.45-.84.62-1.3.88-.5.26-1.16.43-2.07.7-.65.16-1.56.16-2.66.16h-1.62c-.46 0-.9 0-1.37-.17-.45 0-.9-.25-1.1-.25-.45 0-.65-.26-.9-.43v-4.76c.25.25.64.43 1.1.7.5.16.7.42 1.16.6.46.25.9.25 1.37.5.46.2.85.2 1.37.2.45 0 .65 0 .84-.2.27 0 .53-.25.53-.25.2 0 .2-.25.2-.42v-.52c0-.17 0-.43-.2-.6-.26-.26-.26-.52-.52-.52-.18-.18-.44-.18-.83-.44-.52-.26-.72-.26-1.17-.43-.65-.26-1.36-.7-2-1.13-.47-.52-.92-.7-1.37-1.12-.46-.52-.65-.87-.65-1.4-.26-.42-.26-1.1-.26-1.55 0-.86.26-1.56.52-2.25.45-.7.84-1.4 1.36-1.82.65-.43 1.3-.86 2.2-1.12.9-.18 1.82-.44 3-.44h1.55c.45 0 .9 0 1.36.26.47 0 .66.18 1.1.18.47 0 .73.26.92.26v4.5c-.2-.26-.45-.26-.9-.43-.2-.25-.65-.25-1.1-.5-.46-.2-.66-.2-1.1-.2h-1.37c-.65 0-1.17 0-1.37.2-.45.25-.45.5-.45.94 0 .17 0 .43.2.43 0 .26.25.26.45.44.26.27.52.27.7.53.2.17.66.17 1.1.43.66.26 1.38.7 2.03.86.65.52 1.1.7 1.63 1.13.45.43.65.87 1.1 1.4.2.42.46 1.1.46 1.98-.27.34-.53.78-.53 1.2zm13.3 8.58l-3.83-4.08c-1.1 0-2.27-.43-3.1-.7-.92-.42-1.83-1.1-2.55-1.72-.65-.7-1.3-1.56-1.76-2.7-.45-1.1-.65-2.24-.65-3.62 0-1.4.2-2.7.64-3.8.46-1.14 1.1-2.1 1.75-2.96.7-.95 1.8-1.38 2.72-1.82 1.17-.43 2.27-.6 3.63-.6 1.37 0 2.47.17 3.38.6 1.1.44 2 1.13 2.72 1.82.65.6 1.37 1.73 1.76 2.7.46 1.1.65 2.24.65 3.8 0 .95 0 2.08-.45 2.77-.2.87-.65 1.57-1.1 2.26-.46.6-.9 1.3-1.62 1.73-.65.43-1.1.86-2.02 1.38l5.9 4.94h-6.1zm19.4-4.5h-11.22v-17.33h5.2v13.33h6.1v3.98zM380 238.87c-12.85 0-23.17-3.12-23.17-6.93 0-3.9 10.32-7 23.17-7 12.85 0 23.23 3.1 23.23 7 0 3.8-10.38 6.93-23.23 6.93zM387.73 340H358.4c-2.02 0-3.7 1.76-3.7 3.92V420h20.18v-7.76H360.2v-3.92h14.68v-3.92H360.2v-3.92h14.68v-13.6h16.48v-42.96c0-2.16-1.62-3.92-3.63-3.92zm-1.9 15.6h-25.62v-3.92h25.64v3.92z" stroke="#000" stroke-opacity="0" fill="#9c0202"/><path d="M377.4 389.76V420h42.2v-30.24h-42.2zm40.18 27.92H379.1v-21.52h38.54v21.52h-.06z" stroke="#000" stroke-opacity="0" fill="#9c0202"/><path d="M395.58 400.08h-12.85v13.68h12.85v-13.68zM413.94 411.84H400.2v1.92h13.74v-1.92zM413.94 407.92H400.2v1.92h13.74v-1.92zM413.94 404H400.2v1.92h13.74V404zM413.94 400.08H400.2v2h13.74v-2zM363.27 508.23h32.82v6.36h-32.83v-6.37zM363.27 520.42h32.82v6.28h-32.83v-6.28zM363.27 532.38h32.82v6.28h-32.83v-6.28z" stroke="#000" stroke-opacity="0" fill="#9c0202"/><path d="M400.56 483.7h-46.22c-5.4 0-9.78 4.6-9.78 10.2v56.27c0 5.6 4.4 10.2 9.78 10.2h51.25c5.45 0 9.84-4.6 9.84-10.2v-51.22l-14.88-15.26zm5.03 70.53h-51.26c-2.06 0-3.76-1.7-3.76-4.06V493.9c0-2.16 1.7-3.92 3.76-3.92h43.1v12.65h11.9v47.7c0 2.2-1.62 3.9-3.75 3.9zM405.5 660.52l-12.34 13-2.02-2.2L405 656.76l-13.86-14.57 2.02-2.2 12.33 13 3.54 3.77-3.55 3.75zM354.1 660.52l12.1 13 2.06-2.2-13.92-14.55 13.92-14.57-2.07-2.2-12.1 13-3.73 3.77 3.73 3.75z" stroke="#000" stroke-opacity="0" fill="#9c0202"/><path d="M372.6 656.77c0-2.04-1.6-3.78-3.56-3.78-2.08 0-3.56 1.73-3.56 3.77 0 2 1.66 3.75 3.56 3.75 2.07 0 3.55-1.74 3.55-3.75zM379.7 660.52c1.96 0 3.56-1.74 3.56-3.75 0-2.04-1.6-3.78-3.56-3.78-1.9 0-3.55 1.73-3.55 3.77 0 2 1.66 3.75 3.55 3.75zM390.37 660.52c1.96 0 3.56-1.74 3.56-3.75 0-2.04-1.66-3.78-3.56-3.78-2.07 0-3.55 1.73-3.55 3.77 0 2 1.48 3.75 3.55 3.75z" stroke="#000" stroke-opacity="0" fill="#9c0202"/><path d="M320 0h325.05v74H320z" stroke="#000" stroke-opacity="0" stroke-width="2" fill="#fff" fill-opacity="0"/><use xlink:href="#V" transform="matrix(1,0,0,1,325,5) translate(0 37.333333333333336)"/><use xlink:href="#W" transform="matrix(1,0,0,1,325,5) translate(65.03703703703704 37.333333333333336)"/><use xlink:href="#X" transform="matrix(1,0,0,1,325,5) translate(133.11111111111114 37.333333333333336)"/><path d="M640 447.95h240v60H640z" stroke="#000" stroke-opacity="0" stroke-width="2" fill="#fff" fill-opacity="0"/><use xlink:href="#Y" transform="matrix(1,0,0,1,645,452.9504175656475) translate(36.650000000000006 28.6)"/><use xlink:href="#Z" transform="matrix(1,0,0,1,645,452.9504175656475) translate(80.55000000000001 28.6)"/><use xlink:href="#aa" transform="matrix(1,0,0,1,645,452.9504175656475) translate(126.50000000000001 28.6)"/><path d="M267.14 160h240v60h-240z" stroke="#000" stroke-opacity="0" stroke-width="2" fill="#fff" fill-opacity="0"/><use xlink:href="#ab" transform="matrix(1,0,0,1,272.1419650259195,165) translate(36.724999999999994 28.6)"/><use xlink:href="#ac" transform="matrix(1,0,0,1,272.1419650259195,165) translate(154.375 28.6)"/><path d="M260 288h240v60H260z" stroke="#000" stroke-opacity="0" stroke-width="2" fill="#fff" fill-opacity="0"/><use xlink:href="#ad" transform="matrix(1,0,0,1,265,292.98707542674447) translate(44.19999999999999 28.6)"/><use xlink:href="#ac" transform="matrix(1,0,0,1,265,292.98707542674447) translate(146.89999999999998 28.6)"/><path d="M260 415.97h240v60H260z" stroke="#000" stroke-opacity="0" stroke-width="2" fill="#fff" fill-opacity="0"/><g><use xlink:href="#ae" transform="matrix(1,0,0,1,264.99999999997414,420.97415085348894) translate(7.699999999999989 17.799999999999997)"/><use xlink:href="#af" transform="matrix(1,0,0,1,264.99999999997414,420.97415085348894) translate(68.69999999999999 17.799999999999997)"/><use xlink:href="#ag" transform="matrix(1,0,0,1,264.99999999997414,420.97415085348894) translate(105.6 17.799999999999997)"/><use xlink:href="#ah" transform="matrix(1,0,0,1,264.99999999997414,420.97415085348894) translate(95.55 39.4)"/></g><path d="M267.14 580h240v60h-240z" stroke="#000" stroke-opacity="0" stroke-width="2" fill="#fff" fill-opacity="0"/><g><use xlink:href="#ai" transform="matrix(1,0,0,1,272.1419650258936,585) translate(11.199999999999989 17.799999999999997)"/><use xlink:href="#af" transform="matrix(1,0,0,1,272.1419650258936,585) translate(134 17.799999999999997)"/><use xlink:href="#aj" transform="matrix(1,0,0,1,272.1419650258936,585) translate(170.9 17.799999999999997)"/><use xlink:href="#ak" transform="matrix(1,0,0,1,272.1419650258936,585) translate(94.525 39.4)"/></g><path d="M260.63 680h240v60h-240z" stroke="#000" stroke-opacity="0" stroke-width="2" fill="#fff" fill-opacity="0"/><g><use xlink:href="#al" transform="matrix(1,0,0,1,265.6307932493878,685) translate(19.174999999999983 17.799999999999997)"/><use xlink:href="#af" transform="matrix(1,0,0,1,265.6307932493878,685) translate(54.124999999999986 17.799999999999997)"/><use xlink:href="#am" transform="matrix(1,0,0,1,265.6307932493878,685) translate(91.02499999999999 17.799999999999997)"/><use xlink:href="#an" transform="matrix(1,0,0,1,265.6307932493878,685) translate(146.825 17.799999999999997)"/><use xlink:href="#ah" transform="matrix(1,0,0,1,265.6307932493878,685) translate(95.55 39.4)"/></g><path d="M428.6 118.34H610v224.92h51.52" stroke="#9c0202" stroke-width="2" fill="none"/><path d="M427.6 118.34l-.1 1h-1.9v-2h1.9zm1 1h-.07l.06-.92v-.08l-.15-1h.14z" fill="#9c0202"/><path fill="#9c0202"/><path d="M412.38 263.3H530v79.96h131.52" stroke="#9c0202" stroke-width="2" fill="none"/><path d="M412.38 264.3v-2z" fill="#9c0202"/><path fill="#9c0202"/><path d="M419.13 389.76H490v-46.5h171.52" stroke="#9c0202" stroke-width="2" fill="none"/><path d="M419.13 389.76h-3v-1h3z" fill="#9c0202"/><path fill="#9c0202"/><path d="M415.44 522.03H560V343.26h101.52" stroke="#9c0202" stroke-width="2" fill="none"/><path fill="#9c0202"/><path fill="#9c0202"/><path d="M408.73 656.44H590V343.26h71.52" stroke="#9c0202" stroke-width="2" fill="none"/><path d="M408.73 657.44h-.33l.33-.34zm0-1l-.94-1h.93z" fill="#9c0202"/><path fill="#9c0202"/><path d="M847.25 300.72V82.7h114.4" stroke="#9c0202" stroke-width="2" fill="none"/><path d="M848.25 303.72h-1v-3h1zM964.66 83.7h-.06l.06-.37zm-2.98-1.17l-.02.17v-.18z" fill="#9c0202"/><path d="M854.74 343.26h51.8V267.7h51.8" stroke="#9c0202" stroke-width="2" fill="none"/><path fill="#9c0202"/><path d="M961.35 268.7h-.24v-2h.25z" fill="#9c0202"/><path d="M858.48 403.33h59.22v42.7h59.23" stroke="#9c0202" stroke-width="2" fill="none"/><path fill="#9c0202"/><path d="M979.93 447.04h-1.3l.37-1 .73-1h.2zm-2.86-1.4l-.14.4v-1h.54z" fill="#9c0202"/><path d="M857.05 425.06h54.23v194.26h54.24" stroke="#9c0202" stroke-width="2" fill="none"/><path d="M857.05 426.06h-3v-1h3z" fill="#9c0202"/><path fill="#9c0202"/><path d="M871.36 132.84h240v60h-240z" stroke="#000" stroke-opacity="0" stroke-width="2" fill="#fff" fill-opacity="0"/><g><use xlink:href="#ao" transform="matrix(1,0,0,1,876.3619135076549,137.84357408129355) translate(37.64999999999999 28.6)"/><use xlink:href="#ap" transform="matrix(1,0,0,1,876.3619135076549,137.84357408129355) translate(109.4 28.6)"/><use xlink:href="#aq" transform="matrix(1,0,0,1,876.3619135076549,137.84357408129355) translate(132.35000000000002 28.6)"/></g><path d="M868.58 331.65h240v60h-240z" stroke="#000" stroke-opacity="0" stroke-width="2" fill="#fff" fill-opacity="0"/><g><use xlink:href="#ar" transform="matrix(1,0,0,1,873.5754337652725,336.65151966659624) translate(47.64999999999999 28.6)"/><use xlink:href="#as" transform="matrix(1,0,0,1,873.5754337652725,336.65151966659624) translate(108.44999999999999 28.6)"/></g><path d="M881.25 500.36h240v60h-240z" stroke="#000" stroke-opacity="0" stroke-width="2" fill="#fff" fill-opacity="0"/><g><use xlink:href="#at" transform="matrix(1,0,0,1,886.2504208847294,505.3622928487098) translate(38.67499999999998 28.6)"/><use xlink:href="#au" transform="matrix(1,0,0,1,886.2504208847294,505.3622928487098) translate(115.52499999999999 28.6)"/></g><path d="M879.78 678.12h240v60h-240z" stroke="#000" stroke-opacity="0" stroke-width="2" fill="#fff" fill-opacity="0"/><g><use xlink:href="#Y" transform="matrix(1,0,0,1,884.779811012077,683.120323138591) translate(44.974999999999994 28.6)"/><use xlink:href="#av" transform="matrix(1,0,0,1,884.779811012077,683.120323138591) translate(88.875 28.6)"/></g><defs><path d="M381-711c0 302 128 499 414 499 178 0 302-89 371-268l257 97c-99 251-300 400-628 403C342 25 84-257 84-711c0-457 243-719 698-719 334 0 540 138 623 392l-260 71c-40-136-182-233-357-231-284 2-407 189-407 487" id="aw"/><path d="M646-868c-165 0-222 146-222 337V0H143c-4-356 8-741-8-1082h268c4 15 14 211 13 231h4c48-123 63-177 149-229 44-27 147-31 197-8v235c-45-10-85-15-120-15" id="ax"/><path d="M375-487c-1 185 60 319 225 319 99 0 162-43 188-129l265 23C976-78 821 20 586 20 247 19 80-194 80-546c0-344 176-559 510-556 341 3 483 247 479 615H375zm422-176c-8-153-68-262-211-262-144 0-206 112-209 262h420" id="ay"/><path d="M972 12c-145 0-202-73-217-205h-6C670-51 552 20 393 20 187 20 58-100 60-306c3-242 172-345 427-346l233-4c5-152-16-266-158-264-112 2-147 49-160 153l-293-14c38-217 204-321 465-321 262 0 427 133 427 388v394c3 101 7 160 89 160 21 0 42-2 62-6v152c-57 15-108 27-180 26zM483-176c165 0 247-140 237-325-89 1-231-1-283 23-55 25-84 70-84 150 0 94 44 152 130 152" id="az"/><path d="M440-330c0 98 31 152 123 154 22 0 53-5 94-14v174C588 7 509 18 420 18c-170-1-258-95-258-272v-638H25v-190h151l88-254h176v254h205v190H440v562" id="aA"/><path d="M500-1102c166 0 271 75 329 191-3-189-2-382-2-573h281v1248c0 67 3 145 8 236H844c-6-25-16-141-15-176h-4C764-45 649 20 479 20c-126 0-223-50-292-148S84-363 84-540c0-321 122-562 416-562zm331 555c0-200-54-364-231-364-75 0-131 30-168 91s-55 155-55 280c0 245 74 368 221 368 74 0 131-33 172-98s61-157 61-277" id="aB"/><g id="a"><use transform="matrix(0.004308363970588236,0,0,0.004308363970588236,0,0)" xlink:href="#aw"/><use transform="matrix(0.004308363970588236,0,0,0.004308363970588236,6.372070312500001,0)" xlink:href="#ax"/><use transform="matrix(0.004308363970588236,0,0,0.004308363970588236,9.805836397058824,0)" xlink:href="#ay"/><use transform="matrix(0.004308363970588236,0,0,0.004308363970588236,14.713062959558824,0)" xlink:href="#az"/><use transform="matrix(0.004308363970588236,0,0,0.004308363970588236,19.620289522058826,0)" xlink:href="#aA"/><use transform="matrix(0.004308363970588236,0,0,0.004308363970588236,22.55859375,0)" xlink:href="#ay"/><use transform="matrix(0.004308363970588236,0,0,0.004308363970588236,27.465820312500004,0)" xlink:href="#aB"/></g><path d="M770-1102c286 0 397 243 397 557 0 320-120 562-415 565-165 2-272-80-330-194 1 32-7 151-14 174H135c5-62 8-144 8-247v-1237h281c-1 197 2 398-4 590h4c63-139 179-208 346-208zM420-536c0 197 55 364 231 364 149 0 223-124 223-373 0-123-18-214-54-273s-92-89-167-89c-179 0-233 167-233 371" id="aC"/><path d="M283 425c-67 0-126-4-177-13V212c70 11 146 17 196-11 80-44 97-100 142-212L16-1082h297c99 309 178 499 271 841 73-291 164-564 250-841h294L700 57c-57 139-116 235-178 288s-142 80-239 80" id="aD"/><g id="b"><use transform="matrix(0.004308363970588236,0,0,0.004308363970588236,0,0)" xlink:href="#aC"/><use transform="matrix(0.004308363970588236,0,0,0.004308363970588236,5.389763327205883,0)" xlink:href="#aD"/></g><path d="M834 0H535L14-1409h308c123 400 253 753 364 1171 104-406 242-780 361-1171h305" id="aE"/><path d="M1079-360C1041-124 864 17 594 20 261 23 80-197 80-535c0-344 180-567 518-567 257 0 435 142 473 361l-283 14c-16-106-75-182-196-182-145 0-217 121-217 363 0 249 74 374 221 374 120 0 188-82 201-201" id="aF"/><path d="M627-1102c355 0 544 203 544 560 0 345-207 562-550 562C283 20 80-201 80-542c0-343 204-560 547-560zM375-542c0 208 60 370 243 370 173 0 259-123 259-370 0-129-21-222-63-280s-103-87-183-87c-171 0-256 122-256 367" id="aG"/><path d="M573-916c-112 0-200 14-200 111 0 88 73 97 168 120 199 47 392 70 479 217 24 40 35 90 35 152 0 237-220 338-484 336-282-2-439-78-499-290l247-37c36 115 92 141 252 141 130 0 226-17 226-124 0-35-14-62-43-82s-79-38-148-52c-159-31-266-61-321-88-100-50-170-123-170-263 0-232 201-328 458-328 245 0 416 95 457 292l-249 26c-21-98-82-131-208-131" id="aH"/><g id="c"><use transform="matrix(0.004308363970588236,0,0,0.004308363970588236,0,0)" xlink:href="#aE"/><use transform="matrix(0.004308363970588236,0,0,0.004308363970588236,5.398380055147059,0)" xlink:href="#ay"/><use transform="matrix(0.004308363970588236,0,0,0.004308363970588236,10.305606617647058,0)" xlink:href="#aF"/><use transform="matrix(0.004308363970588236,0,0,0.004308363970588236,15.212833180147058,0)" xlink:href="#aA"/><use transform="matrix(0.004308363970588236,0,0,0.004308363970588236,18.151137408088236,0)" xlink:href="#aG"/><use transform="matrix(0.004308363970588236,0,0,0.004308363970588236,23.54090073529412,0)" xlink:href="#ax"/><use transform="matrix(0.004308363970588236,0,0,0.004308363970588236,26.974666819852942,0)" xlink:href="#aH"/></g><path d="M1307 0c4-408-9-758 10-1161C1199-702 1088-421 958 0H748C626-385 495-761 387-1161c24 414 7 744 12 1161H137v-1409h395c107 351 232 685 322 1053 98-360 215-702 322-1053h393V0h-262" id="aI"/><path d="M834 0L545-490l-121 84V0H143v-1484h281v850l386-448h302L732-660 1141 0H834" id="aJ"/><g id="d"><use transform="matrix(0.004308363970588236,0,0,0.004308363970588236,0,0)" xlink:href="#aI"/><use transform="matrix(0.004308363970588236,0,0,0.004308363970588236,7.35006893382353,0)" xlink:href="#az"/><use transform="matrix(0.004308363970588236,0,0,0.004308363970588236,12.257295496323529,0)" xlink:href="#ax"/><use transform="matrix(0.004308363970588236,0,0,0.004308363970588236,15.691061580882353,0)" xlink:href="#aJ"/><use transform="matrix(0.004308363970588236,0,0,0.004308363970588236,20.598288143382355,0)" xlink:href="#ay"/><use transform="matrix(0.004308363970588236,0,0,0.004308363970588236,25.505514705882355,0)" xlink:href="#aA"/></g><path d="M604-1296c-97 2-130 31-131 129v85h213v190H473V0H193v-892H35v-190h158v-113c1-202 109-289 315-289 53 0 112 5 178 16v181c-27-6-55-9-82-9" id="aK"/><path d="M1251-892c-133 0-192 146-192 299V0H780v-607c0-190-55-285-164-285-132 0-192 159-192 312V0H143c-4-356 9-741-8-1082h268c4 18 14 191 13 215h4c61-142 139-236 315-236 165 0 266 79 301 236h6c67-147 139-236 328-236 229 0 324 171 324 416V0h-279v-607c0-190-55-285-164-285" id="aL"/><g id="e"><use transform="matrix(0.004308363970588236,0,0,0.004308363970588236,0,0)" xlink:href="#aK"/><use transform="matrix(0.004308363970588236,0,0,0.004308363970588236,2.9383042279411766,0)" xlink:href="#ax"/><use transform="matrix(0.004308363970588236,0,0,0.004308363970588236,6.372070312500001,0)" xlink:href="#aG"/><use transform="matrix(0.004308363970588236,0,0,0.004308363970588236,11.761833639705884,0)" xlink:href="#aL"/></g><path d="M651-891c-148 1-227 151-227 312V0H143v-1484h281c-2 207 6 422-8 618h4c67-145 160-236 348-236 243 0 356 161 356 416V0H844v-606c0-190-64-285-193-285" id="aM"/><g id="f"><use transform="matrix(0.004308363970588236,0,0,0.004308363970588236,0,0)" xlink:href="#aA"/><use transform="matrix(0.004308363970588236,0,0,0.004308363970588236,2.9383042279411766,0)" xlink:href="#aM"/><use transform="matrix(0.004308363970588236,0,0,0.004308363970588236,8.32806755514706,0)" xlink:href="#ay"/></g><path d="M995 0L381-1085c12 105 18 190 18 254V0H137v-1409h337l623 1094c-12-101-18-192-18-275v-819h262V0H995" id="aN"/><path d="M483 20c-243 0-356-160-356-415v-687h281v607c0 190 64 285 192 285 148-1 227-151 227-312v-580h281c4 356-9 741 8 1082H848c-8-96-12-168-12-215h-5C765-71 670 20 483 20" id="aO"/><path d="M768-1103c243 0 356 161 356 416V0H844v-607c0-190-64-285-193-285-148 1-227 151-227 312V0H143c-4-356 9-741-8-1082h268c4 18 14 191 13 215h4c67-145 160-236 348-236" id="aP"/><g id="g"><use transform="matrix(0.004308363970588236,0,0,0.004308363970588236,0,0)" xlink:href="#aN"/><use transform="matrix(0.004308363970588236,0,0,0.004308363970588236,6.372070312500001,0)" xlink:href="#aG"/><use transform="matrix(0.004308363970588236,0,0,0.004308363970588236,11.761833639705884,0)" xlink:href="#aO"/><use transform="matrix(0.004308363970588236,0,0,0.004308363970588236,17.151596966911768,0)" xlink:href="#aP"/></g><path d="M770-1409c315-3 526 146 526 446 0 301-203 467-514 467H432V0H137v-1409h633zm-25 686c158 1 255-80 254-235 0-148-87-222-262-222H432v457h313" id="aQ"/><path d="M144-1277v-207h281v207H144zM425 128c0 189-98 298-287 297-67 0-123-3-170-9V218l51 4c111-4 125-40 125-162v-1142h281V128" id="aR"/><g id="h"><use transform="matrix(0.004308363970588236,0,0,0.004308363970588236,0,0)" xlink:href="#aQ"/><use transform="matrix(0.004308363970588236,0,0,0.004308363970588236,5.88522518382353,0)" xlink:href="#ax"/><use transform="matrix(0.004308363970588236,0,0,0.004308363970588236,9.318991268382353,0)" xlink:href="#aG"/><use transform="matrix(0.004308363970588236,0,0,0.004308363970588236,14.708754595588236,0)" xlink:href="#aR"/><use transform="matrix(0.004308363970588236,0,0,0.004308363970588236,17.160213694852942,0)" xlink:href="#ay"/><use transform="matrix(0.004308363970588236,0,0,0.004308363970588236,22.067440257352942,0)" xlink:href="#aF"/><use transform="matrix(0.004308363970588236,0,0,0.004308363970588236,26.974666819852942,0)" xlink:href="#aA"/></g><g id="i"><use transform="matrix(0.002288818359375,0,0,0.002288818359375,0,0)" xlink:href="#aw"/><use transform="matrix(0.002288818359375,0,0,0.002288818359375,3.385162353515625,0)" xlink:href="#ax"/><use transform="matrix(0.002288818359375,0,0,0.002288818359375,5.2093505859375,0)" xlink:href="#ay"/><use transform="matrix(0.002288818359375,0,0,0.002288818359375,7.816314697265625,0)" xlink:href="#az"/><use transform="matrix(0.002288818359375,0,0,0.002288818359375,10.42327880859375,0)" xlink:href="#aA"/><use transform="matrix(0.002288818359375,0,0,0.002288818359375,11.9842529296875,0)" xlink:href="#ay"/><use transform="matrix(0.002288818359375,0,0,0.002288818359375,14.591217041015625,0)" xlink:href="#aB"/></g><g id="j"><use transform="matrix(0.002288818359375,0,0,0.002288818359375,0,0)" xlink:href="#aC"/><use transform="matrix(0.002288818359375,0,0,0.002288818359375,2.863311767578125,0)" xlink:href="#aD"/></g><path d="M408-1082c8 36 12 125 12 176h4c63-133 179-199 346-199 126 0 224 48 293 145s104 235 104 414c0 322-121 566-415 566-162 0-274-77-328-192h-6c11 149 4 424 6 597H143V-833c0-102-3-185-8-249h273zm243 172c-175 0-232 173-231 372 0 117 20 206 60 270s96 96 169 96c150 0 225-125 225-374 0-243-74-364-223-364" id="aS"/><path d="M143-1277v-207h281v207H143zM143 0v-1082h281V0H143" id="aT"/><g id="k"><use transform="matrix(0.002288818359375,0,0,0.002288818359375,0,0)" xlink:href="#aS"/><use transform="matrix(0.002288818359375,0,0,0.002288818359375,2.863311767578125,0)" xlink:href="#ax"/><use transform="matrix(0.002288818359375,0,0,0.002288818359375,4.6875,0)" xlink:href="#aT"/><use transform="matrix(0.002288818359375,0,0,0.002288818359375,5.989837646484375,0)" xlink:href="#aD"/><use transform="matrix(0.002288818359375,0,0,0.002288818359375,8.5968017578125,0)" xlink:href="#az"/><use transform="matrix(0.002288818359375,0,0,0.002288818359375,11.203765869140625,0)" xlink:href="#aP"/><use transform="matrix(0.002288818359375,0,0,0.002288818359375,14.06707763671875,0)" xlink:href="#aJ"/><use transform="matrix(0.002288818359375,0,0,0.002288818359375,16.674041748046875,0)" xlink:href="#az"/></g><g id="l"><use transform="matrix(0.002288818359375,0,0,0.002288818359375,0,0)" xlink:href="#aK"/><use transform="matrix(0.002288818359375,0,0,0.002288818359375,1.56097412109375,0)" xlink:href="#ax"/><use transform="matrix(0.002288818359375,0,0,0.002288818359375,3.385162353515625,0)" xlink:href="#aG"/><use transform="matrix(0.002288818359375,0,0,0.002288818359375,6.24847412109375,0)" xlink:href="#aL"/></g><g id="m"><use transform="matrix(0.002288818359375,0,0,0.002288818359375,0,0)" xlink:href="#aA"/><use transform="matrix(0.002288818359375,0,0,0.002288818359375,1.56097412109375,0)" xlink:href="#aM"/><use transform="matrix(0.002288818359375,0,0,0.002288818359375,4.424285888671875,0)" xlink:href="#ay"/></g><g id="n"><use transform="matrix(0.002288818359375,0,0,0.002288818359375,0,0)" xlink:href="#aN"/><use transform="matrix(0.002288818359375,0,0,0.002288818359375,3.385162353515625,0)" xlink:href="#aG"/><use transform="matrix(0.002288818359375,0,0,0.002288818359375,6.24847412109375,0)" xlink:href="#aO"/><use transform="matrix(0.002288818359375,0,0,0.002288818359375,9.111785888671875,0)" xlink:href="#aP"/></g><g id="o"><use transform="matrix(0.002288818359375,0,0,0.002288818359375,0,0)" xlink:href="#aQ"/><use transform="matrix(0.002288818359375,0,0,0.002288818359375,3.12652587890625,0)" xlink:href="#ax"/><use transform="matrix(0.002288818359375,0,0,0.002288818359375,4.950714111328125,0)" xlink:href="#aG"/><use transform="matrix(0.002288818359375,0,0,0.002288818359375,7.81402587890625,0)" xlink:href="#aR"/><use transform="matrix(0.002288818359375,0,0,0.002288818359375,9.116363525390625,0)" xlink:href="#ay"/><use transform="matrix(0.002288818359375,0,0,0.002288818359375,11.72332763671875,0)" xlink:href="#aF"/><use transform="matrix(0.002288818359375,0,0,0.002288818359375,14.330291748046875,0)" xlink:href="#aA"/></g><g id="p"><use transform="matrix(0.004438920454545454,0,0,0.004438920454545454,0,0)" xlink:href="#aw"/><use transform="matrix(0.004438920454545454,0,0,0.004438920454545454,6.565163352272727,0)" xlink:href="#ax"/><use transform="matrix(0.004438920454545454,0,0,0.004438920454545454,10.102982954545453,0)" xlink:href="#ay"/><use transform="matrix(0.004438920454545454,0,0,0.004438920454545454,15.158913352272725,0)" xlink:href="#az"/><use transform="matrix(0.004438920454545454,0,0,0.004438920454545454,20.214843750000004,0)" xlink:href="#aA"/><use transform="matrix(0.004438920454545454,0,0,0.004438920454545454,23.2421875,0)" xlink:href="#ay"/><use transform="matrix(0.004438920454545454,0,0,0.004438920454545454,28.298117897727273,0)" xlink:href="#aB"/></g><g id="q"><use transform="matrix(0.004438920454545454,0,0,0.004438920454545454,0,0)" xlink:href="#aC"/><use transform="matrix(0.004438920454545454,0,0,0.004438920454545454,5.553089488636363,0)" xlink:href="#aD"/></g><g id="r"><use transform="matrix(0.004438920454545454,0,0,0.004438920454545454,0,0)" xlink:href="#aE"/><use transform="matrix(0.004438920454545454,0,0,0.004438920454545454,5.561967329545453,0)" xlink:href="#ay"/><use transform="matrix(0.004438920454545454,0,0,0.004438920454545454,10.617897727272727,0)" xlink:href="#aF"/><use transform="matrix(0.004438920454545454,0,0,0.004438920454545454,15.673828125,0)" xlink:href="#aA"/><use transform="matrix(0.004438920454545454,0,0,0.004438920454545454,18.701171874999996,0)" xlink:href="#aG"/><use transform="matrix(0.004438920454545454,0,0,0.004438920454545454,24.254261363636363,0)" xlink:href="#ax"/><use transform="matrix(0.004438920454545454,0,0,0.004438920454545454,27.792080965909086,0)" xlink:href="#aH"/></g><g id="s"><use transform="matrix(0.004438920454545454,0,0,0.004438920454545454,0,0)" xlink:href="#aI"/><use transform="matrix(0.004438920454545454,0,0,0.004438920454545454,7.572798295454545,0)" xlink:href="#az"/><use transform="matrix(0.004438920454545454,0,0,0.004438920454545454,12.628728693181817,0)" xlink:href="#ax"/><use transform="matrix(0.004438920454545454,0,0,0.004438920454545454,16.166548295454543,0)" xlink:href="#aJ"/><use transform="matrix(0.004438920454545454,0,0,0.004438920454545454,21.222478693181817,0)" xlink:href="#ay"/><use transform="matrix(0.004438920454545454,0,0,0.004438920454545454,26.278409090909086,0)" xlink:href="#aA"/></g><g id="t"><use transform="matrix(0.004438920454545454,0,0,0.004438920454545454,0,0)" xlink:href="#aK"/><use transform="matrix(0.004438920454545454,0,0,0.004438920454545454,3.0273437499999996,0)" xlink:href="#ax"/><use transform="matrix(0.004438920454545454,0,0,0.004438920454545454,6.565163352272727,0)" xlink:href="#aG"/><use transform="matrix(0.004438920454545454,0,0,0.004438920454545454,12.11825284090909,0)" xlink:href="#aL"/></g><g id="u"><use transform="matrix(0.004438920454545454,0,0,0.004438920454545454,0,0)" xlink:href="#aA"/><use transform="matrix(0.004438920454545454,0,0,0.004438920454545454,3.0273437499999996,0)" xlink:href="#aM"/><use transform="matrix(0.004438920454545454,0,0,0.004438920454545454,8.580433238636363,0)" xlink:href="#ay"/></g><g id="v"><use transform="matrix(0.004438920454545454,0,0,0.004438920454545454,0,0)" xlink:href="#aN"/><use transform="matrix(0.004438920454545454,0,0,0.004438920454545454,6.565163352272727,0)" xlink:href="#aG"/><use transform="matrix(0.004438920454545454,0,0,0.004438920454545454,12.11825284090909,0)" xlink:href="#aO"/><use transform="matrix(0.004438920454545454,0,0,0.004438920454545454,17.671342329545453,0)" xlink:href="#aP"/></g><g id="w"><use transform="matrix(0.004438920454545454,0,0,0.004438920454545454,0,0)" xlink:href="#aQ"/><use transform="matrix(0.004438920454545454,0,0,0.004438920454545454,6.06356534090909,0)" xlink:href="#ax"/><use transform="matrix(0.004438920454545454,0,0,0.004438920454545454,9.601384943181817,0)" xlink:href="#aG"/><use transform="matrix(0.004438920454545454,0,0,0.004438920454545454,15.15447443181818,0)" xlink:href="#aR"/><use transform="matrix(0.004438920454545454,0,0,0.004438920454545454,17.680220170454543,0)" xlink:href="#ay"/><use transform="matrix(0.004438920454545454,0,0,0.004438920454545454,22.736150568181817,0)" xlink:href="#aF"/><use transform="matrix(0.004438920454545454,0,0,0.004438920454545454,27.792080965909086,0)" xlink:href="#aA"/></g><g id="x"><use transform="matrix(0.00057220458984375,0,0,0.00057220458984375,0,0)" xlink:href="#aw"/><use transform="matrix(0.00057220458984375,0,0,0.00057220458984375,0.8462905883789062,0)" xlink:href="#ax"/><use transform="matrix(0.00057220458984375,0,0,0.00057220458984375,1.302337646484375,0)" xlink:href="#ay"/><use transform="matrix(0.00057220458984375,0,0,0.00057220458984375,1.9540786743164062,0)" xlink:href="#az"/><use transform="matrix(0.00057220458984375,0,0,0.00057220458984375,2.6058197021484375,0)" xlink:href="#aA"/><use transform="matrix(0.00057220458984375,0,0,0.00057220458984375,2.996063232421875,0)" xlink:href="#ay"/><use transform="matrix(0.00057220458984375,0,0,0.00057220458984375,3.6478042602539062,0)" xlink:href="#aB"/></g><g id="y"><use transform="matrix(0.00057220458984375,0,0,0.00057220458984375,0,0)" xlink:href="#aC"/><use transform="matrix(0.00057220458984375,0,0,0.00057220458984375,0.7158279418945312,0)" xlink:href="#aD"/></g><g id="z"><use transform="matrix(0.00057220458984375,0,0,0.00057220458984375,0,0)" xlink:href="#aw"/><use transform="matrix(0.00057220458984375,0,0,0.00057220458984375,0.8462905883789062,0)" xlink:href="#aM"/><use transform="matrix(0.00057220458984375,0,0,0.00057220458984375,1.5621185302734375,0)" xlink:href="#az"/><use transform="matrix(0.00057220458984375,0,0,0.00057220458984375,2.2138595581054688,0)" xlink:href="#aP"/><use transform="matrix(0.00057220458984375,0,0,0.00057220458984375,2.9296875,0)" xlink:href="#aO"/><use transform="matrix(0.00057220458984375,0,0,0.00057220458984375,3.6455154418945312,0)" xlink:href="#aA"/></g><g id="A"><use transform="matrix(0.00057220458984375,0,0,0.00057220458984375,0,0)" xlink:href="#aT"/><use transform="matrix(0.00057220458984375,0,0,0.00057220458984375,0.32558441162109375,0)" xlink:href="#aH"/></g><path d="M137 0v-1409h295V0H137" id="aU"/><g id="B"><use transform="matrix(0.00057220458984375,0,0,0.00057220458984375,0,0)" xlink:href="#aU"/><use transform="matrix(0.00057220458984375,0,0,0.00057220458984375,0.32558441162109375,0)" xlink:href="#aP"/><use transform="matrix(0.00057220458984375,0,0,0.00057220458984375,1.041412353515625,0)" xlink:href="#aB"/><use transform="matrix(0.00057220458984375,0,0,0.00057220458984375,1.7572402954101562,0)" xlink:href="#aO"/><use transform="matrix(0.00057220458984375,0,0,0.00057220458984375,2.4730682373046875,0)" xlink:href="#aH"/><use transform="matrix(0.00057220458984375,0,0,0.00057220458984375,3.1248092651367188,0)" xlink:href="#aA"/><use transform="matrix(0.00057220458984375,0,0,0.00057220458984375,3.5150527954101562,0)" xlink:href="#ax"/><use transform="matrix(0.00057220458984375,0,0,0.00057220458984375,3.971099853515625,0)" xlink:href="#aT"/><use transform="matrix(0.00057220458984375,0,0,0.00057220458984375,4.296684265136719,0)" xlink:href="#ay"/><use transform="matrix(0.00057220458984375,0,0,0.00057220458984375,4.94842529296875,0)" xlink:href="#aH"/></g><g id="C"><use transform="matrix(0.00057220458984375,0,0,0.00057220458984375,0,0)" xlink:href="#aK"/><use transform="matrix(0.00057220458984375,0,0,0.00057220458984375,0.3902435302734375,0)" xlink:href="#ax"/><use transform="matrix(0.00057220458984375,0,0,0.00057220458984375,0.8462905883789062,0)" xlink:href="#aG"/><use transform="matrix(0.00057220458984375,0,0,0.00057220458984375,1.5621185302734375,0)" xlink:href="#aL"/></g><g id="D"><use transform="matrix(0.00057220458984375,0,0,0.00057220458984375,0,0)" xlink:href="#aA"/><use transform="matrix(0.00057220458984375,0,0,0.00057220458984375,0.3902435302734375,0)" xlink:href="#aM"/><use transform="matrix(0.00057220458984375,0,0,0.00057220458984375,1.1060714721679688,0)" xlink:href="#ay"/></g><g id="E"><use transform="matrix(0.00057220458984375,0,0,0.00057220458984375,0,0)" xlink:href="#aN"/><use transform="matrix(0.00057220458984375,0,0,0.00057220458984375,0.8462905883789062,0)" xlink:href="#aG"/><use transform="matrix(0.00057220458984375,0,0,0.00057220458984375,1.5621185302734375,0)" xlink:href="#aO"/><use transform="matrix(0.00057220458984375,0,0,0.00057220458984375,2.2779464721679688,0)" xlink:href="#aP"/></g><g id="F"><use transform="matrix(0.00057220458984375,0,0,0.00057220458984375,0,0)" xlink:href="#aQ"/><use transform="matrix(0.00057220458984375,0,0,0.00057220458984375,0.7816314697265625,0)" xlink:href="#ax"/><use transform="matrix(0.00057220458984375,0,0,0.00057220458984375,1.2376785278320312,0)" xlink:href="#aG"/><use transform="matrix(0.00057220458984375,0,0,0.00057220458984375,1.9535064697265625,0)" xlink:href="#aR"/><use transform="matrix(0.00057220458984375,0,0,0.00057220458984375,2.2790908813476562,0)" xlink:href="#ay"/><use transform="matrix(0.00057220458984375,0,0,0.00057220458984375,2.9308319091796875,0)" xlink:href="#aF"/><use transform="matrix(0.00057220458984375,0,0,0.00057220458984375,3.5825729370117188,0)" xlink:href="#aA"/></g><g id="G"><use transform="matrix(0.0029296875,0,0,0.0029296875,0,0)" xlink:href="#aw"/><use transform="matrix(0.0029296875,0,0,0.0029296875,4.3330078125,0)" xlink:href="#ax"/><use transform="matrix(0.0029296875,0,0,0.0029296875,6.66796875,0)" xlink:href="#ay"/><use transform="matrix(0.0029296875,0,0,0.0029296875,10.0048828125,0)" xlink:href="#az"/><use transform="matrix(0.0029296875,0,0,0.0029296875,13.341796875,0)" xlink:href="#aA"/><use transform="matrix(0.0029296875,0,0,0.0029296875,15.33984375,0)" xlink:href="#ay"/><use transform="matrix(0.0029296875,0,0,0.0029296875,18.6767578125,0)" xlink:href="#aB"/></g><g id="H"><use transform="matrix(0.0029296875,0,0,0.0029296875,0,0)" xlink:href="#aC"/><use transform="matrix(0.0029296875,0,0,0.0029296875,3.6650390625,0)" xlink:href="#aD"/></g><path d="M1108-33c0 316-189 467-512 467-247 0-427-94-467-291l281-33c20 86 88 139 194 139 188 0 233-141 225-343-1-35 4-75 0-107C767-68 651-2 481-2 198-2 84-238 84-550c0-320 120-553 418-553 157 0 266 65 327 195h5c-1-34 7-149 14-174h266c-12 332-6 705-6 1049zM600-197c173 0 231-162 231-359 0-191-60-354-229-354-150 0-225 120-225 360 0 235 74 353 223 353" id="aV"/><path d="M1313 0h-297c-77-314-153-545-219-882C730-580 647-294 571 0H274L-6-1082h264l178 827c55-291 140-551 209-827h301c70 285 147 527 207 827 59-278 123-551 184-827h260" id="aW"/><g id="I"><use transform="matrix(0.0029296875,0,0,0.0029296875,0,0)" xlink:href="#aH"/><use transform="matrix(0.0029296875,0,0,0.0029296875,3.3369140625,0)" xlink:href="#aM"/><use transform="matrix(0.0029296875,0,0,0.0029296875,7.001953125,0)" xlink:href="#az"/><use transform="matrix(0.0029296875,0,0,0.0029296875,10.3388671875,0)" xlink:href="#aP"/><use transform="matrix(0.0029296875,0,0,0.0029296875,14.00390625,0)" xlink:href="#aA"/><use transform="matrix(0.0029296875,0,0,0.0029296875,16.001953125,0)" xlink:href="#aM"/><use transform="matrix(0.0029296875,0,0,0.0029296875,19.6669921875,0)" xlink:href="#az"/><use transform="matrix(0.0029296875,0,0,0.0029296875,23.00390625,0)" xlink:href="#aV"/><use transform="matrix(0.0029296875,0,0,0.0029296875,26.6689453125,0)" xlink:href="#az"/><use transform="matrix(0.0029296875,0,0,0.0029296875,30.005859375,0)" xlink:href="#aW"/><use transform="matrix(0.0029296875,0,0,0.0029296875,34.6728515625,0)" xlink:href="#ax"/><use transform="matrix(0.0029296875,0,0,0.0029296875,37.0078125,0)" xlink:href="#aT"/></g><g id="J"><use transform="matrix(0.0029296875,0,0,0.0029296875,0,0)" xlink:href="#aK"/><use transform="matrix(0.0029296875,0,0,0.0029296875,1.998046875,0)" xlink:href="#ax"/><use transform="matrix(0.0029296875,0,0,0.0029296875,4.3330078125,0)" xlink:href="#aG"/><use transform="matrix(0.0029296875,0,0,0.0029296875,7.998046875,0)" xlink:href="#aL"/></g><g id="K"><use transform="matrix(0.0029296875,0,0,0.0029296875,0,0)" xlink:href="#aA"/><use transform="matrix(0.0029296875,0,0,0.0029296875,1.998046875,0)" xlink:href="#aM"/><use transform="matrix(0.0029296875,0,0,0.0029296875,5.6630859375,0)" xlink:href="#ay"/></g><g id="L"><use transform="matrix(0.0029296875,0,0,0.0029296875,0,0)" xlink:href="#aN"/><use transform="matrix(0.0029296875,0,0,0.0029296875,4.3330078125,0)" xlink:href="#aG"/><use transform="matrix(0.0029296875,0,0,0.0029296875,7.998046875,0)" xlink:href="#aO"/><use transform="matrix(0.0029296875,0,0,0.0029296875,11.6630859375,0)" xlink:href="#aP"/></g><g id="M"><use transform="matrix(0.0029296875,0,0,0.0029296875,0,0)" xlink:href="#aQ"/><use transform="matrix(0.0029296875,0,0,0.0029296875,4.001953125,0)" xlink:href="#ax"/><use transform="matrix(0.0029296875,0,0,0.0029296875,6.3369140625,0)" xlink:href="#aG"/><use transform="matrix(0.0029296875,0,0,0.0029296875,10.001953125,0)" xlink:href="#aR"/><use transform="matrix(0.0029296875,0,0,0.0029296875,11.6689453125,0)" xlink:href="#ay"/><use transform="matrix(0.0029296875,0,0,0.0029296875,15.005859375,0)" xlink:href="#aF"/><use transform="matrix(0.0029296875,0,0,0.0029296875,18.3427734375,0)" xlink:href="#aA"/></g><g id="N"><use transform="matrix(0.0017863948170731706,0,0,0.0017863948170731706,0,0)" xlink:href="#aw"/><use transform="matrix(0.0017863948170731706,0,0,0.0017863948170731706,2.642077934451219,0)" xlink:href="#ax"/><use transform="matrix(0.0017863948170731706,0,0,0.0017863948170731706,4.065834603658536,0)" xlink:href="#ay"/><use transform="matrix(0.0017863948170731706,0,0,0.0017863948170731706,6.100538300304878,0)" xlink:href="#az"/><use transform="matrix(0.0017863948170731706,0,0,0.0017863948170731706,8.135241996951219,0)" xlink:href="#aA"/><use transform="matrix(0.0017863948170731706,0,0,0.0017863948170731706,9.353563262195122,0)" xlink:href="#ay"/><use transform="matrix(0.0017863948170731706,0,0,0.0017863948170731706,11.388266958841463,0)" xlink:href="#aB"/></g><g id="O"><use transform="matrix(0.0017863948170731706,0,0,0.0017863948170731706,0,0)" xlink:href="#aC"/><use transform="matrix(0.0017863948170731706,0,0,0.0017863948170731706,2.234779916158536,0)" xlink:href="#aD"/></g><g id="P"><use transform="matrix(0.0017863948170731706,0,0,0.0017863948170731706,0,0)" xlink:href="#aE"/><use transform="matrix(0.0017863948170731706,0,0,0.0017863948170731706,2.238352705792683,0)" xlink:href="#ay"/><use transform="matrix(0.0017863948170731706,0,0,0.0017863948170731706,4.273056402439025,0)" xlink:href="#aF"/><use transform="matrix(0.0017863948170731706,0,0,0.0017863948170731706,6.307760099085366,0)" xlink:href="#aA"/><use transform="matrix(0.0017863948170731706,0,0,0.0017863948170731706,7.526081364329269,0)" xlink:href="#aG"/><use transform="matrix(0.0017863948170731706,0,0,0.0017863948170731706,9.760861280487806,0)" xlink:href="#ax"/><use transform="matrix(0.0017863948170731706,0,0,0.0017863948170731706,11.184617949695122,0)" xlink:href="#aH"/></g><g id="Q"><use transform="matrix(0.0017863948170731706,0,0,0.0017863948170731706,0,0)" xlink:href="#aI"/><use transform="matrix(0.0017863948170731706,0,0,0.0017863948170731706,3.047589557926829,0)" xlink:href="#az"/><use transform="matrix(0.0017863948170731706,0,0,0.0017863948170731706,5.0822932545731705,0)" xlink:href="#ax"/><use transform="matrix(0.0017863948170731706,0,0,0.0017863948170731706,6.506049923780488,0)" xlink:href="#aJ"/><use transform="matrix(0.0017863948170731706,0,0,0.0017863948170731706,8.540753620426829,0)" xlink:href="#ay"/><use transform="matrix(0.0017863948170731706,0,0,0.0017863948170731706,10.57545731707317,0)" xlink:href="#aA"/></g><g id="R"><use transform="matrix(0.0017863948170731706,0,0,0.0017863948170731706,0,0)" xlink:href="#aK"/><use transform="matrix(0.0017863948170731706,0,0,0.0017863948170731706,1.2183212652439024,0)" xlink:href="#ax"/><use transform="matrix(0.0017863948170731706,0,0,0.0017863948170731706,2.642077934451219,0)" xlink:href="#aG"/><use transform="matrix(0.0017863948170731706,0,0,0.0017863948170731706,4.876857850609755,0)" xlink:href="#aL"/></g><g id="S"><use transform="matrix(0.0017863948170731706,0,0,0.0017863948170731706,0,0)" xlink:href="#aA"/><use transform="matrix(0.0017863948170731706,0,0,0.0017863948170731706,1.2183212652439024,0)" xlink:href="#aM"/><use transform="matrix(0.0017863948170731706,0,0,0.0017863948170731706,3.4531011814024386,0)" xlink:href="#ay"/></g><g id="T"><use transform="matrix(0.0017863948170731706,0,0,0.0017863948170731706,0,0)" xlink:href="#aN"/><use transform="matrix(0.0017863948170731706,0,0,0.0017863948170731706,2.642077934451219,0)" xlink:href="#aG"/><use transform="matrix(0.0017863948170731706,0,0,0.0017863948170731706,4.876857850609755,0)" xlink:href="#aO"/><use transform="matrix(0.0017863948170731706,0,0,0.0017863948170731706,7.1116377667682915,0)" xlink:href="#aP"/></g><g id="U"><use transform="matrix(0.0017863948170731706,0,0,0.0017863948170731706,0,0)" xlink:href="#aQ"/><use transform="matrix(0.0017863948170731706,0,0,0.0017863948170731706,2.440215320121951,0)" xlink:href="#ax"/><use transform="matrix(0.0017863948170731706,0,0,0.0017863948170731706,3.863971989329268,0)" xlink:href="#aG"/><use transform="matrix(0.0017863948170731706,0,0,0.0017863948170731706,6.098751905487804,0)" xlink:href="#aR"/><use transform="matrix(0.0017863948170731706,0,0,0.0017863948170731706,7.115210556402438,0)" xlink:href="#ay"/><use transform="matrix(0.0017863948170731706,0,0,0.0017863948170731706,9.14991425304878,0)" xlink:href="#aF"/><use transform="matrix(0.0017863948170731706,0,0,0.0017863948170731706,11.18461794969512,0)" xlink:href="#aA"/></g><path fill="#9c0202" d="M24-248c120-7 223 5 221 122C244-46 201 0 124 0H24v-248zM76-40c74 7 117-18 117-86 0-67-45-88-117-82v168" id="aX"/><path fill="#9c0202" d="M133-34C117-15 103 5 69 4 32 3 11-16 11-54c-1-60 55-63 116-61 1-26-3-47-28-47-18 1-26 9-28 27l-52-2c7-38 36-58 82-57s74 22 75 68l1 82c-1 14 12 18 25 15v27c-30 8-71 5-69-32zm-48 3c29 0 43-24 42-57-32 0-66-3-65 30 0 17 8 27 23 27" id="aY"/><path fill="#9c0202" d="M115-3C79 11 28 4 28-45v-112H4v-33h27l15-45h31v45h36v33H77v99c-1 23 16 31 38 25v30" id="aZ"/><g id="V"><use transform="matrix(0.07407407407407408,0,0,0.07407407407407408,0,0)" xlink:href="#aX"/><use transform="matrix(0.07407407407407408,0,0,0.07407407407407408,19.185185185185187,0)" xlink:href="#aY"/><use transform="matrix(0.07407407407407408,0,0,0.07407407407407408,34,0)" xlink:href="#aZ"/><use transform="matrix(0.07407407407407408,0,0,0.07407407407407408,42.814814814814824,0)" xlink:href="#aY"/></g><path fill="#9c0202" d="M24 0v-248h52v208h133V0H24" id="ba"/><path fill="#9c0202" d="M147 0L96-86 75-71V0H25v-261h50v150l67-79h53l-66 74L201 0h-54" id="bb"/><path fill="#9c0202" d="M185-48c-13 30-37 53-82 52C43 2 14-33 14-96s30-98 90-98c62 0 83 45 84 108H66c0 31 8 55 39 56 18 0 30-7 34-22zm-45-69c5-46-57-63-70-21-2 6-4 13-4 21h74" id="bc"/><g id="W"><use transform="matrix(0.07407407407407408,0,0,0.07407407407407408,0,0)" xlink:href="#ba"/><use transform="matrix(0.07407407407407408,0,0,0.07407407407407408,16.222222222222225,0)" xlink:href="#aY"/><use transform="matrix(0.07407407407407408,0,0,0.07407407407407408,31.03703703703704,0)" xlink:href="#bb"/><use transform="matrix(0.07407407407407408,0,0,0.07407407407407408,45.851851851851855,0)" xlink:href="#bc"/></g><path fill="#9c0202" d="M199 0l-22-63H83L61 0H9l90-248h61L250 0h-51zm-33-102l-36-108c-10 38-24 72-36 108h72" id="bd"/><path fill="#9c0202" d="M135-194c53 0 70 44 70 98 0 56-19 98-73 100-31 1-45-17-59-34 3 33 2 69 2 105H25l-1-265h48c2 10 0 23 3 31 11-24 29-35 60-35zM114-30c33 0 39-31 40-66 0-38-9-64-40-64-56 0-55 130 0 130" id="be"/><path fill="#9c0202" d="M135-150c-39-12-60 13-60 57V0H25l-1-190h47c2 13-1 29 3 40 6-28 27-53 61-41v41" id="bf"/><path fill="#9c0202" d="M110-194c64 0 96 36 96 99 0 64-35 99-97 99-61 0-95-36-95-99 0-62 34-99 96-99zm-1 164c35 0 45-28 45-65 0-40-10-65-43-65-34 0-45 26-45 65 0 36 10 65 43 65" id="bg"/><path fill="#9c0202" d="M190-63c-7 42-38 67-86 67-59 0-84-38-90-98-12-110 154-137 174-36l-49 2c-2-19-15-32-35-32-30 0-35 28-38 64-6 74 65 87 74 30" id="bh"/><path fill="#9c0202" d="M114-157C55-157 80-60 75 0H25v-261h50l-1 109c12-26 28-41 61-42 86-1 58 113 63 194h-50c-7-57 23-157-34-157" id="bi"/><g id="X"><use transform="matrix(0.07407407407407408,0,0,0.07407407407407408,0,0)" xlink:href="#bd"/><use transform="matrix(0.07407407407407408,0,0,0.07407407407407408,19.185185185185187,0)" xlink:href="#be"/><use transform="matrix(0.07407407407407408,0,0,0.07407407407407408,35.40740740740741,0)" xlink:href="#be"/><use transform="matrix(0.07407407407407408,0,0,0.07407407407407408,51.62962962962963,0)" xlink:href="#bf"/><use transform="matrix(0.07407407407407408,0,0,0.07407407407407408,62.00000000000001,0)" xlink:href="#bg"/><use transform="matrix(0.07407407407407408,0,0,0.07407407407407408,78.22222222222223,0)" xlink:href="#aY"/><use transform="matrix(0.07407407407407408,0,0,0.07407407407407408,93.03703703703704,0)" xlink:href="#bh"/><use transform="matrix(0.07407407407407408,0,0,0.07407407407407408,107.85185185185185,0)" xlink:href="#bi"/></g><path d="M24-248c120-7 223 5 221 122C244-46 201 0 124 0H24v-248zM76-40c74 7 117-18 117-86 0-67-45-88-117-82v168" id="bj"/><path d="M133-34C117-15 103 5 69 4 32 3 11-16 11-54c-1-60 55-63 116-61 1-26-3-47-28-47-18 1-26 9-28 27l-52-2c7-38 36-58 82-57s74 22 75 68l1 82c-1 14 12 18 25 15v27c-30 8-71 5-69-32zm-48 3c29 0 43-24 42-57-32 0-66-3-65 30 0 17 8 27 23 27" id="bk"/><path d="M115-3C79 11 28 4 28-45v-112H4v-33h27l15-45h31v45h36v33H77v99c-1 23 16 31 38 25v30" id="bl"/><g id="Y"><use transform="matrix(0.05,0,0,0.05,0,0)" xlink:href="#bj"/><use transform="matrix(0.05,0,0,0.05,12.950000000000001,0)" xlink:href="#bk"/><use transform="matrix(0.05,0,0,0.05,22.950000000000003,0)" xlink:href="#bl"/><use transform="matrix(0.05,0,0,0.05,28.900000000000002,0)" xlink:href="#bk"/></g><path d="M24 0v-248h52v208h133V0H24" id="bm"/><path d="M147 0L96-86 75-71V0H25v-261h50v150l67-79h53l-66 74L201 0h-54" id="bn"/><path d="M185-48c-13 30-37 53-82 52C43 2 14-33 14-96s30-98 90-98c62 0 83 45 84 108H66c0 31 8 55 39 56 18 0 30-7 34-22zm-45-69c5-46-57-63-70-21-2 6-4 13-4 21h74" id="bo"/><g id="Z"><use transform="matrix(0.05,0,0,0.05,0,0)" xlink:href="#bm"/><use transform="matrix(0.05,0,0,0.05,10.950000000000001,0)" xlink:href="#bk"/><use transform="matrix(0.05,0,0,0.05,20.950000000000003,0)" xlink:href="#bn"/><use transform="matrix(0.05,0,0,0.05,30.950000000000003,0)" xlink:href="#bo"/></g><path d="M169-182c-1-43-94-46-97-3 18 66 151 10 154 114 3 95-165 93-204 36-6-8-10-19-12-30l50-8c3 46 112 56 116 5-17-69-150-10-154-114-4-87 153-88 188-35 5 8 8 18 10 28" id="bp"/><path d="M110-194c64 0 96 36 96 99 0 64-35 99-97 99-61 0-95-36-95-99 0-62 34-99 96-99zm-1 164c35 0 45-28 45-65 0-40-10-65-43-65-34 0-45 26-45 65 0 36 10 65 43 65" id="bq"/><path d="M135-150c-39-12-60 13-60 57V0H25l-1-190h47c2 13-1 29 3 40 6-28 27-53 61-41v41" id="br"/><path d="M195-6C206 82 75 100 31 46c-4-6-6-13-8-21l49-6c3 16 16 24 34 25 40 0 42-37 40-79-11 22-30 35-61 35-53 0-70-43-70-97 0-56 18-96 73-97 30 0 46 14 59 34l2-30h47zm-90-29c32 0 41-27 41-63 0-35-9-62-40-62-32 0-39 29-40 63 0 36 9 62 39 62" id="bs"/><g id="aa"><use transform="matrix(0.05,0,0,0.05,0,0)" xlink:href="#bp"/><use transform="matrix(0.05,0,0,0.05,12,0)" xlink:href="#bl"/><use transform="matrix(0.05,0,0,0.05,17.95,0)" xlink:href="#bq"/><use transform="matrix(0.05,0,0,0.05,28.899999999999995,0)" xlink:href="#br"/><use transform="matrix(0.05,0,0,0.05,35.9,0)" xlink:href="#bk"/><use transform="matrix(0.05,0,0,0.05,45.9,0)" xlink:href="#bs"/><use transform="matrix(0.05,0,0,0.05,56.85,0)" xlink:href="#bo"/></g><path d="M238-95c0 69-44 99-111 99C63 4 22-25 22-93v-155h51v151c-1 38 19 59 55 60 90 1 49-130 58-211h52v153" id="bt"/><path d="M135-194c87-1 58 113 63 194h-50c-7-57 23-157-34-157-59 0-34 97-39 157H25l-1-190h47c2 12-1 28 3 38 12-26 28-41 61-42" id="bu"/><path d="M137-138c1-29-70-34-71-4 15 46 118 7 119 86 1 83-164 76-172 9l43-7c4 19 20 25 44 25 33 8 57-30 24-41C81-84 22-81 20-136c-2-80 154-74 161-7" id="bv"/><path d="M85 4C-2 5 27-109 22-190h50c7 57-23 150 33 157 60-5 35-97 40-157h50l1 190h-47c-2-12 1-28-3-38-12 25-28 42-61 42" id="bw"/><path d="M190-63c-7 42-38 67-86 67-59 0-84-38-90-98-12-110 154-137 174-36l-49 2c-2-19-15-32-35-32-30 0-35 28-38 64-6 74 65 87 74 30" id="bx"/><path d="M88-194c31-1 46 15 58 34l-1-101h50l1 261h-48c-2-10 0-23-3-31C134-8 116 4 84 4 32 4 16-41 15-95c0-56 19-97 73-99zm17 164c33 0 40-30 41-66 1-37-9-64-41-64s-38 30-39 65c0 43 13 65 39 65" id="by"/><g id="ab"><use transform="matrix(0.05,0,0,0.05,0,0)" xlink:href="#bt"/><use transform="matrix(0.05,0,0,0.05,12.950000000000001,0)" xlink:href="#bu"/><use transform="matrix(0.05,0,0,0.05,23.900000000000002,0)" xlink:href="#bv"/><use transform="matrix(0.05,0,0,0.05,33.900000000000006,0)" xlink:href="#bl"/><use transform="matrix(0.05,0,0,0.05,39.85000000000001,0)" xlink:href="#br"/><use transform="matrix(0.05,0,0,0.05,46.85000000000001,0)" xlink:href="#bw"/><use transform="matrix(0.05,0,0,0.05,57.80000000000001,0)" xlink:href="#bx"/><use transform="matrix(0.05,0,0,0.05,67.80000000000001,0)" xlink:href="#bl"/><use transform="matrix(0.05,0,0,0.05,73.75000000000001,0)" xlink:href="#bw"/><use transform="matrix(0.05,0,0,0.05,84.70000000000002,0)" xlink:href="#br"/><use transform="matrix(0.05,0,0,0.05,91.70000000000002,0)" xlink:href="#bo"/><use transform="matrix(0.05,0,0,0.05,101.70000000000002,0)" xlink:href="#by"/></g><g id="ac"><use transform="matrix(0.05,0,0,0.05,0,0)" xlink:href="#bj"/><use transform="matrix(0.05,0,0,0.05,12.950000000000001,0)" xlink:href="#bk"/><use transform="matrix(0.05,0,0,0.05,22.950000000000003,0)" xlink:href="#bl"/><use transform="matrix(0.05,0,0,0.05,28.900000000000002,0)" xlink:href="#bk"/></g><path d="M199 0l-22-63H83L61 0H9l90-248h61L250 0h-51zm-33-102l-36-108c-10 38-24 72-36 108h72" id="bz"/><path d="M135-194c53 0 70 44 70 98 0 56-19 98-73 100-31 1-45-17-59-34 3 33 2 69 2 105H25l-1-265h48c2 10 0 23 3 31 11-24 29-35 60-35zM114-30c33 0 39-31 40-66 0-38-9-64-40-64-56 0-55 130 0 130" id="bA"/><path d="M25 0v-261h50V0H25" id="bB"/><path d="M25-224v-37h50v37H25zM25 0v-190h50V0H25" id="bC"/><g id="ad"><use transform="matrix(0.05,0,0,0.05,0,0)" xlink:href="#bz"/><use transform="matrix(0.05,0,0,0.05,12.950000000000001,0)" xlink:href="#bA"/><use transform="matrix(0.05,0,0,0.05,23.900000000000002,0)" xlink:href="#bA"/><use transform="matrix(0.05,0,0,0.05,34.85,0)" xlink:href="#bB"/><use transform="matrix(0.05,0,0,0.05,39.85,0)" xlink:href="#bC"/><use transform="matrix(0.05,0,0,0.05,44.85,0)" xlink:href="#bx"/><use transform="matrix(0.05,0,0,0.05,54.85,0)" xlink:href="#bk"/><use transform="matrix(0.05,0,0,0.05,64.85,0)" xlink:href="#bl"/><use transform="matrix(0.05,0,0,0.05,70.8,0)" xlink:href="#bC"/><use transform="matrix(0.05,0,0,0.05,75.8,0)" xlink:href="#bq"/><use transform="matrix(0.05,0,0,0.05,86.75,0)" xlink:href="#bu"/></g><path d="M128 0H69L1-190h53L99-40l48-150h52" id="bD"/><g id="ae"><use transform="matrix(0.05,0,0,0.05,0,0)" xlink:href="#bp"/><use transform="matrix(0.05,0,0,0.05,12,0)" xlink:href="#bo"/><use transform="matrix(0.05,0,0,0.05,22,0)" xlink:href="#br"/><use transform="matrix(0.05,0,0,0.05,29,0)" xlink:href="#bD"/><use transform="matrix(0.05,0,0,0.05,39,0)" xlink:href="#bo"/><use transform="matrix(0.05,0,0,0.05,49,0)" xlink:href="#br"/></g><g id="af"><use transform="matrix(0.05,0,0,0.05,0,0)" xlink:href="#bk"/><use transform="matrix(0.05,0,0,0.05,10,0)" xlink:href="#bu"/><use transform="matrix(0.05,0,0,0.05,20.950000000000003,0)" xlink:href="#by"/></g><path d="M24 0v-248h52V0H24" id="bE"/><path d="M121-226c-27-7-43 5-38 36h38v33H83V0H34v-157H6v-33h28c-9-59 32-81 87-68v32" id="bF"/><g id="ag"><use transform="matrix(0.05,0,0,0.05,0,0)" xlink:href="#bE"/><use transform="matrix(0.05,0,0,0.05,5,0)" xlink:href="#bu"/><use transform="matrix(0.05,0,0,0.05,15.950000000000001,0)" xlink:href="#bF"/><use transform="matrix(0.05,0,0,0.05,21.900000000000002,0)" xlink:href="#br"/><use transform="matrix(0.05,0,0,0.05,28.900000000000002,0)" xlink:href="#bk"/><use transform="matrix(0.05,0,0,0.05,38.900000000000006,0)" xlink:href="#bv"/><use transform="matrix(0.05,0,0,0.05,48.900000000000006,0)" xlink:href="#bl"/><use transform="matrix(0.05,0,0,0.05,54.85,0)" xlink:href="#br"/><use transform="matrix(0.05,0,0,0.05,61.85,0)" xlink:href="#bw"/><use transform="matrix(0.05,0,0,0.05,72.80000000000001,0)" xlink:href="#bx"/><use transform="matrix(0.05,0,0,0.05,82.80000000000001,0)" xlink:href="#bl"/><use transform="matrix(0.05,0,0,0.05,88.75000000000001,0)" xlink:href="#bw"/><use transform="matrix(0.05,0,0,0.05,99.70000000000002,0)" xlink:href="#br"/><use transform="matrix(0.05,0,0,0.05,106.7,0)" xlink:href="#bo"/></g><g id="ah"><use transform="matrix(0.05,0,0,0.05,0,0)" xlink:href="#bj"/><use transform="matrix(0.05,0,0,0.05,12.950000000000001,0)" xlink:href="#bk"/><use transform="matrix(0.05,0,0,0.05,22.950000000000003,0)" xlink:href="#bl"/><use transform="matrix(0.05,0,0,0.05,28.900000000000002,0)" xlink:href="#bk"/></g><path d="M114-157C55-157 80-60 75 0H25v-261h50l-1 109c12-26 28-41 61-42 86-1 58 113 63 194h-50c-7-57 23-157-34-157" id="bG"/><g id="ai"><use transform="matrix(0.05,0,0,0.05,0,0)" xlink:href="#bp"/><use transform="matrix(0.05,0,0,0.05,12,0)" xlink:href="#bA"/><use transform="matrix(0.05,0,0,0.05,22.950000000000003,0)" xlink:href="#br"/><use transform="matrix(0.05,0,0,0.05,29.950000000000003,0)" xlink:href="#bo"/><use transform="matrix(0.05,0,0,0.05,39.95,0)" xlink:href="#bk"/><use transform="matrix(0.05,0,0,0.05,49.95,0)" xlink:href="#by"/><use transform="matrix(0.05,0,0,0.05,60.900000000000006,0)" xlink:href="#bv"/><use transform="matrix(0.05,0,0,0.05,70.9,0)" xlink:href="#bG"/><use transform="matrix(0.05,0,0,0.05,81.85000000000001,0)" xlink:href="#bo"/><use transform="matrix(0.05,0,0,0.05,91.85000000000001,0)" xlink:href="#bo"/><use transform="matrix(0.05,0,0,0.05,101.85000000000001,0)" xlink:href="#bl"/><use transform="matrix(0.05,0,0,0.05,107.80000000000001,0)" xlink:href="#bv"/></g><path d="M140-251c80 0 125 45 125 126S219 4 139 4C58 4 15-44 15-125s44-126 125-126zm-1 214c52 0 73-35 73-88 0-50-21-86-72-86-52 0-73 35-73 86s22 88 72 88" id="bH"/><g id="aj"><use transform="matrix(0.05,0,0,0.05,0,0)" xlink:href="#bH"/><use transform="matrix(0.05,0,0,0.05,14,0)" xlink:href="#bl"/><use transform="matrix(0.05,0,0,0.05,19.95,0)" xlink:href="#bG"/><use transform="matrix(0.05,0,0,0.05,30.899999999999995,0)" xlink:href="#bo"/><use transform="matrix(0.05,0,0,0.05,40.9,0)" xlink:href="#br"/></g><path d="M76-208v77h127v40H76V0H24v-248h183v40H76" id="bI"/><g id="ak"><use transform="matrix(0.05,0,0,0.05,0,0)" xlink:href="#bI"/><use transform="matrix(0.05,0,0,0.05,10.950000000000001,0)" xlink:href="#bC"/><use transform="matrix(0.05,0,0,0.05,15.950000000000001,0)" xlink:href="#bB"/><use transform="matrix(0.05,0,0,0.05,20.950000000000003,0)" xlink:href="#bo"/><use transform="matrix(0.05,0,0,0.05,30.950000000000003,0)" xlink:href="#bv"/></g><path d="M24-248c93 1 206-16 204 79-1 75-69 88-152 82V0H24v-248zm52 121c47 0 100 7 100-41 0-47-54-39-100-39v80" id="bJ"/><g id="al"><use transform="matrix(0.05,0,0,0.05,0,0)" xlink:href="#bz"/><use transform="matrix(0.05,0,0,0.05,12.950000000000001,0)" xlink:href="#bJ"/><use transform="matrix(0.05,0,0,0.05,24.950000000000003,0)" xlink:href="#bE"/></g><path d="M67-125c0 53 21 87 73 88 37 1 54-22 65-47l45 17C233-25 199 4 140 4 58 4 20-42 15-125 8-235 124-281 211-232c18 10 29 29 36 50l-46 12c-8-25-30-41-62-41-52 0-71 34-72 86" id="bK"/><g id="am"><use transform="matrix(0.05,0,0,0.05,0,0)" xlink:href="#bK"/><use transform="matrix(0.05,0,0,0.05,12.950000000000001,0)" xlink:href="#bB"/><use transform="matrix(0.05,0,0,0.05,17.950000000000003,0)" xlink:href="#bq"/><use transform="matrix(0.05,0,0,0.05,28.900000000000006,0)" xlink:href="#bw"/><use transform="matrix(0.05,0,0,0.05,39.85000000000001,0)" xlink:href="#by"/></g><g id="an"><use transform="matrix(0.05,0,0,0.05,0,0)" xlink:href="#bp"/><use transform="matrix(0.05,0,0,0.05,12,0)" xlink:href="#bo"/><use transform="matrix(0.05,0,0,0.05,22,0)" xlink:href="#br"/><use transform="matrix(0.05,0,0,0.05,29,0)" xlink:href="#bD"/><use transform="matrix(0.05,0,0,0.05,39,0)" xlink:href="#bC"/><use transform="matrix(0.05,0,0,0.05,44,0)" xlink:href="#bx"/><use transform="matrix(0.05,0,0,0.05,54,0)" xlink:href="#bo"/></g><path d="M186 0v-106H76V0H24v-248h52v99h110v-99h50V0h-50" id="bL"/><g id="ao"><use transform="matrix(0.05,0,0,0.05,0,0)" xlink:href="#bL"/><use transform="matrix(0.05,0,0,0.05,12.950000000000001,0)" xlink:href="#bk"/><use transform="matrix(0.05,0,0,0.05,22.950000000000003,0)" xlink:href="#by"/><use transform="matrix(0.05,0,0,0.05,33.900000000000006,0)" xlink:href="#bq"/><use transform="matrix(0.05,0,0,0.05,44.85000000000001,0)" xlink:href="#bq"/><use transform="matrix(0.05,0,0,0.05,55.80000000000001,0)" xlink:href="#bA"/></g><g id="ap"><use transform="matrix(0.05,0,0,0.05,0,0)" xlink:href="#bq"/><use transform="matrix(0.05,0,0,0.05,10.950000000000001,0)" xlink:href="#br"/></g><path d="M220-157c-53 9-28 100-34 157h-49v-107c1-27-5-49-29-50C55-147 81-57 75 0H25l-1-190h47c2 12-1 28 3 38 10-53 101-56 108 0 13-22 24-43 59-42 82 1 51 116 57 194h-49v-107c-1-25-5-48-29-50" id="bM"/><g id="aq"><use transform="matrix(0.05,0,0,0.05,0,0)" xlink:href="#bp"/><use transform="matrix(0.05,0,0,0.05,12,0)" xlink:href="#bC"/><use transform="matrix(0.05,0,0,0.05,17,0)" xlink:href="#bM"/><use transform="matrix(0.05,0,0,0.05,33,0)" xlink:href="#bC"/><use transform="matrix(0.05,0,0,0.05,38,0)" xlink:href="#bB"/><use transform="matrix(0.05,0,0,0.05,43,0)" xlink:href="#bk"/><use transform="matrix(0.05,0,0,0.05,53,0)" xlink:href="#br"/></g><g id="ar"><use transform="matrix(0.05,0,0,0.05,0,0)" xlink:href="#bz"/><use transform="matrix(0.05,0,0,0.05,12.950000000000001,0)" xlink:href="#by"/><use transform="matrix(0.05,0,0,0.05,23.900000000000002,0)" xlink:href="#bG"/><use transform="matrix(0.05,0,0,0.05,34.85,0)" xlink:href="#bq"/><use transform="matrix(0.05,0,0,0.05,45.800000000000004,0)" xlink:href="#bx"/></g><path d="M123 10C108 53 80 86 19 72V37c35 8 53-11 59-39L3-190h52l48 148c12-52 28-100 44-148h51" id="bN"/><g id="as"><use transform="matrix(0.05,0,0,0.05,0,0)" xlink:href="#bz"/><use transform="matrix(0.05,0,0,0.05,12.950000000000001,0)" xlink:href="#bu"/><use transform="matrix(0.05,0,0,0.05,23.900000000000002,0)" xlink:href="#bk"/><use transform="matrix(0.05,0,0,0.05,33.900000000000006,0)" xlink:href="#bB"/><use transform="matrix(0.05,0,0,0.05,38.900000000000006,0)" xlink:href="#bN"/><use transform="matrix(0.05,0,0,0.05,48.900000000000006,0)" xlink:href="#bv"/><use transform="matrix(0.05,0,0,0.05,58.900000000000006,0)" xlink:href="#bC"/><use transform="matrix(0.05,0,0,0.05,63.900000000000006,0)" xlink:href="#bv"/></g><path d="M230 0l2-204L168 0h-37L68-204 70 0H24v-248h70l56 185 57-185h69V0h-46" id="bO"/><g id="at"><use transform="matrix(0.05,0,0,0.05,0,0)" xlink:href="#bO"/><use transform="matrix(0.05,0,0,0.05,14.950000000000001,0)" xlink:href="#bk"/><use transform="matrix(0.05,0,0,0.05,24.950000000000003,0)" xlink:href="#bx"/><use transform="matrix(0.05,0,0,0.05,34.95,0)" xlink:href="#bG"/><use transform="matrix(0.05,0,0,0.05,45.900000000000006,0)" xlink:href="#bC"/><use transform="matrix(0.05,0,0,0.05,50.900000000000006,0)" xlink:href="#bu"/><use transform="matrix(0.05,0,0,0.05,61.85,0)" xlink:href="#bo"/></g><g id="au"><use transform="matrix(0.05,0,0,0.05,0,0)" xlink:href="#bm"/><use transform="matrix(0.05,0,0,0.05,10.950000000000001,0)" xlink:href="#bo"/><use transform="matrix(0.05,0,0,0.05,20.950000000000003,0)" xlink:href="#bk"/><use transform="matrix(0.05,0,0,0.05,30.950000000000003,0)" xlink:href="#br"/><use transform="matrix(0.05,0,0,0.05,37.95,0)" xlink:href="#bu"/><use transform="matrix(0.05,0,0,0.05,48.900000000000006,0)" xlink:href="#bC"/><use transform="matrix(0.05,0,0,0.05,53.900000000000006,0)" xlink:href="#bu"/><use transform="matrix(0.05,0,0,0.05,64.85000000000001,0)" xlink:href="#bs"/></g><path d="M275 0h-61l-44-196L126 0H64L0-248h53L97-49l45-199h58l43 199 44-199h52" id="bP"/><g id="av"><use transform="matrix(0.05,0,0,0.05,0,0)" xlink:href="#bP"/><use transform="matrix(0.05,0,0,0.05,16.3,0)" xlink:href="#bk"/><use transform="matrix(0.05,0,0,0.05,26.3,0)" xlink:href="#br"/><use transform="matrix(0.05,0,0,0.05,33.3,0)" xlink:href="#bo"/><use transform="matrix(0.05,0,0,0.05,43.3,0)" xlink:href="#bG"/><use transform="matrix(0.05,0,0,0.05,54.25,0)" xlink:href="#bq"/><use transform="matrix(0.05,0,0,0.05,65.2,0)" xlink:href="#bw"/><use transform="matrix(0.05,0,0,0.05,76.15,0)" xlink:href="#bv"/><use transform="matrix(0.05,0,0,0.05,86.15,0)" xlink:href="#bo"/></g></defs></g></svg>