<?xml version="1.0" encoding="utf-8"?>
<!-- Generator: Adobe Illustrator 25.1.0, SVG Export Plug-In . SVG Version: 6.00 Build 0)  -->
<svg version="1.1" id="Layer_1" xmlns="http://www.w3.org/2000/svg" xmlns:xlink="http://www.w3.org/1999/xlink" x="0px" y="0px"
	 viewBox="0 0 792 612" style="enable-background:new 0 0 792 612;" xml:space="preserve">
<style type="text/css">
	.st0{fill:#FF4713;}
	.st1{fill:#323E48;}
</style>
<g>
	<path class="st0" d="M251.81,318.18c-0.85-0.17-1.55-0.75-1.61-2.25c-0.94-22.96,30.51-56.43,32.67-62.35
		c1.56-4.29-2.37-7.71-8.47-6.3c-12.03,2.78-39.51,30.49-54.45,53.7c13.51-38.66,36.17-62.69,41.66-66.71c0,0-4.21-0.69-11.39,4.72
		c-8.31,6.26-22.53,25.17-22.53,25.17s-15.05,23.06-18.48,44.84c-1.56,9.89,3.33,12.59,6.91,12.59c1.6,0,3.12-0.91,4.86-3.73
		c1.34-2.18,16.01-28.74,38.11-49.35c-7.53,12.47-15.06,27.65-16.18,40.49c-0.59,6.75,0.12,10.29,3.89,11.52
		C248.14,320.64,250.66,320.49,251.81,318.18z"/>
</g>
<g>
	<g>
		<g>
			<path class="st1" d="M229.58,257.69c-24.24,29.34-41.64,57.39-44.22,60.4c-1.55,1.81-3.15,2.17-4.3,2.07
				c-3.57-0.32-6.79-4.08-6.79-12.59c0-18.03,21.11-53.09,33.83-70.37c-24.81,4.57-43.09,22.47-43.09,32.96
				c0,3.21,0.99,5.68,0.99,5.68s-8.03-1.85-8.03-10.99c0-16.67,28.49-34.48,59.14-37.65c7.08-0.73,10.67,2.5,9.5,6.42
				c-1.48,4.97-28.77,36.42-40.37,62.72c17.04-26.54,53.33-69.13,65.8-69.13c1.73,0,9.63,3.95,9.63,6.42
				C261.68,233.62,253.82,228.35,229.58,257.69z"/>
		</g>
	</g>
</g>
<g>
	<path class="st1" d="M247.61,321.26c0,0,5.03,0.81,6.28-3.25s0.16-8.32,0.16-8.32s5.89,6.04,3.6,10.13
		C255.61,323.46,247.61,321.26,247.61,321.26z"/>
</g>
<g>
	<path class="st0" d="M170.66,272.32c-3.5-2.28-2.42-7.16-1.81-10.17c-1.55,3.12-2.06,5.06-2.09,8.45
		c-0.03,3.21,1.48,5.57,1.48,5.57s0.81,0.36,2.21,0.32c4.18-0.11,8.78-3.48,8.78-3.48S174.17,274.6,170.66,272.32z"/>
</g>
<g>
	<path class="st1" d="M581.04,306.21c-2.12-2.38-5.43-3.64-7.98-4.13c-3.09-0.59-5.93-0.63-10.99-0.25
		c-5.05,0.39-10.17,1.06-15.35,2.02c-5.18,0.96-20.51,4.67-21.41,4.55s-0.09-1.35,0.36-2.17c1.22-2.19,3.5-4.76,5.71-8.23
		c1.58-2.63-1.03-4.74-2.06-5.13c-2.59-0.97-5.43,1.01-6.39,1.59c-3.56,2.31-7.08,4.65-10.54,7c-0.96,0.67-4.06,2.89-4.69,3.32
		s-1.06,0.03-0.87-0.36c1.94-3.32,6.66-10.28,7.05-12.51c0.33-1.9-1.85-4.02-3.51-1.43c-2.8,3.85-5.59,7.72-8.39,11.58
		c-0.21,0.09-0.41,0.17-0.64,0.26c-9.24,3.81-18.91,3.86-20.29,3.76s-0.6-1.97-0.51-2.31c0.46-1.38,0.75-4.01-0.4-5.96
		c-0.56-0.94-1.34-1.64-2.35-2.09c-1.01-0.46-2.53-0.32-3.47-0.11s-1.83,0.7-2.17,0.79c-1.46,0.29-1.73-2.73-3.58-3.29
		c-0.7-0.21-2.77,0.12-5.81,1.84c-3.88,2.19-7.07,5.21-9.89,8.56c-0.76,0.49-1.75,1.17-2.97,2.06c-1.59,1.16-3.27,2.34-5.05,3.54
		c-1.78,1.2-6.55,4.49-8.31,3.61c-0.87-0.44,0.05-3.03,0.29-5.49c0.24-2.49-0.65-4.75-3.03-6.21c-1.74-1.06-4.89-1.06-9.53,1.59
		c-0.81,0.46-3.37,2.09-4.15,2.49c-0.27,0.14-0.8,0.13-0.83-0.43c-0.04-0.73,0.46-1.78,0.26-3.31c-0.59-4.52-5.21-4.56-7.87-3.5
		c-1.88,0.75-6.7,3.47-7.48,3.82c-0.57,0.26-1.26,0.16-1.08-0.29c0.31-0.8,4.03-6.18,4.84-7.44s0.12-2.69-0.87-3.54
		s-1.9-0.4-2.32,0.16c-0.25,0.33-5.63,7.24-8.58,10.93c-0.47,0.27-6.01,2.29-10.8,6.06c-4.79,3.78-15.77,14.14-18.38,11.45
		c-2.24-2.31,2.48-8.69,10.54-16.61c0.19-0.19,1.49-1.4,1.88-1.88c0.38-0.53,0.46-1.11,0.22-1.73c-0.34-0.82-0.87-1.52-1.59-2.09
		c-0.29-0.19-0.58-0.29-0.87-0.29s-0.55,0.1-0.79,0.29c-0.58,0.43-1.13,0.92-1.66,1.44c-3.18,2.89-6.56,5.47-10.15,7.73
		c-3.59,2.26-7.35,4.25-11.3,5.92c-5.46,2.31-9.96,0.23-4.08-4.59c2.09-1.71,4.09-2.88,6.43-3.94c2.33-1.06,4.65-2.05,7.04-2.6
		c3.43-0.79,5.31-0.54,6.21-0.51c0.68,0.03,1.38,0.13,2.24,0.22c0.19-0.1,0.93-1.15,0.43-2.06c-1-1.83-4.35-3.53-9.1-2.92
		c-2.35,0.3-7.79,1.84-10.29,3.14s-4.23,2.44-5.97,4.07c-2.53,1.44-30.41,17.86-33.68,13.4c-2.07-2.82,6.42-13.04,8.99-15.92
		c10.31-11.54,14.64-16.43,19.93-22.32c2.83-3.14,4.33-3.77,5.92-3.97c2.3-0.3,16.18-0.55,19.07-0.65c0.58-0.05,1.76-0.09,1.91-0.83
		c0.36-1.75-0.74-2.93-2.85-3.07s-8.8,0.24-13.8,0.22c-0.76-0.01-1.11-0.59-0.72-1.15c3.48-4.02,17.95-17.18,20.58-19.64
		c2.48-2.32-1.45-4.78-3.68-3.32c-0.58,0.38-1.83,1.37-2.74,2.09c-6.89,5.68-22.36,20.46-23.18,21.23c-0.72,0.72-1.59,1.11-2.6,1.16
		c-4.23,0.2-16.51,0.7-21.52,0.94c-0.77,0.05-3.62,0.04-3.25,1.52c0.34,1.34,1.06,2.09,2.31,2.24c2.67,0.11,15.17,0.22,17.48,0.22
		c0.65,0,1.04,0.63,0.43,1.3c-0.72,0.87-19.58,22.43-21.75,25.43c-1.18,0.52-9.55,5.32-25.19,10.46
		c-13.5,4.44-19.85,1.59-18.34-3.11c0.86-2.68,5.44-5.51,5.44-5.51c6.14,2.88,16.02-1.25,18.32-3.59c2.32-2.37,2.49-5.63,0.71-7.05
		c-1.63-1.3-4.72-3.34-17.11,2.65c-4.09,1.98-12.24,8.35-12.85,14.45c-0.99,9.78,10.5,11.14,22.97,7.51
		c6.41-1.87,17.34-7.21,22.09-9.25c-0.09,0.17-4.77,7.96-0.68,11.85c2.17,2.07,7.25,1.55,10,0.87c6.36-1.57,21.39-9.75,23.08-10.88
		c-0.29,0.95-0.72,7.52,5.3,7.7c1.83,0.06,3.61-0.19,5.34-0.72c2.65-0.91,5.25-2,7.8-3.25c0.87-0.43,2.1-1.02,2.67-1.23
		s0.87,0.12,0.79,0.43s-0.31,0.86-0.43,1.3c-0.27,1.01-0.93,3.38-0.36,5.78c0.24,1.01,1.16,2.4,2.31,2.96
		c1.93,0.95,3.76,0.79,4.73,0.58c3.07-0.66,5.12-2.22,8.67-4.8c4.37-3.19,11.59-8.8,11.59-8.8s-3.72,4.28-5.71,7.68
		c-0.77,1.31-0.6,2.95,0.29,3.83s2.1,1.24,3.13,0.51c1.03-0.73,2.38-1.98,2.79-2.39c6.02-5.92,14.11-12,21.09-15.6
		c0.71-0.36,1.23-0.49,1.59-0.43c0.55,0.09,0.75,0.72,0.51,1.15c-1.11,2.36-5.5,8.06-8.31,12.49c-0.78,1.23-0.31,3.2,1.37,4.19
		s2.9-0.25,3.9-1.16c3.49-3.15,6.5-6.57,15.02-11.77c1.61-0.98,5-3.38,6.57-2.82c0.86,0.31,0.18,2.2,0,2.89
		c-0.34,1.2-1.21,5.86,0,8.16c1.11,2.12,2.84,2.82,4.91,2.24c1.25-0.43,2.98-1.32,5.2-2.67c1.73-1.05,3.49-2.23,5.29-3.53
		c-1.05,3.44-0.58,7.07,1.93,9.38c4.41,4.06,11.58,0.82,13.79-0.43c2.99-1.69,5.75-3.66,8.27-5.91c0.93-0.83,1.83-1.7,2.7-2.61
		c0.82-0.87,1.83-1.35,3.03-1.44c1.2-0.1,11.06-1.6,14.12-2.35c2.77-0.68,5.17-1.53,7.23-2.54c-3.06,4.78-9.55,13.09-10.35,14.66
		c-0.65,1.26-0.74,2.81,0.34,3.88s2.55,0.99,3.26,0.34c0.81-0.74,14.55-14.48,27.58-22.72c2.17-1.4,2.41-0.96,2.31-0.58
		c-0.1,0.39-0.53,2.17-1.08,4.62c-0.81,3.59,1.71,4.43,3.25,4.48c4.78,0.13,8.83-1.14,14.23-2.13c5.39-0.99,11.81-2.09,19.32-2.49
		c16.07-0.87,24.95,1.73,24.95,1.73S582.15,307.45,581.04,306.21z M281.94,298.44c4.04-1.68,7.09-2.4,8.16-2.6s1.31,0.86-4.12,3.25
		c-2.05,0.9-5.54,1.66-6.79,1.66c-0.29,0-0.43-0.07-0.43-0.22C278.76,300.15,279.82,299.45,281.94,298.44z M460.57,316.85
		c-1.95,1.24-7.24,4.71-9.35,2.35c-1.5-1.68,0.66-5.81,2.02-7.69c2.59-3.57,6.78-7.94,8.05-9.1c1.28-1.16,2.66-2.19,4.15-3.11
		c0.77-0.41,1.79,0.24,0.51,1.73c-0.29,0.43-1.71,2.18-1.01,4.77c0.3,1.11,0.99,2.07,1.66,3.03c0.77,1.11,1.14,1.9,1.12,2.38
		C467.69,311.7,464.08,314.62,460.57,316.85z M473.17,305.95c-0.87,0.77-2.39,0.74-3.18,0.07c-0.22-0.19-0.43-0.48-0.14-0.94
		c1.66-1.81,3.94-3.07,5.06-3.47c0.69-0.24,0.78,0.14,0.72,0.58S474.28,304.89,473.17,305.95z"/>
</g>
<g>
	<path class="st0" d="M581.95,310.63c0,0-2,3.29-6.18,5.18c-4.28,1.94-10.98,1.48-10.98,1.48s6.52-0.74,9.02-3.98
		c2.22-2.88-0.37-4.07-0.37-4.07s2.75,0.13,5.01,0.55C580.81,310.22,581.95,310.63,581.95,310.63z"/>
</g>
<g>
	<g>
		<g>
			<g>
				<path class="st1" d="M443.73,336.43v4.25h8.72c2.52,0,3.22,0.86,3.22,3.6V346c0,2.8-0.72,3.6-3.22,3.6h-8.07
					c-2.5,0-3.25-0.8-3.25-3.6v-0.41l2.15-0.56v2.45h10.3v-4.57h-8.69c-2.47,0-3.22-0.77-3.22-3.6v-1.33c0-2.83,0.75-3.6,3.22-3.6
					h7.38c2.31,0,3.25,0.71,3.25,3.34v0.32l-1.98,0.62v-2.21H443.73z"/>
			</g>
			<g>
				<path class="st1" d="M468.03,342.96l-7.03-8.59h2.87l5.42,6.79l5.18-6.79h2.82l-6.95,8.53v6.7h-2.31V342.96z"/>
			</g>
			<g>
				<path class="st1" d="M484.29,336.43v4.25H493c2.52,0,3.22,0.86,3.22,3.6V346c0,2.8-0.72,3.6-3.22,3.6h-8.07
					c-2.49,0-3.25-0.8-3.25-3.6v-0.41l2.15-0.56v2.45h10.3v-4.57h-8.69c-2.47,0-3.22-0.77-3.22-3.6v-1.33c0-2.83,0.75-3.6,3.22-3.6
					h7.38c2.31,0,3.25,0.71,3.25,3.34v0.32l-1.99,0.62v-2.21H484.29z"/>
			</g>
			<g>
				<path class="st1" d="M509.66,349.6h-2.31v-13.16h-6.33v-2.07h15v2.07h-6.36V349.6z"/>
			</g>
			<g>
				<path class="st1" d="M520.98,334.37h13.33v2.04h-11.03v4.25h6.73v2.01h-6.73v4.84h11.13v2.1h-13.44V334.37z"/>
			</g>
			<g>
				<path class="st1" d="M542.95,339.33v10.27h-1.96v-15.23h1.88l6.73,9.92l6.28-9.92H558v15.23h-2.12v-10.27
					c0-0.35,0.05-1.12,0.11-2.24c-0.35,0.8-0.62,1.33-0.83,1.65l-5.28,8.47h-0.59l-5.5-8.23c-0.27-0.41-0.64-0.94-0.94-1.89
					C542.95,337.97,542.95,338.74,542.95,339.33z"/>
			</g>
			<g>
				<path class="st1" d="M568.29,336.43v4.25h8.72c2.52,0,3.22,0.86,3.22,3.6V346c0,2.8-0.72,3.6-3.22,3.6h-8.07
					c-2.49,0-3.25-0.8-3.25-3.6v-0.41l2.15-0.56v2.45h10.3v-4.57h-8.69c-2.47,0-3.22-0.77-3.22-3.6v-1.33c0-2.83,0.75-3.6,3.22-3.6
					h7.38c2.31,0,3.25,0.71,3.25,3.34v0.32l-1.99,0.62v-2.21H568.29z"/>
			</g>
		</g>
	</g>
	<polygon class="st1" points="431.65,343.69 295.9,342.29 431.65,340.89 	"/>
</g>
<g>
	<polygon class="st0" points="604.99,302.77 611.43,294.73 603.14,288.08 	"/>
</g>
<g>
	<g>
		<g>
			<polygon class="st0" points="573.75,278.09 580.2,269.98 588.57,276.62 			"/>
		</g>
		<g>
			<g>
				<polygon class="st1" points="583.29,268.32 582.06,269.87 591.74,277.56 574.61,279.26 572.68,281.68 597.07,279.26 				"/>
			</g>
		</g>
	</g>
	<g>
		<g>
			<polygon class="st0" points="594.39,269.4 596.59,241.4 582.1,259.64 			"/>
		</g>
		<g>
			<g>
				<polygon class="st1" points="601.2,240.28 597.85,244.49 595.66,272.42 583.4,262.69 581.79,264.71 598.25,277.78 				"/>
			</g>
		</g>
	</g>
	<g>
		<g>
			<g>
				<polygon class="st1" points="601.39,285.22 611.07,292.91 612.3,291.36 598.53,280.42 601.69,304.72 603.62,302.29 				"/>
			</g>
		</g>
	</g>
	<g>
		<g>
			<polygon class="st0" points="608.56,280.68 635.34,272.19 620.85,290.44 			"/>
		</g>
		<g>
			<g>
				<polygon class="st1" points="605.51,280.25 632.22,271.78 635.56,267.57 599.7,278.93 616.16,292 617.76,289.98 				"/>
			</g>
		</g>
	</g>
</g>
<path class="st1" d="M536.21,311.74"/>
</svg>
